<svg id="SvgjsSvg1074" width="256" height="256" xmlns="http://www.w3.org/2000/svg" version="1.1">
    <defs id="SvgjsDefs1075"></defs>
    <g id="SvgjsG1076">
        <svg xmlns="http://www.w3.org/2000/svg" data-name="Layer 1" viewBox="0 0 128 128" width="256" height="256">
            <path fill="#53d86a"
                  d="M73.6545,33.2782a22.684,22.684,0,0,1,9.9705,7.2125V20.375H89.75L78,3,67.375,20.375,73.25,21.75Z"
                  class="color81d9e3 svgShape"></path>
            <path fill="#fe9526"
                  d="M107,102.33V128H23V103.5L28,95l19.73-9.93c.52.54,1.05,1.05,1.62,1.54A22.214,22.214,0,0,0,63.61,92h2.78a22.09646,22.09646,0,0,0,15.24-6.3c.07-.06.13-.12.2-.19L98,92.67Z"
                  class="colorfc785e svgShape"></path>
            <path fill="#167ffc"
                  d="M81,56V68c0,8.82-6.56,16-14.61,16H63.61C55.56,84,49,76.82,49,68V56c0-8.82,6.56-16,14.61-16h2.78C74.44,40,81,47.18,81,56Z"
                  class="colore1ebf4 svgShape"></path>
            <path fill="#2d2e56"
                  d="M43 116a2.00009 2.00009 0 0 0-2 2v8a2 2 0 0 0 4 0v-8A2.00009 2.00009 0 0 0 43 116zM87 116a2.00009 2.00009 0 0 0-2 2v8a2 2 0 0 0 4 0v-8A2.00009 2.00009 0 0 0 87 116zM66 23h5v9.5039a21.47627 21.47627 0 0 1 4 1.3096V21a2.00009 2.00009 0 0 0-2-2H69.6289L78.001 5.74561 86.3711 19H83a2.00009 2.00009 0 0 0-2 2V37.7056a23.75118 23.75118 0 0 1 4 4.687V23h5a2 2 0 0 0 1.6914-3.0679l-11.999-19a2.00063 2.00063 0 0 0-3.3828 0l-12.001 19A2 2 0 0 0 66 23z"
                  class="color2d4356 svgShape"></path>
            <path fill="#53d86a"
                  d="M41,67V56a24.74382,24.74382,0,0,1,5.8333-16.0708V30.5H53.5L43,11.6666,32.8333,29,38.32,31.5,38.0713,67Z"
                  class="color81d9e3 svgShape"></path>
            <path fill="#2d2e56"
                  d="M66.39 36H63.61C53.35 36 45 44.97 45 56V68c0 11.03 8.35 20 18.61 20h2.78C76.65 88 85 79.03 85 68V56C85 44.97 76.65 36 66.39 36zM81 68c0 8.82-6.56 16-14.61 16H63.61C55.56 84 49 76.82 49 68V56c0-8.82 6.56-16 14.61-16h2.78C74.44 40 81 47.18 81 56zM22.6719 59.1924l.3281-.5V72a2 2 0 0 0 4 0V58.6924l.3281.5a2.02052 2.02052 0 0 0 2.7696.5747 1.99977 1.99977 0 0 0 .5742-2.7691l-4-6.0952a1.9995 1.9995 0 0 0-3.3438 0l-4 6.0952a1.99977 1.99977 0 1 0 3.3438 2.1944zM25 22.9668a2.00009 2.00009 0 0 0-2 2V27a2 2 0 0 0 4 0V24.9668A2.00009 2.00009 0 0 0 25 22.9668zM19.9023 9.76709a1.99779 1.99779 0 0 0 2.7696-.57471l.3281-.5V17a2 2 0 0 0 4 0V8.69238l.3281.5a2.0216 2.0216 0 0 0 2.7696.57471 1.9997 1.9997 0 0 0 .5742-2.769l-4-6.09522a1.99946 1.99946 0 0 0-3.3438 0l-4 6.09522A1.9997 1.9997 0 0 0 19.9023 9.76709zM99 22.9668a2.00009 2.00009 0 0 0-2 2V27a2 2 0 0 0 4 0V24.9668A2.00009 2.00009 0 0 0 99 22.9668zM93.9023 9.76709a1.99779 1.99779 0 0 0 2.7696-.57471l.3281-.5V17a2 2 0 0 0 4 0V8.69238l.3281.5a2.02462 2.02462 0 0 0 2.7696.57471 1.9997 1.9997 0 0 0 .5742-2.769l-4-6.09522a1.99946 1.99946 0 0 0-3.3438 0l-4 6.09522A1.9997 1.9997 0 0 0 93.9023 9.76709zM92.9023 47.7671a1.99693 1.99693 0 0 0 2.7696-.5747l.3281-.5V60a2 2 0 0 0 4 0V46.6924l.3281.5a2.02006 2.02006 0 0 0 2.7696.5747 1.99977 1.99977 0 0 0 .5742-2.7691l-4-6.0952a1.9995 1.9995 0 0 0-3.3438 0l-4 6.0952A1.99977 1.99977 0 0 0 92.9023 47.7671zM25 78a2.00009 2.00009 0 0 0-2 2v2a2 2 0 0 0 4 0V80A2.00009 2.00009 0 0 0 25 78zM98 66a2.00009 2.00009 0 0 0-2 2v2a2 2 0 0 0 4 0V68A2.00009 2.00009 0 0 0 98 66z"
                  class="color2d4356 svgShape"></path>
            <path fill="#2d2e56"
                  d="M29.7617,31.3115A1.99866,1.99866,0,0,0,31.5,32.3232h4.5713V65a2,2,0,1,0,4,0V30.3232a2.00015,2.00015,0,0,0-2-2H35.0176L43.001,14.9106l7.9814,13.4126H48a1.99988,1.99988,0,0,0-2,2.0025l.0127,10.6294a23.515,23.515,0,0,1,3.9951-4.1104l-.0058-4.5215H54.5a2.00029,2.00029,0,0,0,1.7188-3.0229L44.7197,9.97705a2.00027,2.00027,0,0,0-3.4375,0L29.7813,29.3003A1.99911,1.99911,0,0,0,29.7617,31.3115Z"
                  class="color2d4356 svgShape"></path>
            <path fill="#595bd4"
                  d="M81,66v2c0,8.82-6.56,16-14.61,16H63.61C55.56,84,49,76.82,49,68V66c0,8.82,6.56,16,14.61,16h2.78C74.44,82,81,74.82,81,66Z"
                  opacity=".5" class="color9fa5aa svgShape"></path>
            <path fill="#ffffff"
                  d="M81,56v2c0-8.82-6.56-16-14.61-16H63.61C55.56,42,49,49.18,49,58V56c0-8.82,6.56-16,14.61-16h2.78C74.44,40,81,47.18,81,56Z"
                  opacity=".5" class="colorfff svgShape"></path>
            <path fill="#f9e8d7"
                  d="M51.64 88.34L33.61 95.78c-.59.31-8.12 4.35-8.61 12.34v-2c.49-7.99 8.02-12.03 8.61-12.34l15.74-7.17A21.4723 21.4723 0 0 0 51.64 88.34zM105 106.12v2c-.49-8.03-8-12.02-8.61-12.34L78.42 88.3a21.60391 21.60391 0 0 0 3.21-2.6l14.76 8.08C97 94.1 104.51 98.09 105 106.12z"
                  opacity=".3" class="colorf9dbd7 svgShape"></path>
            <path fill="#2d2e56"
                  d="M46.7637 83.9849l-14.753 6.1318c-.0341.0142-.0683.0293-.1015.0454-.4199.2026-10.2998 5.0894-10.9063 15.7866-.0019.0376-.0029.0757-.0029.1133V126a2 2 0 0 0 4 0V106.1206c.4863-7.9873 8.0195-12.0322 8.6113-12.3374l16.2461-6.7529A23.4 23.4 0 0 1 46.7637 83.9849zM108.9971 105.9487c-.6065-10.6972-10.4864-15.584-10.9063-15.7866-.0332-.0161-.0674-.0312-.1015-.0454l-14.753-6.1318a23.4 23.4 0 0 1-3.0937 3.0454l16.249 6.7539c.6133.3125 8.1201 4.3032 8.6084 12.3364V126a2 2 0 0 0 4 0V106.062C109 106.0244 108.999 105.9863 108.9971 105.9487z"
                  class="color2d4356 svgShape"></path>
            <polygon fill="#e8fceb" points="86.37 19 85.11 19 78 7.75 70.89 19 69.63 19 78 5.75 86.37 19" opacity=".3"
                     class="colore8fbfc svgShape"></polygon>
            <polygon fill="#e8fceb"
                     points="50.98 28.32 49.79 28.32 43 16.91 36.21 28.32 35.02 28.32 43 14.91 50.98 28.32" opacity=".3"
                     class="colore8fbfc svgShape"></polygon>
        </svg>
    </g>
</svg>