<svg id="SvgjsSvg1070" width="256" height="256" xmlns="http://www.w3.org/2000/svg" version="1.1">
    <defs id="SvgjsDefs1071"></defs>
    <g id="SvgjsG1072">
        <svg xmlns="http://www.w3.org/2000/svg" viewBox="0 0 340 340" width="256" height="256">
            <defs>
                <linearGradient id="a" x1="67.458" x2="213.862" y1="365.269" y2="33.678"
                                gradientTransform="rotate(-.087 162.547 158.18)" gradientUnits="userSpaceOnUse">
                    <stop offset="0" stop-color="#26d7fe" class="stopColor93a2ff svgShape"></stop>
                    <stop offset=".5" stop-color="#acf0ff" class="stopColoracdaff svgShape"></stop>
                    <stop offset="1" stop-color="#e9ffd7" class="stopColord7f2ff svgShape"></stop>
                </linearGradient>
                <linearGradient id="b" x1="264.813" x2="108.703" y1="231.355" y2="81.149"
                                gradientUnits="userSpaceOnUse">
                    <stop offset="0" stop-color="#c2f4ff" class="stopColorc2cfff svgShape"></stop>
                    <stop offset="1" stop-color="#f7fff0" class="stopColorf0f9ff svgShape"></stop>
                </linearGradient>
                <linearGradient id="c" x1="55.396" x2="228.117" y1="35.98" y2="236.769" gradientUnits="userSpaceOnUse">
                    <stop offset="0" stop-color="#c1f4ff" class="stopColorc1d1ff svgShape"></stop>
                    <stop offset="1" stop-color="#c27a94" class="stopColor7a88c2 svgShape"></stop>
                </linearGradient>
                <linearGradient id="d" x1="259.006" x2="295.458" y1="266.614" y2="311.069"
                                gradientUnits="userSpaceOnUse">
                    <stop offset="0" stop-color="#b58898" class="stopColor8888b5 svgShape"></stop>
                    <stop offset="1" stop-color="#88596a" class="stopColor595988 svgShape"></stop>
                </linearGradient>
                <linearGradient id="e" x1="214.413" x2="245.847" y1="292.177" y2="263.886"
                                gradientUnits="userSpaceOnUse">
                    <stop offset="0" stop-color="#d45985" class="stopColorff9893 svgShape"></stop>
                    <stop offset="1" stop-color="#d85b53" class="stopColorf2613e svgShape"></stop>
                </linearGradient>
                <linearGradient id="f" x1="289.858" x2="260.31" y1="211.575" y2="256.526"
                                gradientUnits="userSpaceOnUse">
                    <stop offset="0" stop-color="#ff655b" class="stopColorffaf5b svgShape"></stop>
                    <stop offset="1" stop-color="#9ae45f" class="stopColorffdbb4 svgShape"></stop>
                </linearGradient>
            </defs>
            <path fill="url(#a)"
                  d="M114.988,184.532C190.827,60.79,312.332,63.987,312.332,63.987,291.951,6.591,207.985,3.479,116.251,76.52,92.239,95.639,73.933,117.617,58.97,139A172.805,172.805,0,0,0,27.639,235.26q-.006.336-.01.674c-.215,16.984,4.606,30.9,12.275,42.292a76.052,76.052,0,0,0,74.019,24.132c35.1-7.636,59.573-22.35,59.573-22.35-4.976-6.76-14.524-7.75-14.524-7.75q-2.444-.126-4.839-.38C111.061,267.346,88,228.568,114.988,184.532Z"></path>
            <path fill="url(#b)"
                  d="M81.671,47.64h0l23.7,64.258,121.014,128.89,25.256-17.056L154.763,79.914a27.781,27.781,0,0,0-10.137-9.072C135.111,65.847,114.864,56.567,81.671,47.64Z"></path>
            <path fill="url(#c)"
                  d="M244.5,260.676l5.832-4.722L265.22,243.9l-13.583-20.166-22.839,5.63L81.671,47.64c1.824,34.324,6.688,56.059,9.594,66.405a27.769,27.769,0,0,0,6.764,11.8L235.436,268.011Z"></path>
            <path fill="url(#d)"
                  d="M266.034,253.358,244.52,270.776l34.553,36.37a12.181,12.181,0,1,0,15.344-12.423Z"></path>
            <path fill="url(#e)"
                  d="M258.963,266.62l-23.5,19.028A11.174,11.174,0,0,1,219.745,284l-5.225-6.453,32.187-26.06A36.453,36.453,0,0,1,258.963,266.62Z"></path>
            <path fill="url(#f)"
                  d="M278.894,225.423l-32.187,26.059,12.256,15.138,23.5-19.029a11.174,11.174,0,0,0,1.653-15.715Z"></path>
            <path fill="#4f3d3c"
                  d="M37.282,280.185a79.084,79.084,0,0,0,59.671,27.15,82.58,82.58,0,0,0,17.44-1.879c35.23-7.609,59.573-22.038,60.592-22.649a3.256,3.256,0,0,0,.952-4.718c-5.751-7.838-16.347-9.037-16.8-9.084-.056-.006-.113-.01-.168-.013-1.545-.082-3.115-.207-4.667-.372-20.054-2.142-35.81-12.031-43.228-27.134-7.84-15.964-5.481-35.614,6.644-55.33,4.415-7.179,9.138-14.125,14.042-20.721l94.847,98.13-14.139,11.447a3.255,3.255,0,0,0-.482,4.578l5.225,6.453a14.445,14.445,0,0,0,20.293,2.135l10.771-8.72,27.663,29.118a15.283,15.283,0,0,0,3.284,7.6,14.591,14.591,0,0,0,10.382,5.639,16.883,16.883,0,0,0,11.328-3.355,15.423,15.423,0,0,0-4.468-26.5l-22.724-33.116,10.77-8.72a14.429,14.429,0,0,0,2.135-20.293l-5.224-6.453a3.254,3.254,0,0,0-4.579-.482L262.708,234.34,181.927,114.414c59.958-46.25,126.811-46.79,130.362-46.954a3.645,3.645,0,0,0,2.832-1.358,3.256,3.256,0,0,0,.424-2.981,63.8,63.8,0,0,0-36.134-38.538c-17.028-7.183-38.445-8.373-61.94-3.442a163.652,163.652,0,0,0-31.939,9.933,281.662,281.662,0,0,0-50.139,27.21,9.044,9.044,0,0,1-8.472.876A384.113,384.113,0,0,0,82.517,44.5a3.255,3.255,0,0,0-4.1,3.316c1.855,34.923,6.88,57.038,9.71,67.113a31.148,31.148,0,0,0,7.557,13.186l31.489,32.578c-5.248,7-10.294,14.405-15,22.057-13.338,21.688-15.8,43.568-6.941,61.61,8.423,17.15,26.056,28.353,48.38,30.737,1.629.174,3.277.306,4.9.394a22.078,22.078,0,0,1,9.467,3.754,222.342,222.342,0,0,1-54.965,19.852,72.847,72.847,0,0,1-70.712-23.055C29.77,260.354,30.778,235.1,30.778,235.1a168.878,168.878,0,0,1,30.886-94.4c4.483-6.384,8.839-12.224,13.319-17.852a3.255,3.255,0,0,0-5.094-4.054c-4.562,5.731-8.995,11.673-13.552,18.166A175.328,175.328,0,0,0,24.269,234.98C24.269,249.8,27.568,267.885,37.282,280.185Zm254.451,16.379a3.256,3.256,0,0,0,1.832,1.3,8.925,8.925,0,1,1-11.242,9.1,3.258,3.258,0,0,0-.891-2.063l-28.078-29.555,15.315-12.4ZM278.413,230l3.176,3.924a7.919,7.919,0,0,1-1.171,11.137l-47.006,38.056a7.929,7.929,0,0,1-11.137-1.171l-3.176-3.923ZM100.369,123.586a24.6,24.6,0,0,1-5.97-10.422c-2.634-9.377-7.223-29.5-9.216-61.186a368.571,368.571,0,0,1,39.289,13.214,15.544,15.544,0,0,0,14.561-1.511,275.293,275.293,0,0,1,49.028-26.608,157.355,157.355,0,0,1,30.751-9.561c43.061-9.038,75.913,3.482,88.935,33.547a219.491,219.491,0,0,0-39.636,5.791C244.921,72.3,210.79,84.031,178.283,109l-19-28.209a43.217,43.217,0,0,0-7.917-9.291,3.255,3.255,0,1,0-4.242,4.938,37.028,37.028,0,0,1,6.628,7.787c.029.048.059.1.09.143L257.628,238.453l-25.937,21Z"
                  class="color3c3c4f svgShape"></path>
        </svg>
    </g>
</svg>