<svg id="SvgjsSvg1152" width="256" height="256" xmlns="http://www.w3.org/2000/svg" version="1.1">
    <defs id="SvgjsDefs1153"></defs>
    <g id="SvgjsG1154">
        <svg xmlns="http://www.w3.org/2000/svg" data-name="Layer 1" viewBox="0 0 128 128" width="256" height="256">
            <path fill="#d85b53"
                  d="M88.66 107.71a100.553 100.553 0 0 1-24.91 17.96c-1.37-.31-12.45-6.25-24.24-18.11l1.41-1.24 2.24 2.25a11.32 11.32 0 0 0 1.45 1.24c.01 0 .01.01.02.02a11.615 11.615 0 0 0 14.88-1.14l4.49-4.41 4.5 4.41a11.505 11.505 0 0 0 8.11 3.31 11.366 11.366 0 0 0 5.28-1.27 11.2 11.2 0 0 0 2.95-2.16l2.24-2.25Z"
                  class="colord68751 svgShape"></path>
            <path fill="#26d7fe"
                  d="M88.66 107.71a100.553 100.553 0 0 1-24.91 17.96c-1.37-.31-12.45-6.25-24.24-18.11l1.41-1.24 2.24 2.25a11.32 11.32 0 0 0 1.45 1.24c.01 0 .01.01.02.02a69.567 69.567 0 0 0 16.42 11.71 8.154 8.154 0 0 0 5.4 0 68.081 68.081 0 0 0 15.44-10.81 11.2 11.2 0 0 0 2.95-2.16l2.24-2.25Z"
                  opacity=".4" class="color72492d svgShape"></path>
            <path fill="#d85b53"
                  d="m89.19 16.54-3.02 3.16L64 42.82 41.73 19.59l-2.66-2.78c1.74-.63 3.51-1.34 5.29-2.14a73.403 73.403 0 0 0 10.93-5.99 67.349 67.349 0 0 0 8.38-6.51 62.274 62.274 0 0 0 7.29 5.48 80.796 80.796 0 0 0 16.25 8.19c.65.24 1.31.47 1.98.7Z"
                  class="colord68751 svgShape"></path>
            <path fill="#d45985"
                  d="m89.19 16.54-3.02 3.16a42.675 42.675 0 0 1-12.46-5.14v9.46a1.99 1.99 0 1 1-3.98 0V11.78a41.753 41.753 0 0 1-3.99-3.57v7.81a1.99 1.99 0 1 1-3.98 0V8.21a40.574 40.574 0 0 1-3.99 3.57v12.24a1.99 1.99 0 1 1-3.98 0v-9.46a42.743 42.743 0 0 1-12.06 5.03l-2.66-2.78c1.74-.63 3.51-1.34 5.29-2.14a37.205 37.205 0 0 0 10.93-5.99 39.951 39.951 0 0 0 5.39-5.16A4.247 4.247 0 0 1 63.8 2a4.35 4.35 0 0 1 3.03 1.52 41.257 41.257 0 0 0 4.13 4.13 37.709 37.709 0 0 0 16.25 8.19c.65.24 1.31.47 1.98.7Z"
                  opacity=".3" class="colore5d0c3 svgShape"></path>
            <path fill="#e9f4e1"
                  d="m58.21 79.23-.64.68-7.11 7.51-3.68-3.59 8.18-7.74 2.25 2.17 1 .97zM52.09 73.32l-.33.42L44.54 83l-5.71-5.63 7.44-5.39 2.53-1.83 1.09 1.05 1.25 1.2.95.92z"
                  class="colore1ebf4 svgShape"></path>
            <path fill="#d85b53"
                  d="m84.917 64.63 4.415 4.603 7.38-7.449a5.988 5.988 0 0 1 8.45-.057l4.949 4.858a11.577 11.577 0 0 1 2.033 2.671 121.745 121.745 0 0 0 5.98-36.663Z"
                  class="colord68751 svgShape"></path>
            <path fill="#e9f4e1"
                  d="M2.812 117.063a9.425 9.425 0 0 0 2.125 5.374 7.169 7.169 0 0 0 4.625 2.065c1.59 0 3.308.628 4.438-.502 1.02-1.01 2.078-2.112 2.187-3.563l1.125-2.435 22.2-19.814-8.95-8.688-19 21.063-1.103.624a6.226 6.226 0 0 0-5.147 1.938c-1.14 1.13-2.49 2.328-2.5 3.938Z"
                  class="colore1ebf4 svgShape"></path>
            <path fill="#fc675e"
                  d="M21.75 75c-.01.95-.009 2.508.661 3.188l26.526 26.09c1.35 1.36 4.13.375 5.5-.966l3.777-3.937L26.937 68l-4.526 4.313A3.69 3.69 0 0 0 21.75 75Z"
                  class="colorfc785e svgShape"></path>
            <path fill="#d85b53"
                  d="m31.287 61.784 7.381 7.45 4.415-4.604L9.584 32.312a98.14 98.14 0 0 0 5.803 37.903 11.54 11.54 0 0 1 2.503-3.633l4.95-4.857a5.988 5.988 0 0 1 8.447.06Z"
                  class="colord68751 svgShape"></path>
            <path fill="#562f2d"
                  d="M9.054 116.584a1.996 1.996 0 1 0 2.817.008 2.003 2.003 0 0 0-2.817-.008zM53.79 12.557v9.46a1.992 1.992 0 1 0 3.985 0V9.78a42.6 42.6 0 0 0 3.984-3.567v7.806a1.992 1.992 0 1 0 3.985 0V6.213a42.596 42.596 0 0 0 3.984 3.568v12.236a1.992 1.992 0 1 0 3.984 0v-9.455a43.037 43.037 0 0 0 14.045 5.488l3.338-3.48A38.262 38.262 0 0 1 66.828 1.522 4.333 4.333 0 0 0 63.798 0a4.246 4.246 0 0 0-3.123 1.522 38.21 38.21 0 0 1-23.83 12.984l3.309 3.45a43.005 43.005 0 0 0 13.636-5.4zM17.73 66.769a166.876 166.876 0 0 1-6.613-32.992l-3.903-3.764a6.167 6.167 0 0 1-.515-.575 171.287 171.287 0 0 0 8.315 41.801 11.507 11.507 0 0 1 2.716-4.47zm87.834 20.882-.243.246.074.084c.056-.109.113-.218.169-.33zm4.33-21.27.201.197a11.52 11.52 0 0 1 2.635 3.958 171.427 171.427 0 0 0 8.031-40.498l-4.404 4.248a166.375 166.375 0 0 1-6.462 32.095zm-43.442 57.161a8.176 8.176 0 0 1-5.402 0 72.928 72.928 0 0 1-21.04-16.43l-3 2.637a76.938 76.938 0 0 0 22.268 17.374 11.851 11.851 0 0 0 8.948 0 77.059 77.059 0 0 0 22.486-17.618l-2.994-2.632a73.016 73.016 0 0 1-21.266 16.669z"
                  class="color2d4356 svgShape"></path>
            <path fill="#e9f4e1"
                  d="m123.75 4.25-7.94 20.63-35.95 34.48-.47-.49-1-1.04-2.56-2.68 18.64-18.72a1.994 1.994 0 0 0-2.81-2.83l-18.6 18.67-4.2-4.38 33.7-35.14zm.27 113.74a6.01 6.01 0 0 1-1.74 4.24 5.963 5.963 0 0 1-8.46.02 6.001 6.001 0 0 1-1.74-3.82l-.05-.82L89.7 97.99l7.35-7.42 19 21.68 1.08-.17a5.989 5.989 0 0 1 6.89 5.91z"
                  class="colore1ebf4 svgShape"></path>
            <path fill="#fc675e"
                  d="M105.59 74.8a3.514 3.514 0 0 1-1.03 2.52l-25.38 25.62a3.717 3.717 0 0 1-5.1.03l-3.51-3.44 30.42-30.7 3.53 3.47a3.53 3.53 0 0 1 1.07 2.5Z"
                  class="colorfc785e svgShape"></path>
            <path fill="#e9f4e1"
                  d="M33.46 33.6a2.004 2.004 0 0 0 0 2.83l47.13 47.31-3.03 3.05-64.51-62.24L5.54 5.58l18.84 7.46L86.47 77.8l-3.07 3.1-47.13-47.3a1.98 1.98 0 0 0-2.81 0Z"
                  class="colore1ebf4 svgShape"></path>
            <ellipse cx="63.751" cy="22.017" fill="#562f2d" rx="1.992" ry="2" class="color2d4356 svgShape"></ellipse>
            <path fill="#ffffff"
                  d="m49.89 71.2-7.99 7.35-.98-1.09 5.35-5.48 2.53-1.83 1.09 1.05zM122.46 5.58l-.94 2.37-17.9 7.09-34.09 35.55-2.76-2.88.96-1 1.8 1.88 34.09-35.55 18.84-7.46z"
                  opacity=".5" class="colorfff svgShape"></path>
            <path fill="#9ae45f" d="m13.05 22.55 65.52 63.22-1.01 1.02-64.51-62.24L5.54 5.58l.94.37 6.57 16.6z"
                  opacity=".5" class="color9fa5aa svgShape"></path>
            <path fill="#ffffff"
                  d="m86.47 77.8-.97.98-61.12-63.74-17.9-7.09-.94-2.37 18.84 7.46L86.47 77.8zM124.02 117.99a5.692 5.692 0 0 1-.09 1.02 5.973 5.973 0 0 0-6.8-4.93l-1.08.17-19.91-22.76.91-.92 19 21.68 1.08-.17a5.989 5.989 0 0 1 6.89 5.91Z"
                  opacity=".5" class="colorfff svgShape"></path>
            <path fill="#9ae45f"
                  d="M124.02 117.99a6.01 6.01 0 0 1-1.74 4.24 5.963 5.963 0 0 1-8.46.02 6.001 6.001 0 0 1-1.74-3.82l-.05-.82L89.7 97.99l1.06-1.07 21.27 18.69.05.82a6.001 6.001 0 0 0 1.74 3.82 5.972 5.972 0 0 0 10.11-3.24 5.333 5.333 0 0 1 .09.98Z"
                  opacity=".5" class="color9fa5aa svgShape"></path>
            <path fill="#a5453f"
                  d="M105.59 74.8a3.514 3.514 0 0 1-1.03 2.52l-25.38 25.62a3.668 3.668 0 0 1-3.08.99l28.46-28.61a3.588 3.588 0 0 0 .89-1.48 3.43 3.43 0 0 1 .14.96Z"
                  opacity=".5" class="colora54b3f svgShape"></path>
            <path fill="#e6f9d7" d="m70.58 99.534 30.404-30.71 1.003.993-30.405 30.71z" opacity=".3"
                  class="colorf9dbd7 svgShape"></path>
            <path fill="#9ae45f" d="m58.21 79.23-.64.68-7.13 6.88-1.01-1.02 7.78-7.51 1 .97z" opacity=".5"
                  class="color9fa5aa svgShape"></path>
            <path fill="#e6f9d7" d="m26.088 69.738 1.008-.988 30.25 30.862-1.008.988z" opacity=".3"
                  class="colorf9dbd7 svgShape"></path>
            <path fill="#a5453f"
                  d="m23.44 75.32 28.41 28.62a3.625 3.625 0 0 1-3.03-1L23.44 77.32a3.514 3.514 0 0 1-1.03-2.52 3.43 3.43 0 0 1 .14-.96 3.588 3.588 0 0 0 .89 1.48Z"
                  opacity=".5" class="colora54b3f svgShape"></path>
            <path fill="#ffffff"
                  d="m30.95 90.57.93.94-19.93 22.74-1.08-.17a6.993 6.993 0 0 0-.92-.07 5.975 5.975 0 0 0-5.88 5 5.692 5.692 0 0 1-.09-1.02 5.962 5.962 0 0 1 1.77-4.24 5.9 5.9 0 0 1 4.2-1.74 6.993 6.993 0 0 1 .92.07l1.08.17Z"
                  opacity=".5" class="colorfff svgShape"></path>
            <path fill="#9ae45f"
                  d="m38.3 97.99-22.33 19.62a6.776 6.776 0 0 1-1.79 4.64 5.963 5.963 0 0 1-8.46-.02 6.01 6.01 0 0 1-1.74-4.24 5.332 5.332 0 0 1 .09-.98 5.969 5.969 0 0 0 10.11 3.24 6.776 6.776 0 0 0 1.79-4.64l21.27-18.69ZM122.46 5.58l-7.51 18.97-35.56 34.32-1-1.04 36.56-35.28 6.57-16.6.94-.37z"
                  opacity=".5" class="color9fa5aa svgShape"></path>
            <path fill="#562f2d"
                  d="M94.543 33.602a1.986 1.986 0 0 0-2.817 0L73.09 52.307l2.764 2.883 18.69-18.76a2.004 2.004 0 0 0 0-2.828zm-48.546 72.156a7.597 7.597 0 0 0 10.71.074l4.949-4.857a2.004 2.004 0 0 0 .02-2.84l-8.431-8.508 7.88-7.602-2.875-2.773-7.815 7.54-3.024-3.053 7.592-7.62-2.873-2.772-7.63 8.094-3.583-3.983 7.923-7.284-2.873-2.773-7.252 7.563L28.446 64.6a1.987 1.987 0 0 0-2.804-.02l-4.95 4.858a7.547 7.547 0 0 0-.076 10.705l7.518 7.587-17.788 20.29a9.849 9.849 0 0 0-7.41 2.893A9.999 9.999 0 0 0 9.962 128a9.877 9.877 0 0 0 7.027-2.911 9.993 9.993 0 0 0 2.804-5.524l21.32-18.738zM22.411 74.802a3.524 3.524 0 0 1 1.065-2.504l3.538-3.472 30.42 30.7-3.513 3.447a3.71 3.71 0 0 1-5.099-.036L23.441 77.322a3.522 3.522 0 0 1-1.03-2.52zm-6.438 42.805a6.783 6.783 0 0 1-1.796 4.646 5.987 5.987 0 1 1-4.226-10.24 6.276 6.276 0 0 1 .92.068l1.076.166L30.95 90.57l7.348 7.415z"
                  class="color2d4356 svgShape"></path>
            <path fill="#562f2d"
                  d="M125.06 110.92a9.793 9.793 0 0 0-7.41-2.9L99.87 87.73l7.51-7.59a7.545 7.545 0 0 0-.07-10.7l-4.95-4.86a1.989 1.989 0 0 0-2.81.02L89.28 74.96l-62.33-65a2.085 2.085 0 0 0-.7-.48L2.72.16A1.979 1.979 0 0 0 .58.61a2.01 2.01 0 0 0-.44 2.15L9.5 26.43a2.212 2.212 0 0 0 .47.7l64.79 62.5-8.44 8.51a1.992 1.992 0 0 0 .02 2.83l4.95 4.86a7.606 7.606 0 0 0 10.71-.07l4.89-4.93 21.32 18.74a9.991 9.991 0 0 0 2.8 5.52 9.977 9.977 0 0 0 14.05-14.17ZM13.05 24.55 5.54 5.58l18.84 7.46L86.47 77.8l-3.07 3.1-47.13-47.3a1.98 1.98 0 0 0-2.81 0 2.004 2.004 0 0 0 0 2.83l47.13 47.31-3.03 3.05Zm66.13 78.39a3.717 3.717 0 0 1-5.1.03l-3.51-3.44 30.42-30.7 3.53 3.47a3.525 3.525 0 0 1 .04 5.02Zm43.1 19.29a5.963 5.963 0 0 1-8.46.02 6.001 6.001 0 0 1-1.74-3.82l-.05-.82L89.7 97.99l7.35-7.42 19 21.68 1.08-.17a5.994 5.994 0 0 1 5.15 10.15Z"
                  class="color2d4356 svgShape"></path>
            <path fill="#562f2d"
                  d="m69.53 48.595 34.09-35.553 18.837-7.465-7.504 18.969-35.574 34.32 2.764 2.882 35.882-34.618a2 2 0 0 0 .472-.704l9.362-23.667A1.996 1.996 0 0 0 125.276.16l-23.523 9.321a1.986 1.986 0 0 0-.703.474L66.765 45.711zm46.6 67.997a1.995 1.995 0 1 0 2.816-.008 2.004 2.004 0 0 0-2.817.008z"
                  class="color2d4356 svgShape"></path>
            <path fill="#562f2d"
                  d="M103.505 27.434a1.996 1.996 0 1 0-2.818-.007 2.004 2.004 0 0 0 2.818.007zm-79.017-2.828a1.996 1.996 0 1 0 2.818-.007 2.004 2.004 0 0 0-2.818.007z"
                  class="color2d4356 svgShape"></path>
        </svg>
    </g>
</svg>