<svg id="SvgjsSvg1163" width="256" height="256" xmlns="http://www.w3.org/2000/svg" version="1.1">
    <defs id="SvgjsDefs1164"></defs>
    <g id="SvgjsG1165">
        <svg xmlns="http://www.w3.org/2000/svg" enable-background="new 0 0 54 54" viewBox="0 0 54 54" width="256"
             height="256">
            <path fill="#f9a825" d="M50,17H4c-1.6542969,0-3,1.3457031-3,3v26c0,1.6542969,1.3457031,3,3,3h46c1.6542969,0,3-1.3457031,3-3V20
			C53,18.3457031,51.6542969,17,50,17z" class="colorf9a825 svgShape"></path>
            <path fill="#8d6e63" d="M48,21H6c-0.5522461,0-1,0.4477539-1,1v22c0,0.5522461,0.4477539,1,1,1h42c0.5522461,0,1-0.4477539,1-1V22
			C49,21.4477539,48.5522461,21,48,21z" class="color8d6e63 svgShape"></path>
            <path fill="#f9a825" d="M45.2402344,5H8.7597656C5.0322266,5,2,8.1401367,2,12v2c0,0.463562,0.3220215,0.8362427,0.75,0.9495239V15
			h48.2142944v-0.0072021C50.9768677,14.9932861,50.9873047,15,51,15c0.5522461,0,1-0.4477539,1-1v-2
			C52,8.1401367,48.9677734,5,45.2402344,5z" class="colorf9a825 svgShape"></path>
            <path fill="#f57f17" d="M51,13H3c-1.1030273,0-2,0.8969727-2,2v2c0,1.1030273,0.8969727,2,2,2h48c1.1030273,0,2-0.8969727,2-2v-2
			C53,13.8969727,52.1030273,13,51,13z" class="colorf57f17 svgShape"></path>
            <path fill="#8d6e63" d="M2.0771484,11h49.8457031c-0.4710693-3.3865967-3.2837524-6-6.6826172-6H8.7597656
			C5.3609009,5,2.5482178,7.6134033,2.0771484,11z" class="color8d6e63 svgShape"></path>
            <path fill="#fbc02d" d="M33,13H21c-0.5522461,0-1,0.4477539-1,1v8c0,2.7568359,2.2431641,5,5,5h4c2.7568359,0,5-2.2431641,5-5v-8
			C34,13.4477539,33.5522461,13,33,13z" class="colorfbc02d svgShape"></path>
            <circle cx="27" cy="20" r="3" fill="#f57f17" class="colorf57f17 svgShape"></circle>
            <path d="M27,23c1.6542969,0,3-1.3457031,3-3s-1.3457031-3-3-3s-3,1.3457031-3,3S25.3457031,23,27,23z M27,19
			c0.5512695,0,1,0.4487305,1,1s-0.4487305,1-1,1s-1-0.4487305-1-1S26.4487305,19,27,19z" fill="#000000"
                  class="color000 svgShape"></path>
            <path d="M53,15c0-0.7371216-0.4050903-1.375-1-1.7218628V12c0-3.8598633-3.0322266-7-6.7597656-7H8.7597656
			C5.0322266,5,2,8.1401367,2,12v1.2781372C1.4050903,13.625,1,14.2628784,1,15v2
			c0,0.5099487,0.1975098,0.9707642,0.5126953,1.3243408C1.1891479,18.8031006,1,19.3798828,1,20v26c0,1.6542969,1.3457031,3,3,3h46
			c1.6542969,0,3-1.3457031,3-3V20c0-0.6201172-0.1891479-1.1968994-0.5126953-1.6756592C52.8024902,17.9707642,53,17.5099487,53,17
			V15z M47,36H7v-6h40V36z M7,38h40v5H7V38z M47,28H7v-5h13.1010742C20.5657349,25.2792969,22.5855713,27,25,27h4
			c2.4144287,0,4.4342651-1.7207031,4.8989258-4H47V28z M4,12c0-0.3424072,0.0335083-0.6767578,0.0962524-1h45.8074951
			C49.9664917,11.3232422,50,11.6575928,50,12v1H33H21H4V12z M22,15h10v7c0,1.6542969-1.3457031,3-3,3h-4
			c-1.6542969,0-3-1.3457031-3-3V15z M3,17v-2h17v2H4H3z M34,15h17v2h-1H34V15z M8.7597656,7h36.4804688
			c1.5488281,0,2.9137573,0.7930298,3.7835083,2H4.9762573C5.8460083,7.7930298,7.2109375,7,8.7597656,7z M51,46
			c0,0.5512695-0.4487305,1-1,1H4c-0.5512695,0-1-0.4487305-1-1V20c0-0.5512695,0.4487305-1,1-1h16v2H6
			c-0.5522461,0-1,0.4477539-1,1v22c0,0.5522461,0.4477539,1,1,1h42c0.5522461,0,1-0.4477539,1-1V22c0-0.5522461-0.4477539-1-1-1H34
			v-2h16c0.5512695,0,1,0.4487305,1,1V46z" fill="#000000" class="color000 svgShape"></path>
        </svg>
    </g>
</svg>