<svg xmlns="http://www.w3.org/2000/svg" xmlns:xlink="http://www.w3.org/1999/xlink" viewBox="0 0 350 350" width="350"
     height="350" preserveAspectRatio="xMidYMid meet"
     style="width: 100%; height: 100%; transform: translate3d(0px, 0px, 0px); content-visibility: visible;">
    <defs>
        <clipPath id="__lottie_element_41">
            <rect width="350" height="350" x="0" y="0"></rect>
        </clipPath>
    </defs>
    <g clip-path="url(#__lottie_element_41)">
        <g transform="matrix(1,0,0,1.0094233751296997,175,174.1090850830078)" opacity="1" style="display: block;">
            <g opacity="1" transform="matrix(1,0,0,1,0,0)">
                <g opacity="1" transform="matrix(1,0,0,1,0,0)">
                    <g opacity="1" transform="matrix(1,0,0,1,0,0)">
                        <g opacity="1" transform="matrix(1,0,0,1,0,0)">
                            <g opacity="1" transform="matrix(1,0,0,1,0,0)">
                                <g opacity="1" transform="matrix(1,0,0,1,0,0)">
                                    <g opacity="1" transform="matrix(1,0,0,1,0,0)">
                                        <g opacity="1" transform="matrix(1,0,0,1,0,0)">
                                            <path fill="rgb(255,212,117)" fill-opacity="1"
                                                  d=" M-28.357999801635742,94.2040023803711 C-27.540000915527344,94.55000305175781 -26.524999618530273,94.62999725341797 -25.9060001373291,94.4530029296875 C12.418000221252441,83.4990005493164 49.25699996948242,75.80599975585938 88.97599792480469,71.0790023803711 C90.5479965209961,70.89199829101562 91.56700134277344,69.39900207519531 91.1719970703125,67.86599731445312 C87.49600219726562,53.61000061035156 85.00399780273438,38.569000244140625 84.18800354003906,23.67799949645996 C84.88899993896484,23.577999114990234 63.654998779296875,26.593000411987305 -22.100000381469727,38.805999755859375 C-22.100000381469727,38.805999755859375 -39.138999938964844,86.5469970703125 -28.357999801635742,94.2040023803711z"></path>
                                        </g>
                                    </g>
                                    <g opacity="1" transform="matrix(1,0,0,1,0,0)">
                                        <g opacity="1" transform="matrix(1,0,0,1,0,0)">
                                            <path fill="rgb(255,222,155)" fill-opacity="1"
                                                  d=" M-0.6190000176429749,35.72800064086914 C8.345000267028809,66.68399810791016 61.17100143432617,75.86699676513672 87.5270004272461,51.380001068115234 C85.88999938964844,42.40800094604492 84.71199798583984,33.23899841308594 84.18800354003906,23.67799949645996 C57.55400085449219,27.461999893188477 26.03700065612793,31.94099998474121 -0.6190000176429749,35.72800064086914z"></path>
                                        </g>
                                    </g>
                                    <g opacity="1" transform="matrix(1,0,0,1,0,0)">
                                        <g opacity="1" transform="matrix(1,0,0,1,0,0)">
                                            <path fill="rgb(170,98,86)" fill-opacity="1"
                                                  d=" M76.90499877929688,72.58599853515625 C47.895999908447266,76.58000183105469 18.100000381469727,82.49800109863281 -12.545999526977539,90.7490005493164 C-12.194999694824219,74.63400268554688 -10.977999687194824,49.74800109863281 -2.4700000286102295,36.016998291015625 C12.105999946594238,33.946998596191406 -38.30500030517578,41.10599899291992 63.47100067138672,26.652999877929688 C67.66200256347656,27.37299919128418 70.34700012207031,27.832000732421875 70.34700012207031,27.832000732421875 C70.44999694824219,28.45800018310547 78.11199951171875,50.834999084472656 76.90499877929688,72.58599853515625z"></path>
                                        </g>
                                    </g>
                                    <g opacity="1" transform="matrix(1,0,0,1,0,0)">
                                        <g opacity="1" transform="matrix(1,0,0,1,0,0)">
                                            <path fill="rgb(138,72,82)" fill-opacity="1"
                                                  d=" M-2.9539999961853027,36.95899963378906 C13.265999794006348,69.72000122070312 54.055999755859375,71.84700012207031 76.38600158691406,56.03300094604492 C76.97799682617188,61.39099884033203 77.24299621582031,67.04000091552734 76.90499877929688,72.58599853515625 C47.89400100708008,76.58100128173828 18.10300064086914,82.49700164794922 -12.545999526977539,90.7490005493164 C-12.359000205993652,74.9010009765625 -10.843999862670898,50.66699981689453 -2.9539999961853027,36.95899963378906z"></path>
                                        </g>
                                    </g>
                                    <g opacity="1" transform="matrix(1,0,0,1,0,0)">
                                        <g opacity="1" transform="matrix(1,0,0,1,0,0)">
                                            <g opacity="1" transform="matrix(1,0,0,1,0,0)">
                                                <path fill="rgb(138,72,82)" fill-opacity="1"
                                                      d=" M-10.965999603271484,65.65599822998047 C20.41900062561035,61.683998107910156 44.03200149536133,57.224998474121094 72.53099822998047,51.51100158691406 C72.53099822998047,51.51100158691406 71.22100067138672,45.09199905395508 71.22100067138672,45.09199905395508 C69.25800323486328,45.74800109863281 26.80299949645996,54.17599868774414 -9.984000205993652,58.97600173950195 C-10.442999839782715,61.20199966430664 -10.769000053405762,63.42900085449219 -10.965999603271484,65.65599822998047z"></path>
                                            </g>
                                        </g>
                                    </g>
                                    <g opacity="1" transform="matrix(1,0,0,1,0,0)">
                                        <g opacity="1" transform="matrix(1,0,0,1,0,0)">
                                            <path fill="rgb(81,56,60)" fill-opacity="1"
                                                  d=" M-10.965999603271484,65.65599822998047 C-0.0949999988079071,64.27999877929688 11.168999671936035,62.643001556396484 21.777999877929688,60.941001892089844 C18.503999710083008,59.5 15.489999771118164,57.731998443603516 12.739999771118164,55.70199966430664 C5.210000038146973,56.880001068115234 -2.4539999961853027,57.99399948120117 -9.984000205993652,58.97600173950195 C-10.442999839782715,61.20199966430664 -10.769000053405762,63.42900085449219 -10.965999603271484,65.65599822998047z"></path>
                                        </g>
                                    </g>
                                    <g opacity="1" transform="matrix(1,0,0,1,0,0)">
                                        <g opacity="1" transform="matrix(1,0,0,1,0,0)">
                                            <path fill="rgb(255,185,97)" fill-opacity="1"
                                                  d=" M76.90499877929688,72.58599853515625 C74.22000122070312,71.01399993896484 69.4990005493164,68.29900360107422 64.19400024414062,66.46499633789062 C64.97000122070312,54.069000244140625 62.54100036621094,39.34199905395508 59.28200149536133,27.238000869750977 C59.9109992980957,27.149999618530273 64.10299682617188,26.56100082397461 63.4739990234375,26.64900016784668 C66.14800262451172,27.0939998626709 63.25400161743164,26.597000122070312 70.3499984741211,27.82699966430664 C70.3499984741211,27.82699966430664 70.61199951171875,28.679000854492188 71.06999969482422,30.18600082397461 C73.03500366210938,36.604000091552734 77.9530029296875,55.231998443603516 76.90499877929688,72.58599853515625z"></path>
                                        </g>
                                    </g>
                                    <g opacity="1" transform="matrix(1,0,0,1,0,0)">
                                        <g opacity="1" transform="matrix(1,0,0,1,0,0)">
                                            <path fill="rgb(255,185,97)" fill-opacity="1"
                                                  d=" M-91.6510009765625,65.87899780273438 C-91.83100128173828,66.67900085449219 -91.45500183105469,67.49600219726562 -90.7239990234375,67.86799621582031 C-70.88899993896484,77.96199798583984 -49.51100158691406,86.38600158691406 -28.357999801635742,94.2040023803711 C-27.61400032043457,94.47899627685547 -26.79400062561035,94.02200317382812 -26.684999465942383,93.23699951171875 C-25.679000854492188,85.96399688720703 -21.447999954223633,54.19599914550781 -22.066999435424805,38.79899978637695 C-22.698999404907227,38.63999938964844 -82.87699890136719,23.49799919128418 -82.13999938964844,23.683000564575195 C-82.13999938964844,23.683000564575195 -91.6510009765625,65.87899780273438 -91.6510009765625,65.87899780273438z"></path>
                                        </g>
                                    </g>
                                    <g opacity="1" transform="matrix(1,0,0,1,0,0)">
                                        <g opacity="1" transform="matrix(1,0,0,1,0,0)">
                                            <path fill="rgb(138,72,82)" fill-opacity="1"
                                                  d=" M-42.415000915527344,88.927001953125 C-56.689998626708984,83.49199676513672 -70.04900360107422,77.86000061035156 -82.0979995727539,72.16400146484375 C-81.77100372314453,68.88999938964844 -81.37699890136719,65.74700164794922 -80.91899871826172,62.73400115966797 C-80.91899871826172,62.667999267578125 -80.91999816894531,62.60300064086914 -80.85399627685547,62.5369987487793 C-78.16899871826172,45.57699966430664 -73.25800323486328,32.0880012512207 -71.03099822998047,26.52199935913086 C-71.03099822998047,26.52199935913086 -34.95000076293945,35.55799865722656 -34.95000076293945,35.55799865722656 C-32.757999420166016,51.92599868774414 -37.301998138427734,73.12100219726562 -42.415000915527344,88.927001953125z"></path>
                                        </g>
                                    </g>
                                    <g opacity="1" transform="matrix(1,0,0,1,0,0)">
                                        <g opacity="1" transform="matrix(1,0,0,1,0,0)">
                                            <g opacity="1" transform="matrix(1,0,0,1,0,0)">
                                                <path fill="rgb(81,56,60)" fill-opacity="1"
                                                      d=" M-77.10900115966797,51.44499969482422 C-76.48200225830078,51.65399932861328 -55.698001861572266,57.082000732421875 -36.375999450683594,65.39399719238281 C-36.04800033569336,63.231998443603516 -35.654998779296875,61.00600051879883 -35.393001556396484,58.7140007019043 C-50.262001037597656,52.39799880981445 -70.59300231933594,46.24399948120117 -75.47200012207031,45.15800094604492 C-75.47200012207031,45.15800094604492 -77.10900115966797,51.44499969482422 -77.10900115966797,51.44499969482422z"></path>
                                            </g>
                                        </g>
                                    </g>
                                    <g opacity="1" transform="matrix(1,0,0,1,0,0)">
                                        <g opacity="1" transform="matrix(1,0,0,1,0,0)">
                                            <path fill="rgb(243,162,80)" fill-opacity="1"
                                                  d=" M-71.30999755859375,66.30400085449219 C-71.46499633789062,65.91400146484375 -71.54299926757812,65.44599914550781 -71.46499633789062,65.05699920654297 C-69.8290023803711,49.862998962402344 -66.08899688720703,36.77399826049805 -63.12799835205078,28.43600082397461 C-63.12799835205078,28.43600082397461 -70.99800109863281,26.488000869750977 -70.99800109863281,26.488000869750977 C-73.64700317382812,33.11199951171875 -80.28800201416016,50.24100112915039 -82.08599853515625,72.14800262451172 C-80.60600280761719,71.05699920654297 -76.99800109863281,68.40799713134766 -71.30999755859375,66.30400085449219z"></path>
                                        </g>
                                    </g>
                                    <g opacity="1" transform="matrix(1,0,0,1,0,0)">
                                        <g opacity="1" transform="matrix(1,0,0,1,0,0)">
                                            <path fill="rgb(255,185,97)" fill-opacity="1"
                                                  d=" M-80.98500061035156,62.667999267578125 C-82.07499694824219,65.59400177001953 -82.46600341796875,68.75199890136719 -82.08599853515625,72.14800262451172 C-69.52200317382812,78.0469970703125 -56.27299880981445,83.62899780273438 -42.415000915527344,88.927001953125 C-39.650001525878906,85.88500213623047 -38.84700012207031,82.15499877929688 -39.20600128173828,77.9260025024414 C-39.20600128173828,77.9260025024414 -80.98500061035156,62.667999267578125 -80.98500061035156,62.667999267578125z"></path>
                                        </g>
                                    </g>
                                    <g opacity="1" transform="matrix(1,0,0,1,0,0)">
                                        <g opacity="1" transform="matrix(1,0,0,1,0,0)">
                                            <path fill="rgb(255,212,117)" fill-opacity="1"
                                                  d=" M-37.4379997253418,70.46099853515625 C-37.96200180053711,73.1449966430664 -38.61600112915039,75.63400268554688 -39.20600128173828,77.9260025024414 C-52.4109992980957,74.56099700927734 -80.98500061035156,62.667999267578125 -80.98500061035156,62.667999267578125 C-76.74199676513672,58.42499923706055 -71.13200378417969,57.98699951171875 -70.50700378417969,57.69200134277344 C-70.50700378417969,57.69200134277344 -37.4379997253418,70.46099853515625 -37.4379997253418,70.46099853515625z"></path>
                                        </g>
                                    </g>
                                    <g opacity="1" transform="matrix(1,0,0,1,0,0)">
                                        <g opacity="1" transform="matrix(1,0,0,1,0,0)">
                                            <g opacity="1" transform="matrix(1,0,0,1,0,0)">
                                                <path fill="rgb(170,98,86)" fill-opacity="1"
                                                      d=" M86.6520004272461,-8.84000015258789 C86.6520004272461,-8.84000015258789 76.76499938964844,-4.7789998054504395 63.14400100708008,-0.06400000303983688 C47.446998596191406,5.428999900817871 8.579000473022461,18.219999313354492 -7.51200008392334,13.621999740600586 C-30.757999420166016,7.007999897003174 -24.014999389648438,-3.5999999046325684 -22.836000442504883,-25.340999603271484 C-21.591999053955078,-47.08100128173828 -55.314998626708984,-66.00599670410156 -39.46799850463867,-73.92900085449219 C-23.555999755859375,-81.85199737548828 24.902000427246094,-77.79299926757812 24.902000427246094,-77.79299926757812 C68.84100341796875,-83.29299926757812 74.34100341796875,-41.9739990234375 86.6520004272461,-8.84000015258789z"></path>
                                            </g>
                                        </g>
                                        <g opacity="1" transform="matrix(1,0,0,1,0,0)">
                                            <g opacity="1" transform="matrix(1,0,0,1,0,0)">
                                                <path fill="rgb(138,72,82)" fill-opacity="1"
                                                      d=" M-17.839000701904297,-78.31500244140625 C-15.942999839782715,-49.18000030517578 3.7820000648498535,-21.43000030517578 41.36899948120117,-21.43000030517578 C56.64699935913086,-21.43000030517578 68.94300079345703,-26.030000686645508 78.3239974975586,-33.40700149536133 C81.12200164794922,-25.26099967956543 83.68699645996094,-16.829999923706055 86.63800048828125,-8.869999885559082 C86.63800048828125,-8.869999885559082 15.723999977111816,20.21500015258789 -7.514999866485596,13.618000030517578 C-30.753000259399414,7.020999908447266 -24.006999969482422,-3.622999906539917 -22.80699920654297,-25.36199951171875 C-21.297000885009766,-52.715999603271484 -73.75900268554688,-74.26200103759766 -17.839000701904297,-78.31500244140625z"></path>
                                            </g>
                                        </g>
                                        <g opacity="1" transform="matrix(1,0,0,1,0,0)">
                                            <g opacity="1" transform="matrix(1,0,0,1,0,0)">
                                                <g opacity="1" transform="matrix(1,0,0,1,0,0)">
                                                    <path fill="rgb(81,56,60)" fill-opacity="1"
                                                          d=" M63.14400100708008,-0.06400000303983688 C46.11899948120117,5.894000053405762 23.198999404907227,12.902000427246094 6.631999969482422,14.342000007629395 C-1.1080000400543213,-5.01200008392334 9.947999954223633,-32.834999084472656 31.711999893188477,-30.972000122070312 C47.362998962402344,-29.597000122070312 54.303001403808594,-24.097000122070312 61.571998596191406,-5.76200008392334 C62.358001708984375,-3.7320001125335693 62.88199996948242,-1.8320000171661377 63.14400100708008,-0.06400000303983688z"></path>
                                                </g>
                                            </g>
                                        </g>
                                        <g opacity="1" transform="matrix(1,0,0,1,0,0)">
                                            <g opacity="1" transform="matrix(1,0,0,1,0,0)">
                                                <g opacity="1" transform="matrix(1,0,0,1,0,0)">
                                                    <path fill="rgb(138,72,82)" fill-opacity="1"
                                                          d=" M-44.56100082397461,-52.090999603271484 C-44.56100082397461,-52.090999603271484 -42.20399856567383,-46.000999450683594 -42.20399856567383,-46.000999450683594 C-33.22999954223633,-49.479000091552734 -22.97800064086914,-52.5620002746582 -12.013999938964844,-54.777000427246094 C35.00699996948242,-64.53500366210938 75.87100219726562,-55.69300079345703 76.3290023803711,-55.5620002746582 C76.3290023803711,-55.5620002746582 77.76899719238281,-61.979000091552734 77.76899719238281,-61.979000091552734 C75.67400360107422,-62.4379997253418 34.09000015258789,-71.41000366210938 -14.435999870300293,-60.99800109863281 C-25.19300079345703,-58.76900100708008 -34.65700149536133,-55.80799865722656 -44.56100082397461,-52.090999603271484z"></path>
                                                </g>
                                            </g>
                                        </g>
                                        <g opacity="1" transform="matrix(1,0,0,1,0,0)">
                                            <g opacity="1" transform="matrix(1,0,0,1,0,0)">
                                                <g opacity="1" transform="matrix(1,0,0,1,0,0)">
                                                    <path fill="rgb(138,72,82)" fill-opacity="1"
                                                          d=" M-34.737998962402344,-29.628999710083008 C-34.737998962402344,-29.628999710083008 -33.0359992980957,-23.277000427246094 -33.0359992980957,-23.277000427246094 C-18.92799949645996,-27.07200050354004 -6.617000102996826,-29.388999938964844 7.369999885559082,-31.266000747680664 C50.13399887084961,-36.832000732421875 85.69400024414062,-33.428001403808594 86.21800231933594,-33.428001403808594 C86.21800231933594,-33.428001403808594 86.87300109863281,-39.9109992980957 86.87300109863281,-39.9109992980957 C86.3489990234375,-39.97700119018555 46.729000091552734,-43.775001525878906 0.42899999022483826,-36.89799880981445 C-10.397000312805176,-35.36399841308594 -23.54199981689453,-32.77199935913086 -34.737998962402344,-29.628999710083008z"></path>
                                                </g>
                                            </g>
                                        </g>
                                        <g opacity="1" transform="matrix(1,0,0,1,0,0)">
                                            <g opacity="1" transform="matrix(1,0,0,1,0,0)">
                                                <path fill="rgb(81,56,60)" fill-opacity="1"
                                                      d=" M0.42899999022483826,-36.89799880981445 C-7.429999828338623,-35.784000396728516 -15.486000061035156,-34.27799987792969 -23.606000900268555,-32.444000244140625 C-23.016000747680664,-30.283000946044922 -22.687999725341797,-28.05699920654297 -22.819000244140625,-25.829999923706055 C-12.602999687194824,-28.253999710083008 -2.388000011444092,-29.957000732421875 7.369999885559082,-31.266000747680664 C4.881999969482422,-32.96900177001953 2.5239999294281006,-34.86800003051758 0.42899999022483826,-36.89799880981445z"></path>
                                            </g>
                                        </g>
                                        <g opacity="1" transform="matrix(1,0,0,1,0,0)">
                                            <g opacity="1" transform="matrix(1,0,0,1,0,0)">
                                                <path fill="rgb(81,56,60)" fill-opacity="1"
                                                      d=" M-36.702999114990234,-54.90700149536133 C-35.393001556396484,-53.138999938964844 -33.952999114990234,-51.30500030517578 -32.57699966430664,-49.40599822998047 C-25.701000213623047,-51.63199996948242 -18.825000762939453,-53.4010009765625 -12.013999938964844,-54.777000427246094 C-12.996000289916992,-56.80699920654297 -13.781999588012695,-58.83599853515625 -14.435999870300293,-60.99800109863281 C-21.70599937438965,-59.492000579833984 -29.17099952697754,-57.46099853515625 -36.702999114990234,-54.90700149536133z"></path>
                                            </g>
                                        </g>
                                        <g opacity="1" transform="matrix(1,0,0,1,0,0)">
                                            <g opacity="1" transform="matrix(1,0,0,1,0,0)">
                                                <g opacity="1" transform="matrix(1,0,0,1,0,0)">
                                                    <path fill="rgb(81,56,60)" fill-opacity="1"
                                                          d=" M-26.716999053955078,3.878000020980835 C31.243999481201172,-13.229000091552734 91.66600036621094,-8.567999839782715 92.27400207519531,-8.52299976348877 C92.27400207519531,-8.52299976348877 92.7979965209961,-15.045999526977539 92.7979965209961,-15.045999526977539 C92.19000244140625,-15.104000091552734 30.533000946044922,-19.841999053955078 -28.57200050354004,-2.4019999504089355 C-28.57200050354004,-2.4019999504089355 -26.716999053955078,3.878000020980835 -26.716999053955078,3.878000020980835z"></path>
                                                </g>
                                            </g>
                                        </g>
                                        <g opacity="1" transform="matrix(1,0,0,1,0,0)">
                                            <g opacity="1" transform="matrix(1,0,0,1,0,0)">
                                                <path fill="rgb(255,185,97)" fill-opacity="1"
                                                      d=" M88.68599700927734,22.392000198364258 C88.35800170898438,23.636999130249023 87.31099700927734,24.422000885009766 86.197998046875,24.881000518798828 C49.00699996948242,39.07400131225586 9.994999885559082,44.34600067138672 -25.195999145507812,41.972999572753906 C-25.195999145507812,41.972999572753906 -25.195999145507812,19.052000045776367 -25.195999145507812,19.052000045776367 C4.684000015258789,15.51200008392334 95.6969985961914,4.736999988555908 89.86499786376953,5.431000232696533 C90.38899993896484,11.258999824523926 90.06099700927734,16.957000732421875 88.68599700927734,22.392000198364258z"></path>
                                            </g>
                                        </g>
                                        <g opacity="1" transform="matrix(1,0,0,1,0,0)">
                                            <g opacity="1" transform="matrix(1,0,0,1,0,0)">
                                                <g opacity="1" transform="matrix(1,0,0,1,0,0)">
                                                    <path fill="rgb(221,133,54)" fill-opacity="1"
                                                          d=" M71.7249984741211,23.964000701904297 C68.62899780273438,27.059999465942383 67.8280029296875,28.059999465942383 65.43800354003906,30.25 C65.43800354003906,30.25 65.37300109863281,30.25 65.37300109863281,30.31599998474121 C64.23600006103516,32.58599853515625 65.15699768066406,32.93000030517578 66.3550033569336,37.12699890136719 C66.83499908447266,38.47200012207031 68.31999969482422,43.87200164794922 68.05799865722656,44.65800094604492 C68.05799865722656,45.176998138427734 67.98100280761719,45.6609992980957 67.66500091552734,46.29499816894531 C67.66500091552734,46.29499816894531 67.66500091552734,46.361000061035156 67.66500091552734,46.361000061035156 C67.5989990234375,46.426998138427734 67.53399658203125,46.55699920654297 67.53399658203125,46.62200164794922 C66.77899932861328,47.95899963378906 65.46700286865234,49.65800094604492 63.736000061035156,50.81399917602539 C63.08100128173828,44.26499938964844 61.902000427246094,38.11000061035156 60.78900146484375,33.198001861572266 C50.1150016784668,36.07899856567383 39.308998107910156,38.305999755859375 28.437999725341797,39.8120002746582 C28.240999221801758,39.22200012207031 27.913999557495117,38.763999938964844 27.389999389648438,38.43600082397461 C23.263999938964844,35.619998931884766 11.869999885559082,27.6299991607666 6.958000183105469,15.253999710083008 C6.958000183105469,15.253999710083008 69.89199829101562,7.788000106811523 69.89199829101562,7.788000106811523 C69.5469970703125,10.031000137329102 68.67500305175781,11.065999984741211 69.76100158691406,12.307000160217285 C69.89199829101562,12.437999725341797 69.95600128173828,12.503999710083008 70.02200317382812,12.699999809265137 C70.08799743652344,12.699999809265137 70.08799743652344,12.635000228881836 70.08799743652344,12.635000228881836 C70.08799743652344,12.699999809265137 70.15299987792969,12.699999809265137 70.15299987792969,12.699999809265137 C70.15299987792969,12.765999794006348 70.15299987792969,12.765000343322754 70.15299987792969,12.765000343322754 C70.15299987792969,12.765000343322754 70.15299987792969,12.831000328063965 70.15299987792969,12.831000328063965 C72.18299865722656,15.12399959564209 75.26100158691406,20.100000381469727 71.7249984741211,23.964000701904297z"></path>
                                                </g>
                                            </g>
                                        </g>
                                        <g opacity="1" transform="matrix(1,0,0,1,0,0)">
                                            <g opacity="1" transform="matrix(1,0,0,1,0,0)">
                                                <path fill="rgb(243,162,80)" fill-opacity="1"
                                                      d=" M-25.22599983215332,19.03700065612793 C-25.22599983215332,19.03700065612793 -25.22599983215332,41.981998443603516 -25.22599983215332,41.981998443603516 C-46.641998291015625,36.67399978637695 -66.92400360107422,30.613000869750977 -85.91300201416016,23.695999145507812 C-87.16400146484375,23.239999771118164 -88.06900024414062,22.11400032043457 -88.22899627685547,20.79199981689453 C-88.8479995727539,15.684000015258789 -89.03099822998047,10.555999755859375 -88.78399658203125,5.408999919891357 C-88.78399658203125,5.408999919891357 -25.22599983215332,19.03700065612793 -25.22599983215332,19.03700065612793z"></path>
                                            </g>
                                        </g>
                                        <g opacity="1" transform="matrix(1,0,0,1,0,0)">
                                            <g opacity="1" transform="matrix(1,0,0,1,0,0)">
                                                <path fill="rgb(255,212,117)" fill-opacity="1"
                                                      d=" M99.16400146484375,-2.296999931335449 C98.83699798583984,1.434999942779541 96.61000061035156,4.841000080108643 93.2699966430664,6.544000148773193 C55.152000427246094,26.97599983215332 11.8149995803833,32.95600128173828 -34.494998931884766,21.60700035095215 C-34.494998931884766,21.60700035095215 -46.08700180053711,-58.0260009765625 -46.08700180053711,-58.0260009765625 C-46.08700180053711,-58.0260009765625 -87.6709976196289,-84.35199737548828 -87.6709976196289,-84.35199737548828 C-87.6709976196289,-84.35199737548828 -54.797000885009766,-113.88700103759766 -27.48900032043457,-71.64800262451172 C-14.392000198364258,-51.54399871826172 -11.050999641418457,-12.644000053405762 -10.265000343322754,0.7160000205039978 C-10.067999839782715,3.5320000648498535 -8.104000091552734,5.954999923706055 -5.419000148773193,6.675000190734863 C25.761999130249023,15.180999755859375 51.691001892089844,8.119000434875488 78.53600311279297,-9.107000350952148 C78.53600311279297,-9.107000350952148 78.7979965209961,-14.281000137329102 78.60099792480469,-22.073999404907227 C77.94599914550781,-44.731998443603516 73.03399658203125,-89.06700134277344 44.481998443603516,-89.06700134277344 C39.63600158691406,-89.06700134277344 35.44499969482422,-87.69200134277344 32.040000915527344,-85.53199768066406 C67.36100006103516,-111.12100219726562 106.21299743652344,-80.29199981689453 99.16400146484375,-2.296999931335449z"></path>
                                            </g>
                                        </g>
                                        <g opacity="1" transform="matrix(1,0,0,1,0,0)">
                                            <g opacity="1" transform="matrix(1,0,0,1,0,0)">
                                                <path fill="rgb(255,222,155)" fill-opacity="1"
                                                      d=" M97.58599853515625,-46.42599868774414 C92.7979965209961,-41.30400085449219 85.8550033569336,-36.89799880981445 78.04900360107422,-32.483001708984375 C76.16400146484375,-56.09400177001953 69.14299774169922,-89.09200286865234 44.50299835205078,-89.09200286865234 C39.65599822998047,-89.09200286865234 35.46500015258789,-87.71700286865234 32.058998107910156,-85.55599975585938 C61.15800094604492,-106.63800048828125 89.43000030517578,-89.4469985961914 97.58599853515625,-46.42599868774414z"></path>
                                            </g>
                                        </g>
                                        <g opacity="1" transform="matrix(1,0,0,1,0,0)">
                                            <path fill="rgb(255,240,212)" fill-opacity="1"
                                                  d=" M79.85600280761719,-57.96699905395508 C82.19599914550781,-49.665000915527344 82.3949966430664,-42.79600143432617 85.71900177001953,-43.55400085449219 C89.00800323486328,-44.30500030517578 89.90299987792969,-51.72200012207031 87.56300354003906,-60.02399826049805 C85.2229995727539,-68.32499694824219 80.3270034790039,-73.28600311279297 77.03800201416016,-72.53500366210938 C73.71399688720703,-71.7770004272461 77.51599884033203,-66.26799774169922 79.85600280761719,-57.96699905395508z"></path>
                                        </g>
                                        <g opacity="1" transform="matrix(1,0,0,1,0,0)">
                                            <path fill="rgb(255,240,212)" fill-opacity="1"
                                                  d=" M70.89800262451172,-83.08200073242188 C69.54499816894531,-82.06099700927734 69.60600280761719,-79.70800018310547 70.98799896240234,-77.83499908447266 C72.37000274658203,-75.96199798583984 74.55999755859375,-75.26399993896484 75.91300201416016,-76.28500366210938 C77.23799896240234,-77.28500366210938 77.19999694824219,-79.60800170898438 75.81800079345703,-81.48100280761719 C74.43599700927734,-83.35399627685547 72.2229995727539,-84.08200073242188 70.89800262451172,-83.08200073242188z"></path>
                                        </g>
                                        <g opacity="1" transform="matrix(1,0,0,1,0,0)">
                                            <g opacity="1" transform="matrix(1,0,0,1,0,0)">
                                                <path fill="rgb(243,162,80)" fill-opacity="1"
                                                      d=" M28.26099967956543,8.812999725341797 C28.26099967956543,8.812999725341797 28.26099967956543,10.057000160217285 28.26099967956543,10.057000160217285 C46.46699905395508,9.138999938964844 63.82099914550781,3.6389999389648438 79.73400115966797,-6.11899995803833 C80.19300079345703,-6.380000114440918 80.58499908447266,-6.708000183105469 80.91300201416016,-7.10099983215332 C76.45899963378906,-7.361999988555908 72.39900207519531,-8.083000183105469 70.04199981689453,-8.607000350952148 C69.4530029296875,-7.297999858856201 68.47000122070312,-6.184000015258789 67.16100311279297,-5.39900016784668 C54.97999954223633,1.9359999895095825 41.81700134277344,6.6519999504089355 28.26099967956543,8.812999725341797z"></path>
                                            </g>
                                        </g>
                                        <g opacity="1" transform="matrix(1,0,0,1,0,0)">
                                            <g opacity="1" transform="matrix(1,0,0,1,0,0)">
                                                <path fill="rgb(255,185,97)" fill-opacity="1"
                                                      d=" M70.89399719238281,-12.34000015258789 C70.89399719238281,-11.031000137329102 70.63200378417969,-9.78499984741211 70.04199981689453,-8.607000350952148 C72.39900207519531,-8.083000183105469 76.45899963378906,-7.361999988555908 80.91300201416016,-7.10099983215332 C81.8949966430664,-8.14799976348877 82.41999816894531,-9.52400016784668 82.35399627685547,-10.96500015258789 C81.96099853515625,-25.895999908447266 78.36000061035156,-89.09200286865234 44.50299835205078,-89.09200286865234 C36.507999420166016,-89.09200286865234 29.756999969482422,-85.64399719238281 24.92099952697754,-77.76200103759766 C65.06500244140625,-78.28600311279297 70.37000274658203,-29.43199920654297 70.89399719238281,-12.34000015258789z"></path>
                                            </g>
                                        </g>
                                        <g opacity="1" transform="matrix(1,0,0,1,0,0)">
                                            <g opacity="1" transform="matrix(1,0,0,1,0,0)">
                                                <g opacity="1" transform="matrix(1,0,0,1,0,0)">
                                                    <path fill="rgb(255,185,97)" fill-opacity="1"
                                                          d=" M-92.0989990234375,6.663000106811523 C-92.0989990234375,6.663000106811523 -35.98500061035156,21.367000579833984 -35.98500061035156,21.367000579833984 C-32.24599838256836,22.347000122070312 -28.70400047302246,19.607999801635742 -28.84000015258789,15.769000053405762 C-29.732999801635742,-9.371000289916992 -31.451000213623047,-81.83300018310547 -75.21800231933594,-87.77400207519531 C-106.10299682617188,-91.96600341796875 -101.21099853515625,-21.531999588012695 -96.56800079345703,1.6100000143051147 C-96.08699798583984,4.008999824523926 -94.4729995727539,6.040999889373779 -92.0989990234375,6.663000106811523z"></path>
                                                </g>
                                            </g>
                                        </g>
                                        <g opacity="1" transform="matrix(1,0,0,1,0,0)">
                                            <g opacity="1" transform="matrix(1,0,0,1,0,0)">
                                                <g opacity="1" transform="matrix(1,0,0,1,0,0)">
                                                    <path fill="rgb(138,72,82)" fill-opacity="1"
                                                          d=" M-87.91400146484375,-3.368000030517578 C-87.71700286865234,-1.7960000038146973 -86.60399627685547,-0.5529999732971191 -85.0979995727539,-0.22499999403953552 C-85.0979995727539,-0.22499999403953552 -49.472999572753906,8.027000427246094 -49.472999572753906,8.027000427246094 C-47.11600112915039,8.550999641418457 -44.888999938964844,6.7170000076293945 -44.95500183105469,4.293000221252441 C-45.887001037597656,-20.375 -54.66400146484375,-63.69200134277344 -78.15699768066406,-71.47599792480469 C-91.90899658203125,-76.06099700927734 -89.68199920654297,-16.597000122070312 -87.91400146484375,-3.368000030517578z"></path>
                                                </g>
                                            </g>
                                        </g>
                                        <g opacity="1" transform="matrix(1,0,0,1,0,0)">
                                            <g opacity="1" transform="matrix(1,0,0,1,0,0)">
                                                <g opacity="1" transform="matrix(1,0,0,1,0,0)">
                                                    <g opacity="1" transform="matrix(1,0,0,1,0,0)">
                                                        <path fill="rgb(81,56,60)" fill-opacity="1"
                                                              d=" M-85.03299713134766,-45.935001373291016 C-84.40699768066406,-45.73400115966797 -49.33300018310547,-34.47700119018555 -51.569000244140625,-35.19499969482422 C-52.354000091552734,-37.814998626708984 -53.27199935913086,-40.433998107910156 -54.25400161743164,-42.92300033569336 C-54.880001068115234,-43.124000549316406 -84.86199951171875,-52.75299835205078 -83.00299835205078,-52.15599822998047 C-83.00299835205078,-52.15599822998047 -85.03299713134766,-45.935001373291016 -85.03299713134766,-45.935001373291016z"></path>
                                                    </g>
                                                </g>
                                            </g>
                                            <g opacity="1" transform="matrix(1,0,0,1,0,0)">
                                                <g opacity="1" transform="matrix(1,0,0,1,0,0)">
                                                    <g opacity="1" transform="matrix(1,0,0,1,0,0)">
                                                        <path fill="rgb(81,56,60)" fill-opacity="1"
                                                              d=" M-85.03299713134766,-22.75200080871582 C-84.40599822998047,-22.552000045776367 -43.84199905395508,-9.579999923706055 -46.33000183105469,-10.37600040435791 C-46.59199905395508,-12.668000221252441 -46.98500061035156,-15.09000015258789 -47.44300079345703,-17.57900047302246 C-48.069000244140625,-17.780000686645508 -85.36199951171875,-29.729999542236328 -83.00299835205078,-28.974000930786133 C-83.00299835205078,-28.974000930786133 -85.03299713134766,-22.75200080871582 -85.03299713134766,-22.75200080871582z"></path>
                                                    </g>
                                                </g>
                                            </g>
                                        </g>
                                        <g opacity="1" transform="matrix(1,0,0,1,0,0)">
                                            <g opacity="1" transform="matrix(1,0,0,1,0,0)">
                                                <g opacity="1" transform="matrix(1,0,0,1,0,0)">
                                                    <path fill="rgb(221,133,54)" fill-opacity="1"
                                                          d=" M-86.65899658203125,-1.0950000286102295 C-85.53500366210938,0.03099999949336052 -86.60299682617188,-0.7229999899864197 -49.49300003051758,8.02299976348877 C-47.013999938964844,8.60099983215332 -44.41699981689453,6.61299991607666 -45.051998138427734,2.8010001182556152 C-74.2040023803711,-4.258999824523926 -74.10399627685547,-2.999000072479248 -75.43800354003906,-5.223999977111816 C-75.43800354003906,-5.223999977111816 -86.65899658203125,-1.0950000286102295 -86.65899658203125,-1.0950000286102295z"></path>
                                                </g>
                                            </g>
                                            <g opacity="1" transform="matrix(1,0,0,1,0,0)">
                                                <g opacity="1" transform="matrix(1,0,0,1,0,0)">
                                                    <path fill="rgb(243,162,80)" fill-opacity="1"
                                                          d=" M-87.90599822998047,-3.3540000915527344 C-87.8280029296875,-2.4189999103546143 -87.36000061035156,-1.562000036239624 -86.65899658203125,-1.0950000286102295 C-86.65899658203125,-1.0950000286102295 -75.43800354003906,-5.223999977111816 -75.43800354003906,-5.223999977111816 C-77.46499633789062,-8.258999824523926 -79.33699798583984,-53.80500030517578 -73.41300201416016,-69.27200317382812 C-74.89399719238281,-70.20600128173828 -76.4520034790039,-70.90799713134766 -78.16600036621094,-71.4530029296875 C-91.87899780273438,-76.05000305175781 -89.697998046875,-16.600000381469727 -87.90599822998047,-3.3540000915527344z"></path>
                                                </g>
                                            </g>
                                        </g>
                                    </g>
                                </g>
                            </g>
                        </g>
                    </g>
                    <g opacity="1" transform="matrix(1,0,0,1,0,0)">
                        <g opacity="1" transform="matrix(1,0,0,1,0,0)">
                            <g opacity="1" transform="matrix(1,0,0,1,0,0)">
                                <g opacity="1" transform="matrix(1,0,0,1,0,0)">
                                    <g opacity="1" transform="matrix(1,0,0,1,0,0)">
                                        <path fill="rgb(243,162,80)" fill-opacity="1"
                                              d=" M68.31999969482422,17.54599952697754 C50.76900100708008,23.767000198364258 32.69499969482422,26.97599983215332 14.161999702453613,27.238000869750977 C10.03600025177002,22.392000198364258 6.36899995803833,16.236000061035156 5.190000057220459,8.902000427246094 C27.325000762939453,12.569000244140625 46.446998596191406,8.378000259399414 65.37300109863281,-1.4450000524520874 C68.1989974975586,9.456000328063965 63.685001373291016,11.534000396728516 65.76599884033203,13.616999626159668 C66.08899688720703,14.267999649047852 67.36399841308594,15.312999725341797 68.31999969482422,17.54599952697754z"></path>
                                    </g>
                                </g>
                            </g>
                            <g opacity="1" transform="matrix(1,0,0,1,0,0)">
                                <g opacity="1" transform="matrix(1,0,0,1,0,0)">
                                    <g opacity="1" transform="matrix(1,0,0,1,0,0)">
                                        <path fill="rgb(255,212,117)" fill-opacity="1"
                                              d=" M-11.470000267028809,-82.21700286865234 C-11.470000267028809,-82.21700286865234 5.190000057220459,-94.53800201416016 17.514999389648438,-78.27999877929688 C29.384000778198242,-62.62300109863281 34.803001403808594,-40.667999267578125 39.766998291015625,-19.023000717163086 C44.73099899291992,2.621999979019165 27.513999938964844,-18.07200050354004 27.513999938964844,-18.07200050354004 C16.93199920654297,-57.53499984741211 4.11899995803833,-80.28500366210938 -11.470000267028809,-82.21700286865234z"></path>
                                    </g>
                                </g>
                                <g opacity="1" transform="matrix(1,0,0,1,0,0)">
                                    <g opacity="1" transform="matrix(1,0,0,1,0,0)">
                                        <path fill="rgb(255,185,97)" fill-opacity="1"
                                              d=" M29.551000595092773,-18.5310001373291 C29.551000595092773,-18.5310001373291 24.312000274658203,-18.07200050354004 24.312000274658203,-18.07200050354004 C19.138999938964844,-39.0260009765625 8.071999549865723,-66.59500122070312 -2.6670000553131104,-77.26899719238281 C-5.248000144958496,-79.6969985961914 -8.144000053405762,-78.43099975585938 -13.732999801635742,-78.5780029296875 C-13.732999801635742,-78.5780029296875 -12.815999984741211,-83.55500030517578 -7.315999984741211,-83.55500030517578 C6.173999786376953,-83.55500030517578 23.788000106811523,-49.43899917602539 29.551000595092773,-18.5310001373291z"></path>
                                    </g>
                                </g>
                            </g>
                        </g>
                    </g>
                </g>
                <g opacity="1" transform="matrix(1,0,0,1,0,0)">
                    <g opacity="1" transform="matrix(1,0,0,1,0,0)">
                        <path fill="rgb(255,212,117)" fill-opacity="1"
                              d=" M76.90499877929688,72.58599853515625 C76.90499877929688,72.58599853515625 -12.545999526977539,90.75 -12.545999526977539,90.75 C-13.543999671936035,86.86499786376953 -12.847000122070312,82.85700225830078 -12.161999702453613,78.71199798583984 C-12.161999702453613,78.71199798583984 76.83000183105469,61.882999420166016 76.83000183105469,61.882999420166016 C77.77200317382812,65.25700378417969 77.71900177001953,68.81900024414062 76.90499877929688,72.58599853515625z"></path>
                    </g>
                </g>
                <g opacity="1" transform="matrix(1,0,0,1,0,0)">
                    <g opacity="1" transform="matrix(1,0,0,1,0,0)">
                        <path fill="rgb(255,222,155)" fill-opacity="1"
                              d=" M76.83000183105469,61.882999420166016 C49.130001068115234,67.64600372314453 19.270000457763672,73.66999816894531 -12.161999702453613,78.71199798583984 C-12.031000137329102,77.20600128173828 -11.965999603271484,75.63400268554688 -11.835000038146973,74.06199645996094 C-11.835000038146973,74.06199645996094 39.11199951171875,65.15699768066406 39.11199951171875,65.15699768066406 C39.11199951171875,65.15699768066406 39.24300003051758,65.09100341796875 39.24300003051758,65.09100341796875 C39.24300003051758,65.09100341796875 64.3219985961914,60.70399856567383 64.3219985961914,60.70399856567383 C68.38200378417969,59.7859992980957 76.04399871826172,61.68600082397461 76.83000183105469,61.882999420166016z"></path>
                    </g>
                </g>
                <g opacity="1" transform="matrix(1,0,0,1,0,0)">
                    <g opacity="1" transform="matrix(1,0,0,1,0,0)">
                        <path fill="rgb(255,185,97)" fill-opacity="1"
                              d=" M39.24300003051758,65.09100341796875 C27.533000946044922,68.19400024414062 -14.866000175476074,79.4280014038086 -12.161999702453613,78.71199798583984 C-12.031000137329102,77.20600128173828 -11.965999603271484,75.63400268554688 -11.835000038146973,74.06199645996094 C-11.835000038146973,74.06199645996094 39.24300003051758,65.09100341796875 39.24300003051758,65.09100341796875z"></path>
                    </g>
                </g>
                <g opacity="1" transform="matrix(1,0,0,1,0,0)">
                    <g opacity="1" transform="matrix(1,0,0,1,0,0)">
                        <path fill="rgb(243,162,80)" fill-opacity="1"
                              d=" M-37.4379997253418,70.46099853515625 C-37.86000061035156,72.63600158691406 -38.48699951171875,75.19499969482422 -39.20600128173828,77.9260025024414 C-39.20600128173828,77.9260025024414 -70.50700378417969,57.69200134277344 -70.50700378417969,57.69200134277344 C-70.50700378417969,57.69200134277344 -37.4379997253418,70.46099853515625 -37.4379997253418,70.46099853515625z"></path>
                    </g>
                </g>
            </g>
            <g opacity="1"
               transform="matrix(0.9825863838195801,0.18580646812915802,-0.18580646812915802,0.9825863838195801,1.7727127075195312,-8.081154823303223)">
                <g opacity="1" transform="matrix(1,0,0,1,0,0)">
                    <g opacity="1" transform="matrix(1,0,0,1,0,0)">
                        <g opacity="1" transform="matrix(1,0,0,1,0,0)">
                            <path fill="rgb(255,222,155)" fill-opacity="1"
                                  d=" M64.14199829101562,47.858001708984375 C61.073001861572266,50.220001220703125 53.38999938964844,53.887001037597656 37.797000885009766,52.65700149536133 C27.92799949645996,51.35900115966797 29.930999755859375,52.84199905395508 31.009000778198242,39.04800033569336 C31.10300064086914,37.91600036621094 30.69300079345703,36.91600036621094 29.87299919128418,36.3489990234375 C24.893999099731445,32.89500045776367 8.663000106811523,20.885000228881836 8.654999732971191,2.3910000324249268 C8.083000183105469,-39.18299865722656 52.400001525878906,-40.020999908447266 65.93599700927734,-5.752999782562256 C70.58200073242188,6.184000015258789 65.40699768066406,10.022000312805176 67.44200134277344,12.324000358581543 C67.55799865722656,12.446999549865723 67.66999816894531,12.588000297546387 67.7760009765625,12.734000205993652 C67.8030014038086,12.744000434875488 67.79399871826172,12.763999938964844 67.8219985961914,12.776000022888184 C69.71199798583984,15.081999778747559 72.76300048828125,20.073999404907227 69.3290023803711,23.93199920654297 C67.03399658203125,26.500999450683594 65.22899627685547,28.250999450683594 63.98899841308594,29.3700008392334 C63.01900100708008,30.219999313354492 62.566001892089844,31.593000411987305 62.77799987792969,32.79399871826172 C63.645999908447266,35.57600021362305 65.30899810791016,40.2859992980957 65.77400207519531,43.98400115966797 C65.9749984741211,45.38999938964844 65.33100128173828,46.957000732421875 64.14199829101562,47.858001708984375z"></path>
                        </g>
                    </g>
                </g>
                <g opacity="1" transform="matrix(1,0,0,1,0,0)">
                    <g opacity="1" transform="matrix(1,0,0,1,0,0)">
                        <g opacity="1" transform="matrix(1,0,0,1,0,0)">
                            <path fill="rgb(255,212,117)" fill-opacity="1"
                                  d=" M65.79299926757812,44.000999450683594 C65.9540023803711,45.393001556396484 65.30999755859375,46.981998443603516 64.1520004272461,47.8390007019043 C56.07500076293945,53.93199920654297 42.266998291015625,53.35200119018555 32.27799987792969,51.930999755859375 C30.749000549316406,51.72100067138672 29.839000701904297,50.42300033569336 30.04199981689453,48.74399948120117 C31.145999908447266,39.2140007019043 31.354000091552734,38.02000045776367 30.422000885009766,36.86899948120117 C29.729999542236328,35.7599983215332 8.685999870300293,23.874000549316406 8.67300033569336,2.4110000133514404 C8.567000389099121,-10.234999656677246 12.571999549865723,-22.256000518798828 23.815000534057617,-27.937000274658203 C23.81100082397461,-27.878000259399414 23.756999969482422,-27.87299919128418 23.753000259399414,-27.812999725341797 C12.251999855041504,-10.017000198364258 14.079999923706055,23.378000259399414 40.92399978637695,26.395999908447266 C52.69900131225586,27.645999908447266 62.027000427246094,21.85099983215332 67.73600006103516,12.661999702453613 C67.7249984741211,12.722000122070312 67.78199768066406,12.729999542236328 67.78099822998047,12.732000350952148 C67.78099822998047,12.741000175476074 67.77100372314453,12.793999671936035 67.82499694824219,12.802000045776367 C69.72699737548828,15.065999984741211 72.73799896240234,20.099000930786133 69.302001953125,23.94099998474121 C67.0530014038086,26.476999282836914 65.23600006103516,28.273000717163086 63.96799850463867,29.340999603271484 C63.0099983215332,30.19700050354004 62.54499816894531,31.615999221801758 62.76900100708008,32.8129997253418 C63.12799835205078,33.43899917602539 65.3550033569336,40.558998107910156 65.79299926757812,44.000999450683594z"></path>
                        </g>
                    </g>
                </g>
                <g opacity="1" transform="matrix(1,0,0,1,0,0)">
                    <g opacity="1" transform="matrix(1,0,0,1,0,0)">
                        <g opacity="1" transform="matrix(1,0,0,1,0,0)">
                            <path fill="rgb(255,185,97)" fill-opacity="1"
                                  d=" M51.356998443603516,52.39099884033203 C44.749000549316406,53.42900085449219 38.25,52.78099822998047 32.27799987792969,51.930999755859375 C30.749000549316406,51.72100067138672 29.839000701904297,50.42300033569336 30.04199981689453,48.74399948120117 C31.145999908447266,39.2140007019043 31.354000091552734,38.02000045776367 30.422000885009766,36.86899948120117 C29.459999084472656,35.7140007019043 8.685999870300293,23.49799919128418 8.67300033569336,2.4110000133514404 C8.567000389099121,-10.265999794006348 12.590999603271484,-22.264999389648438 23.815000534057617,-27.937000274658203 C23.79199981689453,-27.900999069213867 23.77400016784668,-27.858999252319336 23.75200080871582,-27.825000762939453 C26.058000564575195,-28.983999252319336 28.493000030517578,-29.79800033569336 31.058000564575195,-30.10300064086914 C18.836999893188477,-25.152000427246094 14.407999992370605,-11.871999740600586 14.652000427246094,1.2039999961853027 C14.774999618530273,19.913000106811523 31.10300064086914,32.095001220703125 36.07500076293945,35.61000061035156 C36.8849983215332,36.20199966430664 37.34600067138672,37.17900085449219 37.229000091552734,38.34199905395508 C36.9640007019043,41.64899826049805 36.68299865722656,44.900001525878906 36.305999755859375,48.18199920654297 C36.104000091552734,49.87900161743164 37.066001892089844,51.19599914550781 38.54399871826172,51.409000396728516 C40.40599822998047,51.61600112915039 42.25299835205078,51.88999938964844 44.0989990234375,52.16699981689453 C44.20399856567383,52.180999755859375 44.25699996948242,52.19200134277344 44.375999450683594,52.14400100708008 C45.194000244140625,52.275001525878906 49.737998962402344,52.37799835205078 51.356998443603516,52.39099884033203z"></path>
                        </g>
                    </g>
                </g>
                <g opacity="1" transform="matrix(1,0,0,1,0,0)">
                    <path fill="rgb(255,240,212)" fill-opacity="1"
                          d=" M16.67099952697754,-1.972000002861023 C16.20400047302246,3.937999963760376 16.750999450683594,8.458999633789062 14.663000106811523,8.57699966430664 C12.592000007629395,8.687999725341797 11.321999549865723,4.048999786376953 11.791999816894531,-1.8070000410079956 C12.262999534606934,-7.658999919891357 14.555000305175781,-11.90999984741211 16.621999740600586,-12.104000091552734 C18.707000732421875,-12.289999961853027 17.139999389648438,-7.872000217437744 16.67099952697754,-1.972000002861023z"></path>
                </g>
                <g opacity="1" transform="matrix(1,0,0,1,0,0)">
                    <path fill="rgb(255,240,212)" fill-opacity="1"
                          d=" M19.559999465942383,-16.861000061035156 C18.200000762939453,-13.272000312805176 14.788000106811523,-14.51200008392334 16.19099998474121,-18.23699951171875 C17.584999084472656,-21.94499969482422 20.95199966430664,-20.554000854492188 19.559999465942383,-16.861000061035156z"></path>
                </g>
                <g opacity="1" transform="matrix(1,0,0,1,0,0)">
                    <g opacity="1" transform="matrix(1,0,0,1,0,0)">
                        <g opacity="1" transform="matrix(1,0,0,1,0,0)">
                            <path fill="rgb(221,133,54)" fill-opacity="1"
                                  d=" M58.01900100708008,11.87600040435791 C54.92599868774414,13.494999885559082 51.08300018310547,10.538999557495117 49.30500030517578,5.372000217437744 C47.50299835205078,0.19300000369548798 48.29199981689453,-5.395999908447266 51.231998443603516,-7.142000198364258 C54.11600112915039,-8.890999794006348 58.24800109863281,-6.044000148773193 60.2239990234375,-0.7390000224113464 C62.17900085449219,4.579999923706055 61.104000091552734,10.265000343322754 58.01900100708008,11.87600040435791z"></path>
                        </g>
                    </g>
                    <g opacity="1" transform="matrix(1,0,0,1,0,0)">
                        <g opacity="1" transform="matrix(1,0,0,1,0,0)">
                            <path fill="rgb(243,162,80)" fill-opacity="1"
                                  d=" M58.00400161743164,11.881999969482422 C57.25400161743164,12.307000160217285 56.426998138427734,12.39799976348877 55.63100051879883,12.244000434875488 C59.606998443603516,6.739999771118164 55.50299835205078,-4.8979997634887695 49.64799880981445,-5.531000137329102 C52.569000244140625,-10.298999786376953 58.05400085449219,-6.545000076293945 60.22600173950195,-0.7409999966621399 C62.19499969482422,4.566999912261963 61.09199905395508,10.270000457763672 58.00400161743164,11.881999969482422z"></path>
                        </g>
                    </g>
                </g>
                <g opacity="1" transform="matrix(1,0,0,1,0,0)">
                    <g opacity="1" transform="matrix(1,0,0,1,0,0)">
                        <g opacity="1" transform="matrix(1,0,0,1,0,0)">
                            <path fill="rgb(221,133,54)" fill-opacity="1"
                                  d=" M38.005001068115234,16.94499969482422 C34.07099914550781,18.895000457763672 29.381999969482422,15.394000053405762 27.31399917602539,9.197999954223633 C25.222999572753906,3.003000020980835 26.30500030517578,-3.7290000915527344 29.99799919128418,-5.88100004196167 C33.61800003051758,-8.038999557495117 38.75400161743164,-4.677000045776367 41.119998931884766,1.718999981880188 C43.46099853515625,8.119999885559082 41.93000030517578,14.994000434875488 38.005001068115234,16.94499969482422z"></path>
                        </g>
                    </g>
                </g>
                <g opacity="1" transform="matrix(1,0,0,1,0,0)">
                    <g opacity="1" transform="matrix(1,0,0,1,0,0)">
                        <g opacity="1" transform="matrix(1,0,0,1,0,0)">
                            <path fill="rgb(243,162,80)" fill-opacity="1"
                                  d=" M35.62200164794922,17.483999252319336 C39.165000915527344,15.222000122070312 40.465999603271484,8.741000175476074 38.292999267578125,2.631999969482422 C36.41699981689453,-2.447000026702881 32.77299880981445,-5.610000133514404 29.554000854492188,-5.552999973297119 C29.70800018310547,-5.686999797821045 29.85700035095215,-5.7729997634887695 30.009000778198242,-5.870999813079834 C33.61800003051758,-8.041999816894531 38.76499938964844,-4.686999797821045 41.1150016784668,1.7089999914169312 C43.62300109863281,8.519000053405762 41.696998596191406,17.584999084472656 35.62200164794922,17.483999252319336z"></path>
                        </g>
                    </g>
                </g>
                <g opacity="1" transform="matrix(1,0,0,1,0,0)">
                    <g opacity="1" transform="matrix(1,0,0,1,0,0)">
                        <path fill="rgb(243,162,80)" fill-opacity="1"
                              d=" M49.388999938964844,23.527000427246094 C42.63999938964844,26.125 43.79800033569336,26.81599998474121 47.11800003051758,16.882999420166016 C47.323001861572266,16.274999618530273 48.05799865722656,16.20599937438965 48.224998474121094,16.791000366210938 C48.78200149536133,18.72800064086914 49.319000244140625,20.673999786376953 49.832000732421875,22.621000289916992 C49.92499923706055,22.976999282836914 49.722999572753906,23.395999908447266 49.388999938964844,23.527000427246094z"></path>
                    </g>
                </g>
                <g opacity="1" transform="matrix(1,0,0,1,0,0)">
                    <g opacity="1" transform="matrix(1,0,0,1,0,0)">
                        <path fill="rgb(243,162,80)" fill-opacity="1"
                              d=" M55.55500030517578,22.9950008392334 C51.582000732421875,22.514999389648438 52.61800003051758,23.554000854492188 51.19200134277344,17.038000106811523 C51.0989990234375,16.608999252319336 51.59600067138672,16.253999710083008 51.84000015258789,16.597000122070312 C53.224998474121094,18.479999542236328 54.58599853515625,20.378000259399414 55.930999755859375,22.27400016784668 C56.1349983215332,22.569000244140625 55.887001037597656,23.02899932861328 55.55500030517578,22.9950008392334z"></path>
                    </g>
                </g>
                <g opacity="1" transform="matrix(1,0,0,1,0,0)">
                    <g opacity="1" transform="matrix(1,0,0,1,0,0)">
                        <path fill="rgb(255,185,97)" fill-opacity="1"
                              d=" M69.3290023803711,23.93199920654297 C67.03399658203125,26.500999450683594 65.22899627685547,28.250999450683594 63.98899841308594,29.3700008392334 C63.01900100708008,30.219999313354492 62.566001892089844,31.593000411987305 62.77799987792969,32.79399871826172 C61.7760009765625,28.972000122070312 58.6609992980957,23.968000411987305 63.68299865722656,22.020000457763672 C70.89399719238281,19.16200065612793 67.79100036621094,12.720000267028809 67.7760009765625,12.734000205993652 C67.8030014038086,12.744000434875488 67.79399871826172,12.763999938964844 67.8219985961914,12.776000022888184 C69.71199798583984,15.081999778747559 72.76300048828125,20.073999404907227 69.3290023803711,23.93199920654297z"></path>
                    </g>
                </g>
                <g opacity="1" transform="matrix(1,0,0,1,0,0)">
                    <g opacity="1" transform="matrix(1,0,0,1,0,0)">
                        <path fill="rgb(221,133,54)" fill-opacity="1"
                              d=" M61.09700012207031,49.691001892089844 C60.91299819946289,49.91999816894531 60.513999938964844,50.11800003051758 59.83100128173828,50.263999938964844 C59.388999938964844,47.082000732421875 58.922000885009766,43.90399932861328 58.426998138427734,40.73099899291992 C59.340999603271484,43.707000732421875 60.22999954223633,46.69300079345703 61.09700012207031,49.691001892089844z"></path>
                    </g>
                </g>
                <g opacity="1" transform="matrix(1,0,0,1,0,0)">
                    <g opacity="1" transform="matrix(1,0,0,1,0,0)">
                        <path fill="rgb(221,133,54)" fill-opacity="1"
                              d=" M54.590999603271484,51.8129997253418 C54.069000244140625,52.32899856567383 53.61800003051758,52.349998474121094 53.21799850463867,52.108001708984375 C53.28799819946289,48.82899856567383 53.33100128173828,45.547000885009766 53.34400177001953,42.2599983215332 C53.7869987487793,45.439998626708984 54.20199966430664,48.625999450683594 54.590999603271484,51.8129997253418z"></path>
                    </g>
                </g>
                <g opacity="1" transform="matrix(1,0,0,1,0,0)">
                    <g opacity="1" transform="matrix(1,0,0,1,0,0)">
                        <path fill="rgb(221,133,54)" fill-opacity="1"
                              d=" M45.641998291015625,52.8380012512207 C45.040000915527344,53.17900085449219 44.62799835205078,53.099998474121094 44.215999603271484,52.87200164794922 C44.80500030517578,50.21900177001953 45.26499938964844,48.46699905395508 46.5629997253418,42.470001220703125 C46.4109992980957,44.430999755859375 45.87200164794922,51.06999969482422 45.641998291015625,52.8380012512207z"></path>
                    </g>
                </g>
            </g>
        </g>
        <g transform="matrix(0,0,0,0,128.77999877929688,126.55899810791016)" opacity="1" style="display: block;">
            <g opacity="1" transform="matrix(1,0,0,1,0,0)">
                <path fill="rgb(255,255,255)" fill-opacity="1"
                      d=" M-28.694000244140625,-60.233001708984375 C-28.964000701904297,-60.551998138427734 -35.73099899291992,-56.57400131225586 -43.07099914550781,-51.965999603271484 C-43.90700149536133,-51.54199981689453 -44.810001373291016,-52.03099822998047 -44.62200164794922,-52.854000091552734 C-44.0369987487793,-56.70399856567383 -43.65399932861328,-59.959999084472656 -43.92499923706055,-60.279998779296875 C-44.2859992980957,-60.13100051879883 -45.04499816894531,-56.95399856567383 -46.12300109863281,-53.055999755859375 C-46.319000244140625,-52.34700012207031 -47.2859992980957,-52.025001525878906 -47.82699966430664,-52.66400146484375 C-52.85900115966797,-58.85499954223633 -57.72600173950195,-64.48699951171875 -58.340999603271484,-64.42900085449219 C-58.816001892089844,-64.15399932861328 -54.65299987792969,-57.994998931884766 -49.948001861572266,-51.196998596191406 C-49.40700149536133,-50.55799865722656 -50.09400177001953,-49.80400085449219 -50.95500183105469,-49.72200012207031 C-55.07099914550781,-50.13600158691406 -58.5629997253418,-50.49300003051758 -58.91600036621094,-50.22999954223633 C-58.768001556396484,-49.89899826049805 -55.25,-49.198001861572266 -51.233001708984375,-48.43000030517578 C-50.35599899291992,-48.28300094604492 -50.042999267578125,-47.39400100708008 -50.73899841308594,-46.75199890136719 C-57.694000244140625,-41.95100021362305 -63.7869987487793,-37.231998443603516 -63.744998931884766,-36.6609992980957 C-63.474998474121094,-36.340999603271484 -56.70800018310547,-40.32099914550781 -49.36800003051758,-44.928001403808594 C-48.53200149536133,-45.35300064086914 -47.630001068115234,-44.86199951171875 -47.81800079345703,-44.040000915527344 C-48.40299987792969,-40.18899917602539 -48.78499984741211,-36.93299865722656 -48.513999938964844,-36.61399841308594 C-48.2760009765625,-36.75199890136719 -47.39500045776367,-39.939998626708984 -46.439998626708984,-43.82600021362305 C-46.25299835205078,-44.64899826049805 -45.15399932861328,-44.86800003051758 -44.612998962402344,-44.22999954223633 C-39.58100128173828,-38.03799819946289 -34.7140007019043,-32.40599822998047 -34.22200012207031,-32.452999114990234 C-33.624000549316406,-32.73899841308594 -37.91699981689453,-39.00199890136719 -42.49100112915039,-45.696998596191406 C-43.03300094604492,-46.33599853515625 -42.47600173950195,-47.19300079345703 -41.5989990234375,-47.04600143432617 C-37.74599838256836,-46.8380012512207 -34.3849983215332,-46.58300018310547 -33.77000045776367,-46.64099884033203 C-34.29499816894531,-47.05099868774414 -37.44300079345703,-47.7859992980957 -41.32099914550781,-48.33700180053711 C-42.08399963378906,-48.61000061035156 -42.39699935913086,-49.500999450683594 -41.70100021362305,-50.141998291015625 C-34.74599838256836,-54.94300079345703 -28.652000427246094,-59.6609992980957 -28.694000244140625,-60.233001708984375z"></path>
            </g>
        </g>
        <g transform="matrix(0,0,0,0,267.7980041503906,133.98399353027344)" opacity="1" style="display: block;">
            <g opacity="1" transform="matrix(1,0,0,1,0,0)">
                <path fill="rgb(255,255,255)" fill-opacity="1"
                      d=" M110.3239974975586,-52.80799865722656 C110.05400085449219,-53.12699890136719 103.28700256347656,-49.14799880981445 95.9469985961914,-44.540000915527344 C95.11100006103516,-44.11600112915039 94.20800018310547,-44.60499954223633 94.39600372314453,-45.428001403808594 C94.98100280761719,-49.27799987792969 95.36399841308594,-52.53499984741211 95.09300231933594,-52.85499954223633 C94.73200225830078,-52.70600128173828 93.9729995727539,-49.52799987792969 92.8949966430664,-45.630001068115234 C92.6989974975586,-44.92100143432617 91.73200225830078,-44.599998474121094 91.19100189208984,-45.23899841308594 C86.15899658203125,-51.43000030517578 81.29199981689453,-57.0620002746582 80.677001953125,-57.00400161743164 C80.2020034790039,-56.729000091552734 84.36499786376953,-50.569000244140625 89.06999969482422,-43.770999908447266 C89.61100006103516,-43.13199996948242 88.92400360107422,-42.37799835205078 88.06300354003906,-42.29600143432617 C83.9469985961914,-42.709999084472656 80.45500183105469,-43.06700134277344 80.10199737548828,-42.80400085449219 C80.25,-42.472999572753906 83.76799774169922,-41.77299880981445 87.78500366210938,-41.005001068115234 C88.66200256347656,-40.858001708984375 88.9749984741211,-39.96799850463867 88.27899932861328,-39.32600021362305 C81.3239974975586,-34.525001525878906 75.23100280761719,-29.805999755859375 75.27300262451172,-29.235000610351562 C75.54299926757812,-28.915000915527344 82.30999755859375,-32.89500045776367 89.6500015258789,-37.50199890136719 C90.48600006103516,-37.926998138427734 91.38800048828125,-37.4370002746582 91.19999694824219,-36.6150016784668 C90.61499786376953,-32.763999938964844 90.23300170898438,-29.506999969482422 90.50399780273438,-29.187999725341797 C90.74199676513672,-29.326000213623047 91.62300109863281,-32.513999938964844 92.5780029296875,-36.400001525878906 C92.76499938964844,-37.222999572753906 93.86399841308594,-37.44200134277344 94.40499877929688,-36.80400085449219 C99.43699645996094,-30.61199951171875 104.30500030517578,-24.981000900268555 104.7969970703125,-25.027999877929688 C105.3949966430664,-25.31399917602539 101.10099792480469,-31.576000213623047 96.5270004272461,-38.270999908447266 C95.98500061035156,-38.90999984741211 96.54199981689453,-39.766998291015625 97.41899871826172,-39.619998931884766 C101.27200317382812,-39.4119987487793 104.63300323486328,-39.15700149536133 105.24800109863281,-39.21500015258789 C104.7229995727539,-39.625 101.57499694824219,-40.361000061035156 97.6969985961914,-40.9119987487793 C96.93399810791016,-41.185001373291016 96.62100219726562,-42.07500076293945 97.31700134277344,-42.715999603271484 C104.27200317382812,-47.516998291015625 110.36599731445312,-52.236000061035156 110.3239974975586,-52.80799865722656z"></path>
            </g>
        </g>
        <g transform="matrix(0,0,0,0,217.2270050048828,207.79400634765625)" opacity="1" style="display: block;">
            <g opacity="1" transform="matrix(1,0,0,1,0,0)">
                <path fill="rgb(255,255,255)" fill-opacity="1"
                      d=" M59.75199890136719,21.00200080871582 C59.481998443603516,20.683000564575195 52.71500015258789,24.660999298095703 45.375,29.268999099731445 C44.53900146484375,29.69300079345703 43.637001037597656,29.20400047302246 43.82500076293945,28.381000518798828 C44.40999984741211,24.5310001373291 44.79199981689453,21.274999618530273 44.520999908447266,20.954999923706055 C44.15999984741211,21.104000091552734 43.402000427246094,24.2810001373291 42.32400131225586,28.179000854492188 C42.12799835205078,28.88800048828125 41.1609992980957,29.209999084472656 40.619998931884766,28.570999145507812 C35.5880012512207,22.3799991607666 30.719999313354492,16.74799919128418 30.104999542236328,16.805999755859375 C29.6299991607666,17.08099937438965 33.792999267578125,23.239999771118164 38.49800109863281,30.038000106811523 C39.03900146484375,30.677000045776367 38.35200119018555,31.43199920654297 37.49100112915039,31.513999938964844 C33.375,31.100000381469727 29.884000778198242,30.742000579833984 29.5310001373291,31.0049991607666 C29.679000854492188,31.336000442504883 33.196998596191406,32.0369987487793 37.2140007019043,32.80500030517578 C38.090999603271484,32.95199966430664 38.40399932861328,33.840999603271484 37.70800018310547,34.483001708984375 C30.753000259399414,39.284000396728516 24.659000396728516,44.00299835205078 24.701000213623047,44.57400131225586 C24.97100067138672,44.89400100708008 31.738000869750977,40.915000915527344 39.077999114990234,36.30799865722656 C39.91400146484375,35.882999420166016 40.81700134277344,36.37300109863281 40.62900161743164,37.19499969482422 C40.04399871826172,41.04600143432617 39.6609992980957,44.301998138427734 39.93199920654297,44.62099838256836 C40.16999816894531,44.483001708984375 41.051998138427734,41.29499816894531 42.00699996948242,37.409000396728516 C42.194000244140625,36.58599853515625 43.292999267578125,36.367000579833984 43.83399963378906,37.005001068115234 C48.86600112915039,43.196998596191406 53.733001708984375,48.82899856567383 54.224998474121094,48.78200149536133 C54.823001861572266,48.49599838256836 50.52899932861328,42.23400115966797 45.95500183105469,35.53900146484375 C45.41299819946289,34.900001525878906 45.970001220703125,34.04199981689453 46.84700012207031,34.18899917602539 C50.70000076293945,34.39699935913086 54.0620002746582,34.652000427246094 54.676998138427734,34.59400177001953 C54.152000427246094,34.183998107910156 51.00299835205078,33.44900131225586 47.125,32.89799880981445 C46.36199951171875,32.625 46.04999923706055,31.733999252319336 46.74599838256836,31.093000411987305 C53.70100021362305,26.29199981689453 59.79399871826172,21.573999404907227 59.75199890136719,21.00200080871582z"></path>
            </g>
        </g>
    </g>
</svg>