<svg id="SvgjsSvg1019" width="256" height="256" xmlns="http://www.w3.org/2000/svg" version="1.1" xmlns:xlink="http://www.w3.org/1999/xlink" xmlns:svgjs="http://svgjs.com/svgjs"><defs id="SvgjsDefs1020"></defs><g id="SvgjsG1021"><svg xmlns="http://www.w3.org/2000/svg" viewBox="0 0 32 32" width="256" height="256"><path d="M29.71,28.29a1,1,0,0,1,0,1.42,1,1,0,0,1-1.42,0L16,17.41,3.71,29.71a1,1,0,0,1-1.42,0,1,1,0,0,1,0-1.42L14.59,16,2.29,3.71A1,1,0,0,1,3.71,2.29L16,14.59,28.29,2.29a1,1,0,1,1,1.42,1.42L17.41,16Z" fill="#000000" class="color000 svgShape"></path></svg></g></svg>