<svg id="SvgjsSvg1044" width="256" height="256" xmlns="http://www.w3.org/2000/svg" version="1.1">
    <defs id="SvgjsDefs1045"></defs>
    <g id="SvgjsG1046">
        <svg xmlns="http://www.w3.org/2000/svg" data-name="Layer 1" viewBox="0 0 128 128" width="256" height="256">
            <path fill="#167ffc"
                  d="M82.51 23.25q-.975.97495-1.98 1.98C72.72 33.04 64 41.76 64 41.76s-8.72-8.72-16.53-16.53q-1.005-1.005-1.98-1.98a44.72566 44.72566 0 0137.02 0zM89.06934 66.832q.0249-.104.05273-.208a5.98764 5.98764 0 014.9541-4.37549 13.32812 13.32812 0 011.86719-.1123 23.98258 23.98258 0 0112.76337 3.97211c.03241-.6991.05328-1.40125.05328-2.10834a44.54249 44.54249 0 00-8.42877-26.12891C91.89734 46.30334 80.2168 57.98047 80.2168 57.98047zM75.7 107.21a44.93179 44.93179 0 01-23.4 0 29.40273 29.40273 0 002.01-2.29c6.62-8.35 5.49-16.48 5.44-16.84a5.94434 5.94434 0 00-4.39-4.96c-.07-.02-.15-.04-.23-.06L64 74.2l8.86 8.86c-.06.02-.11.03-.17.05a5.93026 5.93026 0 00-4.43 4.92c-.06.39-1.19 8.54 5.43 16.89A29.40273 29.40273 0 0075.7 107.21zM19.24 64c0 .70782.02087 1.41071.05334 2.11047a24.01988 24.01988 0 0112.774-3.97034 14.4767 14.4767 0 011.80957.10205 5.97687 5.97687 0 015.01758 4.44727c.01367.04688.02539.09473.03711.14258l8.85156-8.85156S36.10266 46.30334 27.66876 37.87109A44.54249 44.54249 0 0019.24 64z"
                  class="colorffdb80 svgShape"></path>
            <path fill="#2d2e56"
                  d="M25.34595 35.54663A47.77717 47.77717 0 0015.9978 64.00177c0 1.48846.07758 2.95837.21014 4.41229A27.89416 27.89416 0 0120.03961 65.641c-.02008-.54492-.04163-1.08948-.04163-1.63922a43.746 43.746 0 018.22943-25.57385zM111.79205 68.41461c.13263-1.4541.21014-2.92419.21014-4.41284a47.77742 47.77742 0 00-9.3479-28.45483l-2.88141 2.88135A43.74572 43.74572 0 01108.002 64.00177c0 .5498-.02155 1.09454-.04163 1.63953A27.88653 27.88653 0 01111.79205 68.41461z"
                  class="color2d4356 svgShape"></path>
            <path fill="#ad8459"
                  d="M75.7,107.21a44.93179,44.93179,0,0,1-23.4,0,29.40273,29.40273,0,0,0,2.01-2.29,44.00976,44.00976,0,0,0,19.38,0A29.40273,29.40273,0,0,0,75.7,107.21Z"
                  opacity=".45" class="colorad9359 svgShape"></path>
            <path fill="#f9e6d2"
                  d="M82.51,23.25q-.975.97495-1.98,1.98a43.91275,43.91275,0,0,0-33.06006,0q-1.005-1.005-1.98-1.98a44.72566,44.72566,0,0,1,37.02,0Z"
                  opacity=".5" class="colorf9edd2 svgShape"></path>
            <path fill="#2d2e56"
                  d="M126.24,109.49,107.38,90.63a5.67808,5.67808,0,0,1,4.14-5.74,1.99751,1.99751,0,0,0,.87-3.46,2.83727,2.83727,0,0,1-1.17-1.94,3.23781,3.23781,0,0,1,.98-2.06,1.99722,1.99722,0,0,0,.18-2.76c-8.15-9.69-17.36-8.52-17.75-8.46a2.00333,2.00333,0,0,0-1.65,1.47,1.98258,1.98258,0,0,0,.71,2.09c1.57,1.23,5.54,5.14,5.21,8.65a2.04868,2.04868,0,0,1-.81,1.11,2.71311,2.71311,0,0,1-1.79.19L74.56,57.98l31.33-31.32a2.36019,2.36019,0,0,0,.33-.45l9.53-17.24a1.9974,1.9974,0,0,0-2.71-2.72L95.77,15.76a2.36019,2.36019,0,0,0-.45.33L64,47.42,32.68,16.09a2.36019,2.36019,0,0,0-.45-.33L14.96,6.25a1.9974,1.9974,0,0,0-2.71,2.72l9.53,17.24a2.36019,2.36019,0,0,0,.33.45L53.44,57.98,31.7,79.72a2.71311,2.71311,0,0,1-1.79-.19,2.00747,2.00747,0,0,1-.8-1.1c-.34-3.51,3.63-7.43,5.2-8.66a1.999,1.999,0,0,0-.94-3.56c-.39-.05-9.6-1.23-17.75,8.46a1.99722,1.99722,0,0,0,.18,2.76,3.30026,3.30026,0,0,1,.98,2.04,2.83488,2.83488,0,0,1-1.17,1.96,2.0128,2.0128,0,0,0-.63,1.99,2.04254,2.04254,0,0,0,1.48,1.47,5.66728,5.66728,0,0,1,4.16,5.74L1.76,109.49a6.01737,6.01737,0,0,0,0,8.51L4,120.24a6.03557,6.03557,0,0,0,8.52,0l18.94-18.95c4.32-.32,5.53,3.79,5.66,4.27a1.99285,1.99285,0,0,0,3.45.83,2.83715,2.83715,0,0,1,1.94-1.17,3.38866,3.38866,0,0,1,2.06.98,1.99722,1.99722,0,0,0,2.76.18c9.69-8.15,8.52-17.36,8.46-17.75a1.999,1.999,0,0,0-3.56-.94c-.05.06-4.43,5.63-8.65,5.2a2.08637,2.08637,0,0,1-1.1-.79,2.67257,2.67257,0,0,1-.2-1.84L64,68.54,85.72,90.26A2.74435,2.74435,0,0,1,85.54,92.08a2.10182,2.10182,0,0,1-1.12.81006c-3.51.35-7.42-3.63-8.65-5.2a1.999,1.999,0,0,0-3.56.94c-.06.39-1.23,9.6,8.46,17.75a1.99722,1.99722,0,0,0,2.76-.18,3.24164,3.24164,0,0,1,2.04-.98,2.85425,2.85425,0,0,1,1.96,1.17,2.00526,2.00526,0,0,0,1.97.64,2.02948,2.02948,0,0,0,1.48-1.46c.13-.49005,1.32-4.61,5.66-4.28l18.94,18.95a6.03557,6.03557,0,0,0,8.52,0l2.24-2.24A6.01737,6.01737,0,0,0,126.24,109.49ZM25.14,24.03,19.1,13.09l10.95,6.03L61.17,50.25l-4.9,4.9Zm17.73,72.8c.04.01.08.01.13.02,3.08.38,5.97-1.04,8.18-2.67a19.13,19.13,0,0,1-5.22,8.06,6.91044,6.91044,0,0,0-3.48-1.02,5.81512,5.81512,0,0,0-2.61.67,8.92227,8.92227,0,0,0-9.67-4.46,1.99711,1.99711,0,0,0-1.09.55L9.69,117.41a2.06887,2.06887,0,0,1-2.86,0l-2.24-2.24a2.02788,2.02788,0,0,1,0-2.86L24.02,92.89a2.0498,2.0498,0,0,0,.58-1.3A9.92674,9.92674,0,0,0,20.09,82.16a5.8527,5.8527,0,0,0,.69-2.64,6.66091,6.66091,0,0,0-1.02-3.48,19.13,19.13,0,0,1,8.06-5.22c-1.63,2.21-3.05,5.1-2.67,8.19a.58519.58519,0,0,0,.02.13A6.048,6.048,0,0,0,27.74,82.9a6.43543,6.43543,0,0,0,4.72.75,1.8913,1.8913,0,0,0,.41-.00995l6.2-.71-.72,6.19a1.55147,1.55147,0,0,0,0,.43,6.34921,6.34921,0,0,0,.75,4.69A6.07963,6.07963,0,0,0,42.87,96.83Zm.12-12.93L43.34,80.89a2.02271,2.02271,0,0,0-.57-1.65,1.99065,1.99065,0,0,0-1.64-.57l-3.08.35,59.9-59.9,10.95-6.03-6.04,10.94Zm42.24-4.66a2.02271,2.02271,0,0,0-.57,1.65L85.01,83.9,66.83,65.71l4.9-4.9L89.95,79.02l-3.08-.35A1.99065,1.99065,0,0,0,85.23,79.24Zm38.18,35.93-2.24,2.24a2.07873,2.07873,0,0,1-2.86,0L98.89,97.98a1.99711,1.99711,0,0,0-1.09-.55,11.10771,11.10771,0,0,0-1.85-.16A8.88277,8.88277,0,0,0,88.13,101.89a5.81512,5.81512,0,0,0-2.61-.67,6.69383,6.69383,0,0,0-3.48,1.02,19.13,19.13,0,0,1-5.22-8.06c2.21,1.63,5.09,3.05,8.18,2.67.05-.01.09-.01.13-.02a6.07963,6.07963,0,0,0,3.77-2.59,6.34921,6.34921,0,0,0,.75-4.69,2.06635,2.06635,0,0,0,0-.43l-.72-6.19,6.2.71a1.8913,1.8913,0,0,0,.41.00995,6.43543,6.43543,0,0,0,4.72-.75A6.048,6.048,0,0,0,102.83,79.14a.58519.58519,0,0,0,.02-.13c.38-3.09-1.04-5.97-2.67-8.19a19.13,19.13,0,0,1,8.06,5.22,6.66091,6.66091,0,0,0-1.02,3.48,5.8527,5.8527,0,0,0,.69,2.64A9.92674,9.92674,0,0,0,103.4,91.59a2.0498,2.0498,0,0,0,.58,1.3l19.43,19.42a2.02788,2.02788,0,0,1,0,2.86Z"
                  class="color2d4356 svgShape"></path>
            <polygon fill="#e1f4e4" points="61.17 50.25 56.27 55.15 25.14 24.03 19.1 13.09 30.05 19.12 61.17 50.25"
                     class="colore1ebf4 svgShape"></polygon>
            <path fill="#e1f4e4"
                  d="M89.95,79.02l-3.08-.35a1.99065,1.99065,0,0,0-1.64.57,2.02271,2.02271,0,0,0-.57,1.65L85.01,83.9,66.83,65.71l4.9-4.9Z"
                  class="colore1ebf4 svgShape"></path>
            <path fill="#fe9526"
                  d="M124,113.74a2.012,2.012,0,0,1-.59,1.43l-2.24,2.24a2.07873,2.07873,0,0,1-2.86,0L98.89,97.98a1.99711,1.99711,0,0,0-1.09-.55,11.10771,11.10771,0,0,0-1.85-.16A8.88277,8.88277,0,0,0,88.13,101.89a5.81512,5.81512,0,0,0-2.61-.67,6.69383,6.69383,0,0,0-3.48,1.02,19.13,19.13,0,0,1-5.22-8.06c2.21,1.63,5.09,3.05,8.18,2.67.05-.01.09-.01.13-.02a6.07963,6.07963,0,0,0,3.77-2.59,6.34921,6.34921,0,0,0,.75-4.69,2.06635,2.06635,0,0,0,0-.43l-.72-6.19,6.2.71a1.8913,1.8913,0,0,0,.41.00995,6.43543,6.43543,0,0,0,4.72-.75A6.048,6.048,0,0,0,102.83,79.14a.58519.58519,0,0,0,.02-.13c.38-3.09-1.04-5.97-2.67-8.19a19.13,19.13,0,0,1,8.06,5.22,6.66091,6.66091,0,0,0-1.02,3.48,5.8527,5.8527,0,0,0,.69,2.64A9.92674,9.92674,0,0,0,103.4,91.59a2.0498,2.0498,0,0,0,.58,1.3l19.43,19.42A2.02937,2.02937,0,0,1,124,113.74Z"
                  class="colord68751 svgShape"></path>
            <path fill="#e1f4e4"
                  d="M108.9,13.09l-6.04,10.94L42.99,83.9,43.34,80.89a2.02271,2.02271,0,0,0-.57-1.65,1.99065,1.99065,0,0,0-1.64-.57l-3.08.35,59.9-59.9Z"
                  class="colore1ebf4 svgShape"></path>
            <path fill="#fe9526"
                  d="M51.18,94.18a19.13,19.13,0,0,1-5.22,8.06,6.91044,6.91044,0,0,0-3.48-1.02,5.81512,5.81512,0,0,0-2.61.67,8.92227,8.92227,0,0,0-9.67-4.46,1.99711,1.99711,0,0,0-1.09.55L9.69,117.41a2.06887,2.06887,0,0,1-2.86,0l-2.24-2.24a2.02788,2.02788,0,0,1,0-2.86L24.02,92.89a2.0498,2.0498,0,0,0,.58-1.3A9.92674,9.92674,0,0,0,20.09,82.16a5.8527,5.8527,0,0,0,.69-2.64,6.66091,6.66091,0,0,0-1.02-3.48,19.13,19.13,0,0,1,8.06-5.22c-1.63,2.21-3.05,5.1-2.67,8.19a.58519.58519,0,0,0,.02.13A6.048,6.048,0,0,0,27.74,82.9a6.43543,6.43543,0,0,0,4.72.75,1.8913,1.8913,0,0,0,.41-.00995l6.2-.71-.72,6.19a1.55147,1.55147,0,0,0,0,.43,6.34921,6.34921,0,0,0,.75,4.69,6.07963,6.07963,0,0,0,3.77,2.59c.04.01.08.01.13.02C46.08,97.23,48.97,95.81,51.18,94.18Z"
                  class="colord68751 svgShape"></path>
            <path fill="#e5d4c3"
                  d="M124 113.74a1.92414 1.92414 0 01-.27 1 1.65717 1.65717 0 00-.32007-.43L103.98 94.89a2.0498 2.0498 0 01-.58-1.3 10.92655 10.92655 0 01.03-1.82 1.953 1.953 0 00.55 1.12006l19.42993 19.42A2.02891 2.02891 0 01124 113.74zM108.24 76.04a7.71273 7.71273 0 00-.64 1.35 19.47958 19.47958 0 00-5.83-3.97 17.16852 17.16852 0 00-1.59-2.6A19.13 19.13 0 01108.24 76.04zM24.6 93.59a2.0498 2.0498 0 01-.58 1.3L4.59 114.31a1.65969 1.65969 0 00-.32.43 1.92356 1.92356 0 01-.27-1 2.02937 2.02937 0 01.59-1.43L24.02 92.89A1.953 1.953 0 0024.57 91.77 10.92655 10.92655 0 0124.6 93.59zM27.82 70.82a17.16852 17.16852 0 00-1.59 2.6 19.47958 19.47958 0 00-5.83 3.97 7.71272 7.71272 0 00-.64-1.35A19.13 19.13 0 0127.82 70.82z"
                  opacity=".3" class="colore5d0c3 svgShape"></path>
            <polygon fill="#595bd4"
                     points="25.14 22.03 57.27 54.15 56.27 55.15 25.14 24.03 19.1 13.09 20.69 13.96 25.14 22.03"
                     opacity=".5" class="color9fa5aa svgShape"></polygon>
            <polygon fill="#595bd4"
                     points="108.9 13.09 102.86 24.03 42.99 83.9 43.25 81.64 102.86 22.03 107.31 13.96 108.9 13.09"
                     opacity=".5" class="color9fa5aa svgShape"></polygon>
            <polygon fill="#595bd4" points="85.01 83.9 66.83 65.71 67.83 64.71 84.75 81.64 85.01 83.9" opacity=".5"
                     class="color9fa5aa svgShape"></polygon>
            <path fill="#53d86a"
                  d="M124 113.74a2.01156 2.01156 0 01-.59009 1.43L121.17 117.41a2.07873 2.07873 0 01-2.86 0L98.89 97.98a1.99711 1.99711 0 00-1.09-.55 11.10771 11.10771 0 00-1.85-.16A8.88277 8.88277 0 0088.13 101.89a5.81512 5.81512 0 00-2.61-.67 6.69383 6.69383 0 00-3.48 1.02 19.13 19.13 0 01-5.22-8.06c.37.27.76.54 1.17.8a20.60286 20.60286 0 004.05 5.26 6.69383 6.69383 0 013.48-1.02 5.81511 5.81511 0 012.61.67A8.88277 8.88277 0 0195.95 95.27a11.10771 11.10771 0 011.85.16 1.99711 1.99711 0 011.09.55l19.42 19.43a2.07873 2.07873 0 002.86 0l2.23993-2.24a1.65819 1.65819 0 00.32007-.43A1.92414 1.92414 0 01124 113.74zM51.18 94.18a19.13 19.13 0 01-5.22 8.06 6.91044 6.91044 0 00-3.48-1.02 5.81512 5.81512 0 00-2.61.67 8.92227 8.92227 0 00-9.67-4.46 1.99711 1.99711 0 00-1.09.55L9.69 117.41a2.06887 2.06887 0 01-2.86 0l-2.24-2.24A2.012 2.012 0 014 113.74a1.92356 1.92356 0 01.27-1 1.66072 1.66072 0 00.32.43l2.24 2.24a2.06887 2.06887 0 002.86 0L29.11 95.98a1.99711 1.99711 0 011.09-.55 8.92227 8.92227 0 019.67 4.46 5.81511 5.81511 0 012.61-.67 6.91044 6.91044 0 013.48 1.02 20.60286 20.60286 0 004.05-5.26C50.42 94.72 50.81 94.45 51.18 94.18z"
                  opacity=".4" class="color72492d svgShape"></path>
            <path fill="#2d2e56"
                  d="M64 20.00092a43.72926 43.72926 0 0117.92743 3.83282l3.02649-3.02625a48.0757 48.0757 0 00-41.90784 0l3.02649 3.02625A43.72926 43.72926 0 0164 20.00092zM78.53821 109.75549c-.15045-.103-.30713-.196-.44769-.31433a31.98934 31.98934 0 01-2.98938-2.85956 44.072 44.072 0 01-22.20227 0 31.98934 31.98934 0 01-2.98938 2.85956c-.13727.11542-.27838.221-.42065.32343a48.15658 48.15658 0 0029.04938-.00909z"
                  class="color2d4356 svgShape"></path>
        </svg>
    </g>
</svg>