<svg id="SvgjsSvg1011" width="256" height="256" xmlns="http://www.w3.org/2000/svg" version="1.1">
    <defs id="SvgjsDefs1012"></defs>
    <g id="SvgjsG1013">
        <svg xmlns="http://www.w3.org/2000/svg" enable-background="new 0 0 36 36" viewBox="0 0 36 36" width="256"
             height="256">
            <path fill="#ffffff" d="M21,16.6c-0.3,0.1-0.5,0.2-0.6,0.4c0.1,0.1,1.2,0.7,1.1,0.9c-0.1,0.1-1.2-0.5-1.3-0.5
				c-0.1,0.2-0.1,0.5-0.1,0.8c0.6,2.5,0.3,2.7-0.6,0.2c-0.1-0.3-0.2-0.5-0.4-0.6c0,0,0,0,0,0.1c-0.9,1.4-1.2,1.4-0.3-0.2
				c0,0,0,0,0-0.1c-0.2-0.1-0.5-0.1-0.8-0.1c-2.5,0.6-2.7,0.3-0.2-0.6c0.3-0.1,0.5-0.2,0.6-0.4c0,0,0,0-0.1,0
				c-1.5-1-1.3-1.1,0.2-0.3c0,0,0,0,0.1,0c0.1-0.2,0.1-0.5,0.1-0.8c-0.6-2.6-0.3-2.6,0.6-0.2c0.1,0.3,0.2,0.5,0.4,0.6
				c0.1-0.1,0.7-1.2,0.9-1.1c0.1,0.1-0.5,1.2-0.5,1.3c0.2,0.1,0.5,0.1,0.8,0.1c1.1-0.3,1.9-0.4,2-0.3C22.8,15.9,22.1,16.2,21,16.6z"
                  class="colorfff svgShape"></path>
            <path fill="#f9cf6b" d="M31.5,12.4l-2.6,12.3c-0.2,0.9-0.9,1.7-1.7,2c-12.6,4.9-12.1,5.1-13.3,4.9c-1.2-0.1-0.8-0.3-10.6-8
									c-0.7-0.6-1-1.4-0.8-2.4L5.2,9C5.3,8.1,6,7.3,6.9,7c1.2-0.5,10.7-4.3,12-4.8c0.9-0.4,1.9-0.2,2.5,0.4
									c2.2,1.8,7.4,5.9,9.4,7.5C31.4,10.6,31.7,11.5,31.5,12.4z"
                  class="colorf9cf6b svgShape"></path>
            <path fill="#ffdd95"
                  d="M27.8,7.8c-2.1,1.6-5.3,2.6-8.8,2.6c-4.6,0-8.5-1.7-10.4-4.1l10.2-4.1C20.8,1.5,21.3,2.7,27.8,7.8z"
                  class="colorffdd95 svgShape"></path>
            <path fill="#f3a250" d="M6.7,20.6l2.1-9.7c0.1-0.3,0.3-0.6,0.6-0.7L19,6.3c0.3-0.1,0.7-0.1,1,0.2l7,5.6c0.3,0.2,0.4,0.6,0.4,1
									l-2.1,9.7c-0.1,0.3-0.3,0.6-0.6,0.7L15,27.4c-0.3,0.1-0.7,0.1-1-0.2l-7-5.6C6.7,21.4,6.6,21,6.7,20.6z"
                  class="colorf3a250 svgShape"></path>
            <path fill="#ef7b56" d="M27.3,13.6c-0.1-0.3,0-0.1-6.7-5.5c-0.1-0.1-0.3-0.2-0.5-0.2l-0.6-1.6c0.2,0,0.3,0.1,0.4,0.2l7,5.6
									C27.7,12.7,27.3,13.4,27.3,13.6z" class="coloref7b56 svgShape"></path>
            <path fill="#e86a49" d="M20.1,7.9c-0.2,0-0.3,0-0.5,0.1l-8.9,3.6c-0.2,0.1-0.3,0.2-0.4,0.3l-1.4-1.3c0.3-0.4,0.2-0.2,10.1-4.1
									c0.2-0.1,0.4-0.1,0.6-0.1L20.1,7.9z" class="colore86a49 svgShape"></path>
            <path fill="#ef7b56" d="M10.4,11.8c-0.1,0.1-0.2,0.2-0.2,0.4c-2,9.5-2,9-1.9,9.3L6.7,21c-0.1-0.4,0-0.1,2.1-10.2
									c0-0.2,0.1-0.3,0.2-0.4L10.4,11.8z" class="coloref7b56 svgShape"></path>
            <path fill="#e86a49" d="M15.2,27.3c-0.1,0-0.6,0.3-1.1-0.1c-7.3-6-7.2-5.6-7.4-6.2l1.6,0.5c0,0.2,0.2,0.4,0.3,0.5
									C12.9,25.5,15.1,27.3,15.2,27.3z" class="colore86a49 svgShape"></path>
            <path fill="#f3a250"
                  d="M3 23.3C3 23.3 3 23.3 3 23.3 3 23.3 3 23.3 3 23.3zM33.5 14.2c0 .5-2.6 12.8-2.7 12.9-.1.5-.2.8-.6 1.2 0 0 0 0 0 0-.3.3-1 .4-1.8 1.1 0 0 0 0 0 0-.4.2-.9.4-1.4.6-.6.3-1.3.5-2.2.9 0 0 0 0 0 0-.1 0-.2.1-.2.1 0 0 0 0 0 0-1.8.7-4.3 1.6-7.4 2.9 0 0-.1 0-.1 0C16.6 34 16.2 34 15.8 34c-.3-.1-.7-.2-.9-.4-.1-.1-3.3-2.6-9.5-7.7C5 25.7 5 25.7 3 23.3c.2.2.5.4 9.7 7.8.4.3.8.5 1.3.5 0 0 0 0 0 0 0 0 0 0 0 0 .1 0 .1 0 .2 0 0 0 0 0 .1 0 0 0 0 0 0 0 .3 0 .6 0 1-.2 2.1-.9 3.9-1.6 5.4-2.2 0 0 0 0 0 0 4-1.6 5.6-2.2 6.3-2.5 0 0 0 0 0 0 .4-.2.5-.2.6-.3 0 0 .1-.1.1-.1.4-.3.7-.7.9-1.1.3-.6.1-.1 2.8-12.9.1-.6 0-1.1-.2-1.6-.1-.2-.2-.3-.3-.4 2 2.4 2 2.3 2.2 2.7C33.4 13.4 33.5 13.8 33.5 14.2z"
                  class="colorf3a250 svgShape"></path>
            <path fill="#ef7b56"
                  d="M30.3 28.2c0 0-.1.1-.4.4-.1.1-.6.3-1.4.7 0 0 0 0 0 0-.4.2-.9.4-1.4.6-.7.3-1.4.6-2.2.9 0 0 0 0 0 0-.1 0-.1.1-.2.1 0 0 0 0 0 0-1.8.7-4.3 1.6-7.4 2.9 0 0-.1 0-.1.1C16.6 34 16.2 34 15.8 34L14 31.7v0c0 0 0 0 0 0 0 0 0 0 0 0 0 0 .1 0 .2 0 0 0 0 0 .1 0 0 0 0 0 0 0 .3 0 .6 0 1-.2 2.1-.9 3.9-1.6 5.4-2.2 0 0 0 0 0 0 3.5-1.4 5.3-2.2 6.3-2.5 0 0 0 0 0 0 .3-.1.5-.2.6-.3.3-.2.6-.4.8-.8L30.3 28.2 30.3 28.2zM24 19C24 19 24 19 24 19c-.8.9-3.2 1.2-4.4 1.2-.3.8-1 2.1-1.4 2.5 0 0-.6.8-.9 1 0 0 0 0-.1 0C17.1 24 17 24 16.9 24.1c0 0 0 0 0 0 0 0 0 0 0 0-.2.1-.4.1-.5 0l0 0c-.1-.1 0 .1-1-.9-.6-.6-.7-2.3-.6-3.8-.9-.4-2.3-1.3-2.9-2.2-.3-.4-.6-.7-.5-1.1.3-1 2.9-1.4 4.6-1.4.6-1.6 2.2-4.1 3.1-3.9.1 0 .3.1.4.2l.9.8c.6.6.7 2.3.5 3.7.8.3 1.6.7 2 1.2C23.3 17.3 24.9 18.2 24 19z"
                  class="coloref7b56 svgShape"></path>
            <path fill="#d0cef2"
                  d="M15.4 19.1l-.9-.8c-.9-.2-2.3-.8-2.9-1.5.9.9.9.8 1 .9C13.2 18.3 14.5 18.9 15.4 19.1zM19.5 14.8l.9.8c.3-1.4.2-3.6-.5-4.2l-.9-.8C19.7 11.2 19.8 13.4 19.5 14.8zM22.4 16.3c.4.3.5.7.4 1.1-.3 1.1-3.3 1.5-4.5 1.5-.5 1.3-2.4 4.7-3.4 3.7l0 0c0 0 0 0 0 0 .8.8 1 1 1.2 1 1.1.1 2.6-2.7 3.1-3.8 1.2 0 4.2-.4 4.5-1.5C23.9 17.8 23 16.9 22.4 16.3z"
                  class="colord0cef2 svgShape"></path>
            <path fill="#f8f9fe" d="M15.3,22.6c-1-0.1-1.1-2.7-0.8-4.4c-1.5-0.4-3.7-1.5-3.4-2.5s2.9-1.5,4.5-1.5c0.6-1.6,2.1-4,3.1-3.8
										c1,0.1,1.1,2.7,0.8,4.4c1.5,0.4,3.7,1.5,3.4,2.5c-0.3,1-2.9,1.5-4.5,1.5C17.8,20.4,16.3,22.8,15.3,22.6z"
                  class="colorf8f9fe svgShape"></path>
            <path fill="#e9e7fc" d="M15.6,16.3c-0.2,0.7,0.2,1.4,1,1.5c0.8,0.1,1.6-0.3,1.8-1c0.2-0.7-0.2-1.4-1-1.5
								C16.6,15.1,15.8,15.6,15.6,16.3z" class="colore9e7fc svgShape"></path>
            <path fill="#d0cef2"
                  d="M18.5,16.4c-0.7-0.9-2.6-0.4-2.7,0.9c-0.8-1,0.3-2.3,1.6-2.1C18.1,15.4,18.5,15.9,18.5,16.4z"
                  class="colord0cef2 svgShape"></path>
            <g fill="#000000" class="color000 svgShape">
                <path fill="#ffffff" d="M28,13.1c-0.1,0-0.3,0.1-0.2,0.3c1,1.5,1,1.7-0.2,0.1c-0.1-0.1-0.3-0.1-0.3,0.1c-0.8,3.7-1,3.8-0.4-0.1
					c0-0.1-0.1-0.3-0.3-0.2c-1.6,1-1.6,0.9-0.1-0.2c0.1-0.1,0.1-0.3-0.1-0.3c-3.8-0.8-3.8-1,0.1-0.4c0.1,0,0.3-0.1,0.2-0.3
					c-1-1.6-0.9-1.6,0.2-0.1c0.1,0.1,0.3,0.1,0.3-0.1c0.8-3.7,1-3.9,0.4,0.1c0,0.1,0.1,0.3,0.3,0.2c1.6-1,1.6-0.9,0.1,0.2
					c-0.1,0.1-0.1,0.3,0.1,0.3C31.9,13.5,31.9,13.7,28,13.1z" class="colorfff svgShape"></path>
            </g>
        </svg>
    </g>
</svg>