<svg id="SvgjsSvg1120" width="256" height="256" xmlns="http://www.w3.org/2000/svg" version="1.1">
    <defs id="SvgjsDefs1121"></defs>
    <g id="SvgjsG1122">
        <svg xmlns="http://www.w3.org/2000/svg" enable-background="new 0 0 64 64" viewBox="0 0 64 64" width="256"
             height="256">
            <path fill="#ccd1d9" d="M25,2.5c-8.28,0-15,6.71-15,15v8.811L25,23.5l15,2.811V17.5C40,9.21,33.28,2.5,25,2.5z"
                  class="colorCCD1D9 svgShape"></path>
            <path fill="#ed5565" d="M30,61.5H20c0-2.76,2.24-5,5-5S30,58.74,30,61.5z"
                  class="colorED5565 svgShape"></path>
            <polygon fill="#a0d468" points="59 24.5 59 33.5 49 33.5 49 24.5 45 24.5 54 13.49 63 24.5"
                     class="colorA0D468 svgShape"></polygon>
            <rect width="7" height="3" x="14" y="16.5" fill="#656d78" class="color656D78 svgShape"></rect>
            <rect width="7" height="3" x="29" y="16.5" fill="#656d78" class="color656D78 svgShape"></rect>
            <polygon fill="#e6e9ed"
                     points="10 26.311 25 23.5 40 26.311 41 26.5 41 35.5 33 40 25 44.5 17 40 9 35.5 9 26.5"
                     class="colorE6E9ED svgShape"></polygon>
            <polygon fill="#ccd1d9" points="33 40 33 45.5 25 49.5 17 45.5 17 40 25 44.5"
                     class="colorCCD1D9 svgShape"></polygon>
            <path fill="#e6e9ed" d="M49,53.5v7c0,0.55-0.45,1-1,1h-4c-7-6-7-16-7-16h4C45.42,45.5,49,49.08,49,53.5z"
                  class="colorE6E9ED svgShape"></path>
            <path fill="#656d78"
                  d="M25,49.5l8-4h4c0,0,0,10,7,16H30c0-2.76-2.24-5-5-5s-5,2.24-5,5H6c7-6,7-16,7-16h4L25,49.5z"
                  class="color656D78 svgShape"></path>
            <path fill="#e6e9ed" d="M9,45.5h4c0,0,0,10-7,16H2c-0.55,0-1-0.45-1-1v-7C1,49.08,4.58,45.5,9,45.5z"
                  class="colorE6E9ED svgShape"></path>
            <path d="M1 54.503c-.553 0-1-.447-1-1 0-4.964 4.038-9.002 9.002-9.002.553 0 1 .447 1 1s-.447 1-1 1C5.141 46.501 2 49.642 2 53.503 2 54.056 1.553 54.503 1 54.503zM49 54.502c-.553 0-1-.447-1-1 0-3.859-3.141-7-7-7-.553 0-1-.447-1-1s.447-1 1-1c4.963 0 9 4.037 9 9C50 54.055 49.553 54.502 49 54.502z"
                  fill="#000000" class="color000 svgShape"></path>
            <path d="M17 46.502L17 46.502l-7.998-.001c-.553 0-1-.448-1-1 0-.553.448-1 1-1l0 0L17 44.502c.553 0 1 .448 1 1C18 46.055 17.552 46.502 17 46.502zM41 46.502L41 46.502l-8-.001c-.553 0-1-.448-1-1 0-.553.448-1 1-1l0 0 8 .001c.553 0 1 .448 1 1C42 46.055 41.552 46.502 41 46.502zM1.001 61.5c-.552 0-1-.447-1-1L0 53.503c0-.552.447-1 1-1 .552 0 1 .447 1 1L2.001 60.5C2.001 61.052 1.554 61.5 1.001 61.5z"
                  fill="#000000" class="color000 svgShape"></path>
            <path d="M2.001 62.5c-1.103 0-2-.897-2-2 0-.553.447-1 1-1s1 .447 1 1v.002c.553 0 1 .446 1 .999C3.001 62.053 2.554 62.5 2.001 62.5zM48 62.5c-.553 0-1-.447-1-1s.447-1 1-1h.002c0-.553.446-1 .999-1 .552 0 .999.447.999 1C50 61.603 49.103 62.5 48 62.5z"
                  fill="#000000" class="color000 svgShape"></path>
            <path d="M49,61.5c-0.553,0-1-0.447-1-1v-6.998c0-0.553,0.447-1,1-1s1,0.447,1,1V60.5C50,61.053,49.553,61.5,49,61.5z"
                  fill="#000000" class="color000 svgShape"></path>
            <path d="M48 62.5H2.001c-.553 0-1-.447-1-1s.447-1 1-1H48c.553 0 1 .447 1 1S48.553 62.5 48 62.5zM17 46.502c-.553 0-1-.447-1-1V40c0-.553.447-1 1-1s1 .447 1 1v5.502C18 46.055 17.553 46.502 17 46.502zM33 46.501c-.553 0-1-.447-1-1V40c0-.553.447-1 1-1s1 .447 1 1v5.501C34 46.054 33.553 46.501 33 46.501z"
                  fill="#000000" class="color000 svgShape"></path>
            <path d="M24.999,50.502c-0.15,0-0.303-0.034-0.446-0.105l-8-4c-0.494-0.247-0.694-0.848-0.447-1.342s0.848-0.692,1.342-0.447l8,4
				c0.494,0.247,0.694,0.848,0.447,1.342C25.719,50.3,25.366,50.502,24.999,50.502z" fill="#000000"
                  class="color000 svgShape"></path>
            <path d="M25.001 50.502c-.367 0-.72-.202-.896-.553-.247-.494-.047-1.095.447-1.342l8-4.001c.494-.245 1.094-.047 1.342.447.247.494.047 1.095-.447 1.342l-8 4.001C25.304 50.468 25.151 50.502 25.001 50.502zM8.999 27.5c-.472 0-.892-.335-.981-.815-.103-.543.255-1.065.798-1.167l16-3c.549-.1 1.065.256 1.167.798.103.543-.255 1.065-.798 1.167l-16 3C9.122 27.494 9.06 27.5 8.999 27.5z"
                  fill="#000000" class="color000 svgShape"></path>
            <path d="M41.001 27.5c-.061 0-.123-.006-.186-.018l-16-3c-.543-.102-.9-.624-.798-1.167.102-.542.617-.897 1.167-.798l16 3c.543.102.9.624.798 1.167C41.893 27.165 41.473 27.5 41.001 27.5zM40 18.5c-.553 0-1-.447-1-1 0-7.72-6.28-14-14-14s-14 6.28-14 14c0 .553-.447 1-1 1s-1-.447-1-1c0-8.822 7.178-16 16-16s16 7.178 16 16C41 18.053 40.553 18.5 40 18.5z"
                  fill="#000000" class="color000 svgShape"></path>
            <path d="M10 27.313c-.553 0-1-.447-1-1V17.5c0-.553.447-1 1-1s1 .447 1 1v8.813C11 26.865 10.553 27.313 10 27.313zM40 27.313c-.553 0-1-.447-1-1V17.5c0-.553.447-1 1-1s1 .447 1 1v8.813C41 26.865 40.553 27.313 40 27.313zM25 20.5c-.553 0-1-.447-1-1v-13c0-.553.447-1 1-1s1 .447 1 1v13C26 20.053 25.553 20.5 25 20.5zM25 40.5c-.553 0-1-.447-1-1v-11c0-.553.447-1 1-1s1 .447 1 1v11C26 40.053 25.553 40.5 25 40.5zM30 37.688c-.553 0-1-.447-1-1V29.5c0-.553.447-1 1-1s1 .447 1 1v7.188C31 37.24 30.553 37.688 30 37.688zM35 34.875c-.553 0-1-.447-1-1v-3.5c0-.553.447-1 1-1s1 .447 1 1v3.5C36 34.428 35.553 34.875 35 34.875zM20 37.688c-.553 0-1-.447-1-1V29.5c0-.553.447-1 1-1s1 .447 1 1v7.188C21 37.24 20.553 37.688 20 37.688zM15 34.875c-.553 0-1-.447-1-1v-3.5c0-.553.447-1 1-1s1 .447 1 1v3.5C16 34.428 15.553 34.875 15 34.875z"
                  fill="#000000" class="color000 svgShape"></path>
            <path d="M9,36.5c-0.553,0-1-0.447-1-1v-9c0-0.553,0.447-1,1-1s1,0.447,1,1v9C10,36.053,9.553,36.5,9,36.5z"
                  fill="#000000" class="color000 svgShape"></path>
            <path d="M24.999 45.5c-.166 0-.334-.041-.489-.129l-16-9c-.481-.271-.652-.88-.381-1.361.269-.481.879-.654 1.361-.381l16 9c.481.271.652.88.381 1.361C25.688 45.316 25.349 45.5 24.999 45.5zM41 36.5c-.553 0-1-.447-1-1v-9c0-.553.447-1 1-1s1 .447 1 1v9C42 36.053 41.553 36.5 41 36.5z"
                  fill="#000000" class="color000 svgShape"></path>
            <path d="M25.001 45.5c-.35 0-.688-.184-.872-.51-.271-.481-.101-1.091.381-1.361l16-9c.482-.272 1.091-.101 1.361.381.271.481.101 1.091-.381 1.361l-16 9C25.335 45.459 25.167 45.5 25.001 45.5zM21 20.5h-7c-.553 0-1-.447-1-1v-3c0-.553.447-1 1-1h7c.553 0 1 .447 1 1v3C22 20.053 21.553 20.5 21 20.5zM15 18.5h5v-1h-5V18.5zM36 20.5h-7c-.553 0-1-.447-1-1v-3c0-.553.447-1 1-1h7c.553 0 1 .447 1 1v3C37 20.053 36.553 20.5 36 20.5zM30 18.5h5v-1h-5V18.5zM44 62.5c-.23 0-.462-.079-.65-.241C36.084 56.031 36 45.929 36 45.502c0-.552.447-.999.999-.999H37c.552 0 .999.446 1 .998 0 .096.096 9.621 6.65 15.24.42.359.469.99.108 1.409C44.562 62.382 44.281 62.5 44 62.5zM6 62.5c-.281 0-.562-.118-.759-.35-.36-.419-.312-1.05.108-1.409C11.924 55.105 12 45.598 12 45.502c0-.553.447-1 1-1s1 .447 1 1c0 .427-.084 10.529-7.35 16.757C6.462 62.421 6.23 62.5 6 62.5zM25 53.5c-.553 0-1-.447-1-1v-2.998c0-.553.447-1 1-1s1 .447 1 1V52.5C26 53.053 25.553 53.5 25 53.5zM30 62.5c-.553 0-1-.447-1-1 0-2.206-1.794-4-4-4s-4 1.794-4 4c0 .553-.447 1-1 1s-1-.447-1-1c0-3.309 2.691-6 6-6s6 2.691 6 6C31 62.053 30.553 62.5 30 62.5zM63.001 25.5c-.29 0-.577-.125-.775-.367l-8.228-10.057-8.227 10.057c-.351.429-.979.49-1.407.142-.428-.351-.491-.98-.142-1.407l9.001-11.003c.381-.465 1.168-.465 1.549 0l9.002 11.003c.35.427.286 1.057-.142 1.407C63.447 25.426 63.224 25.5 63.001 25.5z"
                  fill="#000000" class="color000 svgShape"></path>
            <path d="M48.998,34.5c-0.553,0-1-0.447-1-1v-9c0-0.553,0.447-1,1-1s1,0.447,1,1v9C49.998,34.053,49.551,34.5,48.998,34.5z"
                  fill="#000000" class="color000 svgShape"></path>
            <path d="M58.998,34.5h-10c-0.553,0-1-0.447-1-1s0.447-1,1-1h10c0.553,0,1,0.447,1,1S59.551,34.5,58.998,34.5z"
                  fill="#000000" class="color000 svgShape"></path>
            <path d="M58.998 34.5c-.553 0-1-.447-1-1v-9c0-.553.447-1 1-1s1 .447 1 1v9C59.998 34.053 59.551 34.5 58.998 34.5zM58.999 37.5H48.998c-.553 0-1-.447-1-1s.447-1 1-1h10.001c.553 0 1 .447 1 1S59.552 37.5 58.999 37.5zM58.999 40.5H48.998c-.553 0-1-.447-1-1s.447-1 1-1h10.001c.553 0 1 .447 1 1S59.552 40.5 58.999 40.5zM58.999 43.5H48.998c-.553 0-1-.447-1-1s.447-1 1-1h10.001c.553 0 1 .447 1 1S59.552 43.5 58.999 43.5zM48.998 25.5h-4.001c-.553 0-1-.447-1-1s.447-1 1-1h4.001c.553 0 1 .447 1 1S49.551 25.5 48.998 25.5z"
                  fill="#000000" class="color000 svgShape"></path>
            <path d="M63 25.5h-4.002c-.553 0-1-.447-1-1s.447-1 1-1H63c.553 0 1 .447 1 1S63.553 25.5 63 25.5zM56 27.5h-4c-.553 0-1-.447-1-1s.447-1 1-1h4c.553 0 1 .447 1 1S56.553 27.5 56 27.5z"
                  fill="#000000" class="color000 svgShape"></path>
            <path d="M54 29.499c-.553 0-1-.447-1-1v-3.998c0-.553.447-1 1-1s1 .447 1 1v3.998C55 29.052 54.553 29.499 54 29.499zM50 11.5c-.553 0-1-.447-1-1v-5c0-.553.447-1 1-1s1 .447 1 1v5C51 11.053 50.553 11.5 50 11.5zM54.001 11.5c-.367 0-.72-.202-.896-.553l-1.501-3.001c-.247-.494-.047-1.095.447-1.342.494-.245 1.095-.047 1.342.447l1.501 3.001c.247.494.047 1.095-.447 1.342C54.304 11.466 54.151 11.5 54.001 11.5z"
                  fill="#000000" class="color000 svgShape"></path>
            <path d="M53.999 11.5c-.15 0-.303-.034-.446-.105-.494-.247-.694-.848-.447-1.342l1.5-3.001c.246-.494.847-.692 1.342-.447.494.247.694.848.447 1.342l-1.5 3.001C54.72 11.298 54.366 11.5 53.999 11.5zM58.001 11.5c-.553 0-1-.447-1-1v-5c0-.553.447-1 1-1s1 .447 1 1v5C59.001 11.053 58.554 11.5 58.001 11.5z"
                  fill="#000000" class="color000 svgShape"></path>
        </svg>
    </g>
</svg>