<svg id="SvgjsSvg1041" width="256" height="256" xmlns="http://www.w3.org/2000/svg" version="1.1"
     xmlns:xlink="http://www.w3.org/1999/xlink" xmlns:svgjs="http://svgjs.com/svgjs">
    <defs id="SvgjsDefs1042"></defs>
    <g id="SvgjsG1043">
        <svg xmlns="http://www.w3.org/2000/svg" enable-background="new 0 0 256 256" viewBox="0 0 256 256" width="256"
             height="256">
            <path fill="#f1c48b" d="M231.873,128C231.658,185.803,185.285,232.041,128,231.874C70.632,231.706,24.126,185.368,24.126,128
			S70.632,24.126,128,24.126S232.087,70.633,231.873,128z" class="colorf1c48b svgShape"></path>
            <path fill="#ffffff" d="M143.339,91.118v54.873h-30.678V91.118c-26.492,6.812-46.068,30.857-46.068,59.475
			C66.593,184.507,94.086,212,128,212s61.406-27.493,61.406-61.406C189.406,121.976,169.83,97.931,143.339,91.118z"
                  class="colorfff svgShape"></path>
            <path fill="#d4e7f8" d="M143.339,91.118V97.9c17.888,10.732,29.86,30.314,29.86,52.693c0,31.165-23.222,56.889-53.303,60.857
				c2.653,0.35,5.354,0.549,8.104,0.549c33.914,0,61.406-27.493,61.406-61.406C189.406,121.976,169.83,97.931,143.339,91.118z"
                  class="colord4e7f8 svgShape"></path>
            <path fill="#7babf3" d="M143.339,108.068v37.923h-30.678v-37.923c-17.412,6.282-29.86,22.948-29.86,42.525
			c0,24.963,20.236,45.199,45.199,45.199s45.199-20.237,45.199-45.199C173.199,131.016,160.751,114.35,143.339,108.068z"
                  class="color7babf3 svgShape"></path>
            <rect width="30.678" height="11.504" x="112.661" y="156.78" fill="#a0d1f2"
                  class="colora0d1f2 svgShape"></rect>
            <polygon fill="#a0d1f2"
                     points="166.274 91.118 147.137 67.559 128 44 108.863 67.559 89.726 91.118 112.661 91.118 112.661 145.992 143.339 145.992 143.339 91.118"
                     class="colora0d1f2 svgShape"></polygon>
            <path fill="#4c4372"
                  d="M143.339 171.284h-30.678c-1.657 0-3-1.343-3-3V156.78c0-1.657 1.343-3 3-3h30.678c1.657 0 3 1.343 3 3v11.504C146.339 169.94 144.996 171.284 143.339 171.284zM115.661 165.284h24.678v-5.504h-24.678V165.284zM143.339 181.638h-30.678c-1.657 0-3-1.343-3-3s1.343-3 3-3h30.678c1.657 0 3 1.343 3 3S144.996 181.638 143.339 181.638z"
                  class="color4c4372 svgShape"></path>
            <path fill="#4c4372" d="M128,198.793c-26.577,0-48.199-21.622-48.199-48.2c0-20.252,12.797-38.476,31.842-45.347
			c0.92-0.333,1.942-0.195,2.743,0.367c0.8,0.562,1.275,1.478,1.275,2.455v34.923h24.678v-34.923c0-0.978,0.476-1.894,1.275-2.455
			c0.802-0.562,1.825-0.699,2.743-0.367c19.045,6.871,31.842,25.094,31.842,45.347C176.199,177.171,154.577,198.793,128,198.793z
			 M109.661,112.581c-14.432,6.975-23.86,21.746-23.86,38.013c0,23.269,18.931,42.2,42.199,42.2s42.199-18.931,42.199-42.2
			c0-16.267-9.429-31.038-23.86-38.013v33.411c0,1.657-1.343,3-3,3h-30.678c-1.657,0-3-1.343-3-3V112.581z"
                  class="color4c4372 svgShape"></path>
            <path fill="#4c4372" d="M128,215c-35.514,0-64.406-28.893-64.406-64.407c0-29.413,19.87-55.064,48.32-62.38
			c0.895-0.231,1.853-0.035,2.585,0.535c0.733,0.568,1.162,1.443,1.162,2.371v51.873h24.678V91.119c0-0.927,0.429-1.803,1.162-2.371
			c0.732-0.57,1.687-0.766,2.585-0.535c28.45,7.315,48.32,32.967,48.32,62.38C192.406,186.107,163.514,215,128,215z M109.661,95.122
			c-23.779,7.831-40.067,30.109-40.067,55.472C69.594,182.799,95.795,209,128,209s58.406-26.201,58.406-58.407
			c0-25.363-16.288-47.641-40.067-55.472v50.87c0,1.657-1.343,3-3,3h-30.678c-1.657,0-3-1.343-3-3V95.122z"
                  class="color4c4372 svgShape"></path>
            <path fill="#4c4372" d="M143.339,148.992h-30.678c-1.657,0-3-1.343-3-3V94.119H89.727c-1.157,0-2.211-0.666-2.709-1.71
			c-0.497-1.045-0.35-2.283,0.381-3.181l38.273-47.119C126.241,41.407,127.097,41,128,41s1.759,0.407,2.328,1.108l38.273,47.119
			c0.73,0.898,0.878,2.136,0.381,3.181c-0.498,1.045-1.552,1.71-2.709,1.71h-19.935v51.873
			C146.339,147.648,144.996,148.992,143.339,148.992z M115.661,142.992h24.678V91.119c0-1.657,1.343-3,3-3h16.633L128,48.758
			l-31.972,39.36h16.633c1.657,0,3,1.343,3,3V142.992z" class="color4c4372 svgShape"></path>
            <polygon fill="#fd919f"
                     points="184.434 165.774 164.907 176.04 168.636 154.297 152.839 138.898 174.67 135.726 184.434 115.944 194.197 135.726 216.028 138.898 200.231 154.297 203.96 176.04"
                     class="colorfd919f svgShape"></polygon>
            <path fill="#4c4372" d="M203.96,179.04c-0.478,0-0.957-0.114-1.396-0.345l-18.13-9.532l-18.13,9.532
			c-1.012,0.532-2.235,0.442-3.16-0.228c-0.924-0.671-1.386-1.809-1.193-2.935l3.463-20.188l-14.668-14.297
			c-0.818-0.797-1.112-1.989-0.76-3.076c0.354-1.086,1.292-1.877,2.422-2.042l20.271-2.946l9.065-18.368
			c0.506-1.024,1.549-1.672,2.69-1.672s2.185,0.648,2.69,1.672l9.065,18.368l20.271,2.946c1.13,0.164,2.068,0.956,2.422,2.042
			c0.353,1.086,0.059,2.278-0.76,3.076l-14.668,14.297l3.404,19.847c0.079,0.27,0.121,0.554,0.121,0.849c0,1.657-1.343,3-3,3
			C203.975,179.04,203.966,179.04,203.96,179.04z M184.434,162.774c0.479,0,0.959,0.115,1.396,0.345l14.146,7.437l-2.702-15.752
			c-0.167-0.973,0.156-1.966,0.863-2.656l11.444-11.155l-15.815-2.298c-0.977-0.142-1.821-0.755-2.259-1.641l-7.073-14.332
			l-7.073,14.332c-0.438,0.886-1.282,1.499-2.259,1.641l-15.815,2.298l11.444,11.155c0.707,0.689,1.03,1.683,0.863,2.656
			l-2.702,15.752l14.146-7.437C183.475,162.889,183.954,162.774,184.434,162.774z"
                  class="color4c4372 svgShape"></path>
            <polygon fill="#fd919f"
                     points="71.566 165.774 52.04 176.04 55.769 154.297 39.972 138.898 61.803 135.726 71.566 115.944 81.33 135.726 103.161 138.898 87.364 154.297 91.093 176.04"
                     class="colorfd919f svgShape"></polygon>
            <path fill="#4c4372" d="M52.04,179.04c-0.622,0-1.24-0.193-1.764-0.573c-0.924-0.671-1.386-1.809-1.193-2.935l3.463-20.188
			l-14.668-14.297c-0.818-0.797-1.112-1.989-0.76-3.076c0.354-1.086,1.292-1.877,2.422-2.042l20.271-2.946l9.064-18.368
			c0.506-1.024,1.549-1.672,2.69-1.672s2.185,0.648,2.69,1.672l9.065,18.368l20.271,2.946c1.13,0.164,2.068,0.956,2.422,2.042
			c0.353,1.086,0.059,2.278-0.76,3.076l-14.667,14.297l3.403,19.847c0.079,0.269,0.121,0.554,0.121,0.849c0,1.657-1.343,3-3,3
			c-0.005,0-0.013,0-0.02,0c-0.478,0-0.957-0.114-1.396-0.345l-18.13-9.532l-18.13,9.532C52.997,178.926,52.518,179.04,52.04,179.04
			z M71.566,162.774c0.479,0,0.959,0.115,1.396,0.345l14.146,7.437l-2.701-15.752c-0.167-0.973,0.156-1.966,0.863-2.655
			l11.443-11.155l-15.815-2.298c-0.977-0.142-1.821-0.755-2.259-1.641l-7.073-14.331l-7.072,14.331
			c-0.438,0.885-1.282,1.499-2.259,1.641l-15.816,2.298l11.444,11.155c0.707,0.689,1.03,1.683,0.863,2.656l-2.702,15.752
			l14.146-7.437C70.607,162.889,71.087,162.774,71.566,162.774z" class="color4c4372 svgShape"></path>
        </svg>
    </g>
</svg>