<?xml version="1.0" encoding="UTF-8"?>
<svg id="Layer_1" data-name="Layer 1" xmlns="http://www.w3.org/2000/svg" xmlns:xlink="http://www.w3.org/1999/xlink" viewBox="0 0 320 320">
    <defs>
        <style>
            .cls-1 {
            fill: url(#linear-gradient-2);
            stroke: #9beff4;
            }

            .cls-1, .cls-2, .cls-3 {
            stroke-miterlimit: 10;
            }

            .cls-2 {
            fill: url(#radial-gradient);
            stroke: url(#linear-gradient-3);
            }

            .cls-3 {
          
            fill: #182826;
            stroke: url(#linear-gradient);
            stroke-width: 3px;
            }
        </style>
        <linearGradient id="linear-gradient" x1="72.37" y1="159.3" x2="245.86" y2="159.3" gradientUnits="userSpaceOnUse">
            <stop offset=".08" stop-color="#0d9be6"/>
            <stop offset=".22" stop-color="#11e7f3"/>
            <stop offset=".47" stop-color="#a6f5f5"/>
            <stop offset=".65" stop-color="#9df0f4"/>
            <stop offset=".86" stop-color="#9beff4"/>
        </linearGradient>
        <linearGradient id="linear-gradient-2" x1="179.32" y1="192.63" x2="119.77" y2="89.49" gradientUnits="userSpaceOnUse">
            <stop offset=".18" stop-color="#11e7f3"/>
            <stop offset=".51" stop-color="#0d9be6"/>
            <stop offset=".79" stop-color="#a6f5f5"/>
        </linearGradient>
        <radialGradient id="radial-gradient" cx="185.08" cy="183.09" fx="185.08" fy="183.09" r="54.16" gradientTransform="translate(3.43 2.03) scale(.96 .98)" gradientUnits="userSpaceOnUse">
            <stop offset=".12" stop-color="#11e7f3"/>
            <stop offset=".3" stop-color="#11e7f3"/>
            <stop offset=".96" stop-color="#0d9ae6"/>
        </radialGradient>
        <linearGradient id="linear-gradient-3" x1="128.28" y1="181.19" x2="231.78" y2="181.19" xlink:href="#linear-gradient"/>
    </defs>
    <polygon class="cls-3" points="75.74 88.7 210.5 88.7 236.39 65.79 227.12 92.68 241.96 78.78 234.54 97.32 242.88 93.61 232.68 119.58 243.81 128.85 242.88 160.38 229.9 174.29 241.96 186.34 237.32 221.58 212.28 248.47 115.85 246.61 103.79 252.18 105.98 242.67 88.95 254.03 97.3 229 89.88 233.63 103.79 204.89 107.5 177.07 79.45 145.54 111.21 145.54 112.62 129.56 75.74 88.7"/>
    <polygon class="cls-1" points="218.7 90.55 205.72 103.53 203.87 99.82 101.87 99.82 124.12 123.93 122.27 151.75 101.87 151.75 119.83 173.44 116.7 210.17 105.58 225.01 115.78 215.73 115.34 220.83 105.58 235.21 117.63 224.08 145.45 200.9 147.3 175.86 134.53 173.44 163.07 173.08 177.9 151.75 150.08 150.82 151.94 127.64 134.32 123.93 187.18 123.93 176.05 143.4 218.7 90.55"/>
    <polygon class="cls-2" points="179.35 146.95 193.9 127.18 222.65 127.18 231.27 133.11 229.49 159.43 214.41 173.04 230.38 188.46 226.83 218.41 207.32 234.74 129.68 235.21 155.65 213.88 195.52 212.95 202.88 203.89 202.88 193.91 192.74 184.2 171.41 184.2 182.77 167.05 197.61 167.05 205.95 152.21 205.95 146.65 179.35 146.95"/>
</svg>