<svg id="SvgjsSvg1096" width="256" height="256" xmlns="http://www.w3.org/2000/svg" version="1.1">
    <defs id="SvgjsDefs1097"></defs>
    <g id="SvgjsG1098">
        <svg xmlns="http://www.w3.org/2000/svg" fill-rule="evenodd" stroke-linejoin="round" stroke-miterlimit="2"
             clip-rule="evenodd" viewBox="0 0 32 32" width="256" height="256">
            <path fill="#e5e8fc"
                  d="m22.549 14.494-.038.021c-2.068.981-10.601-1.085-13.008-.015l-.021.009c-1.44.537-2.879.707-4.318.532a.748.748 0 0 0-.841.744v11.457a3.48 3.48 0 0 0 3.482 3.482h16.33a3.48 3.48 0 0 0 3.482-3.482V14.463a.751.751 0 0 0-.579-.731c-1.596-.373-3.092-.12-4.489.762Z"
                  class="colore5e8fc svgShape"></path>
            <path fill="#c4e3ff"
                  d="M25.362 16.752a.932.932 0 0 1 .986.939c.006 2.296-.036 8.246-.036 8.246a3.48 3.48 0 0 1-3.482 3.482H6.5c-.609 0-1.201-.16-1.722-.455a3.48 3.48 0 0 0 3.027 1.76h16.33a3.48 3.48 0 0 0 3.482-3.482V14.455a.75.75 0 0 0-.579-.723c-1.596-.373-3.092-.12-4.489.762l-.038.021c-2.068.981-10.601-1.085-13.008-.015l-.021.009c-1.44.537-2.879.707-4.318.532a.748.748 0 0 0-.841.744v2.313c1.898.35 3.796.191 5.694-.52l.06-.024.002-.001-.001.001.023-.01c1.921-.857 3.639-.91 5.159-.059l.037.018s.192.089.098.048c2.714 1.171 5.308 1.157 7.781-.023l.155-.086c.649-.413 1.326-.642 2.031-.69Z"
                  class="colorc4e3ff svgShape"></path>
            <path fill="#1a97f4"
                  d="M8.124 30.724h8.3V22.66a2.25 2.25 0 0 0-2.25-2.25h-3.8a2.248 2.248 0 0 0-2.25 2.25v8.064Z"
                  class="color1a97f4 svgShape"></path>
            <path fill="#0e86df" d="M8.124 29.419h8.301v1.305H8.124z" class="color0e86df svgShape"></path>
            <path fill="#1a97f4"
                  d="M25.716 22.16a1.75 1.75 0 0 0-1.75-1.75h-3.623a1.75 1.75 0 0 0-1.75 1.75v1.568c0 .966.783 1.75 1.75 1.75h3.623a1.75 1.75 0 0 0 1.75-1.75V22.16Z"
                  class="color1a97f4 svgShape"></path>
            <path fill="#e5e8fc" d="M18.593 22.442h7.123v1.004h-7.123z" class="colore5e8fc svgShape"></path>
            <path fill="#e5e8fc" d="M21.653 20.41h1.004v5.068h-1.004z" class="colore5e8fc svgShape"></path>
            <circle cx="14.2" cy="25.567" r="1.05" fill="#e5e8fc" class="colore5e8fc svgShape"></circle>
            <path fill="#435a64"
                  d="m22.296 14.063-.012.006c-1.931.912-3.957.895-6.075-.013-2.036-1.127-4.334-1.156-6.901-.016l-.015.006c-1.357.504-2.713.663-4.069.498a1.253 1.253 0 0 0-1.401 1.241v11.457a3.982 3.982 0 0 0 3.982 3.982h16.33a3.982 3.982 0 0 0 3.982-3.982V14.463c0-.581-.4-1.085-.965-1.217-1.727-.404-3.344-.133-4.856.817Zm-12.639.914.049-.02c2.241-.997 4.247-1.009 6.024-.023 0 0 .14.065.078.038 2.412 1.036 4.719 1.037 6.918-.005l.09-.05c1.279-.807 2.647-1.04 4.108-.698a.251.251 0 0 1 .193.244v12.779a2.983 2.983 0 0 1-2.982 2.982H7.805a2.98 2.98 0 0 1-2.982-2.982V15.785a.251.251 0 0 1 .28-.248c1.518.185 3.036.007 4.554-.56Z"
                  class="color435a64 svgShape"></path>
            <path fill="#ffb53e"
                  d="M27.868 5.25H4.132a.75.75 0 0 0-.733.592l-1.844 8.567c-.134.62.208 1.264.887 1.508 2.525.907 5.05.939 7.575-.007l.084-.034c1.921-.857 3.639-.91 5.159-.059 0 0 .229.107.135.066 2.714 1.171 5.308 1.157 7.781-.023l.155-.086c1.511-.962 3.172-.923 4.992.055.45.241 1.024.234 1.466-.018l.012-.006c.525-.305.759-.862.644-1.396l-1.844-8.567a.75.75 0 0 0-.733-.592Z"
                  class="colorffb53e svgShape"></path>
            <path fill="#ffad28"
                  d="m27.253 5.25 1.637 7.604c.115.534-.12 1.09-.645 1.395l-.012.007a1.546 1.546 0 0 1-1.466.017c-1.82-.977-3.481-1.016-4.992-.054l-.155.085c-2.472 1.18-5.067 1.194-7.78.024.094.04-.099-.048-.099-.048l-.036-.019c-1.521-.85-3.239-.798-5.159.059l-.024.01h.001-.001l-.061.025c-2.31.865-4.62.912-6.931.219-.046.566.293 1.121.912 1.343 2.525.907 5.05.939 7.575-.007l.084-.034c1.921-.857 3.639-.91 5.159-.059 0 0 .229.107.135.066 2.714 1.171 5.308 1.157 7.781-.023l.155-.086c1.511-.962 3.172-.923 4.992.055.45.241 1.024.234 1.466-.018l.012-.006c.525-.305.759-.862.644-1.396l-1.844-8.567a.75.75 0 0 0-.733-.592h-.615Z"
                  class="colorffad28 svgShape"></path>
            <path fill="#fea350"
                  d="m2.163 11.583-.608 2.826c-.134.62.208 1.264.887 1.508 2.525.907 5.05.939 7.575-.007l.084-.034c1.921-.857 3.639-.91 5.159-.059 0 0 .229.107.135.066 2.714 1.171 5.308 1.157 7.781-.023l.155-.086c1.511-.962 3.172-.923 4.992.055.45.241 1.024.234 1.466-.018l.012-.006c.525-.305.759-.862.644-1.396l-.621-2.886a.812.812 0 0 0-.285.08l-.353.006c-2.396-1.257-4.586-1.232-6.579.01l-.034.019c-2.08.973-4.263.964-6.545-.003l-.031-.015c-1.947-1.066-4.145-1.076-6.6.002l-.032.013c-2.203.807-4.804.771-7.004-.008a.765.765 0 0 0-.198-.044Z"
                  class="colorfea350 svgShape"></path>
            <path fill="#f3812f"
                  d="m28.556 11.306.334 1.548c.115.534-.12 1.09-.645 1.395l-.012.007a1.546 1.546 0 0 1-1.466.017c-1.82-.977-3.481-1.016-4.992-.054l-.155.085c-2.472 1.18-5.067 1.194-7.78.024.094.04-.099-.048-.099-.048l-.036-.019c-1.521-.85-3.239-.798-5.159.059l-.024.01h.001-.001l-.061.025c-2.31.865-4.62.912-6.931.219-.046.566.293 1.121.912 1.343 2.525.907 5.05.939 7.575-.007l.084-.034c1.921-.857 3.639-.91 5.159-.059 0 0 .229.107.135.066 2.714 1.171 5.308 1.157 7.781-.023l.155-.086c1.511-.962 3.172-.923 4.992.055.45.241 1.024.234 1.466-.018l.012-.006c.525-.305.759-.862.644-1.396l-.621-2.886a.812.812 0 0 0-.285.08l-.353.006a9.497 9.497 0 0 0-.63-.303Z"
                  class="colorf3812f svgShape"></path>
            <path fill="#435a64"
                  d="m10.305 16.332-.113.047c-2.64.988-5.28.957-7.919.009-.935-.336-1.391-1.231-1.207-2.084L2.91 5.737a1.25 1.25 0 0 1 1.222-.987h23.736a1.25 1.25 0 0 1 1.222.987l1.844 8.567c.159.738-.156 1.512-.882 1.933l-.005.003h.001-.001l-.013.007.002-.001a2.055 2.055 0 0 1-1.95.023c-1.636-.878-3.129-.938-4.487-.073-.01.006-.198.111-.208.115-2.604 1.243-5.336 1.264-8.194.031l-.18-.089c-1.39-.776-2.958-.703-4.712.079Zm19.245-.959-.008.004a1.038 1.038 0 0 1-.983.011c-1.998-1.073-3.822-1.095-5.482-.045l-.14.078c-2.322 1.099-4.757 1.108-7.303.02l-.138-.065c-1.649-.919-3.511-.887-5.591.04l-.076.031c-2.406.898-4.812.864-7.218 0-.424-.152-.651-.546-.567-.933l1.844-8.567a.25.25 0 0 1 .244-.197h23.736a.25.25 0 0 1 .244.197l1.845 8.567c.071.33-.083.67-.407.859Z"
                  class="color435a64 svgShape"></path>
            <path fill="#fea350"
                  d="M28.618 4.5v-.526a2.75 2.75 0 0 0-2.75-2.75H6.132a2.75 2.75 0 0 0-2.75 2.75V4.5l-.178 2.25h25.592l-.178-2.25Z"
                  class="colorfea350 svgShape"></path>
            <path fill="#f3812f"
                  d="M26.873 1.413c.122.312.189.651.189 1.005v.526l.093 1.171a1.002 1.002 0 0 1-.997 1.079H3.327L3.204 6.75h25.592l-.178-2.25v-.526a2.753 2.753 0 0 0-1.745-2.561Z"
                  class="colorf3812f svgShape"></path>
            <circle cx="24.763" cy="3.987" r="1.05" fill="#e5e8fc" class="colore5e8fc svgShape"></circle>
            <circle cx="21.058" cy="3.987" r="1.05" fill="#e5e8fc" class="colore5e8fc svgShape"></circle>
            <circle cx="17.353" cy="3.987" r="1.05" fill="#e5e8fc" class="colore5e8fc svgShape"></circle>
            <path fill="#435a64"
                  d="m2.882 4.48-.177 2.23a.502.502 0 0 0 .499.54h25.592a.5.5 0 0 0 .499-.54l-.177-2.23v-.506a3.25 3.25 0 0 0-3.25-3.25H6.132a3.25 3.25 0 0 0-3.25 3.25v.506zm.5.52.5-.5v-.526a2.25 2.25 0 0 1 2.25-2.25h19.736a2.25 2.25 0 0 1 2.25 2.25V4.5l.001.04.136 1.71H3.745l.136-1.71-.499.46zm4.242 25.724a.5.5 0 0 0 .5.5h8.3a.5.5 0 0 0 .5-.5V22.66a2.75 2.75 0 0 0-2.75-2.75h-3.8a2.75 2.75 0 0 0-2.75 2.75v8.064zm1-.5V22.66a1.75 1.75 0 0 1 1.749-1.75h3.801a1.75 1.75 0 0 1 1.75 1.75v7.564h-7.3zm17.592-8.064a2.25 2.25 0 0 0-2.25-2.25h-3.623a2.25 2.25 0 0 0-2.25 2.25v1.568a2.25 2.25 0 0 0 2.25 2.25h3.623a2.25 2.25 0 0 0 2.25-2.25V22.16zm-1 0v1.568c0 .69-.559 1.25-1.25 1.25h-3.623c-.69 0-1.25-.56-1.25-1.25V22.16c0-.69.56-1.25 1.25-1.25h3.623c.691 0 1.25.56 1.25 1.25z"
                  class="color435a64 svgShape"></path>
        </svg>
    </g>
</svg>