<svg id="SvgjsSvg1195" width="256" height="256" xmlns="http://www.w3.org/2000/svg" version="1.1">
    <defs id="SvgjsDefs1196"></defs>
    <g id="SvgjsG1197">
        <svg xmlns="http://www.w3.org/2000/svg" enable-background="new 0 0 54 54" viewBox="0 0 54 54" width="256"
             height="256">
            <path fill="#4e342e" d="M51.7822266,8.3774414C51.5927734,8.1391602,51.3046875,8,51,8H3
			C2.6953125,8,2.4072266,8.1391602,2.2177734,8.3774414c-0.1904297,0.2382812-0.2607422,0.550293-0.1923828,0.8476562l3,13
			C5.1298828,22.6787109,5.5341797,23,6,23h42c0.4658203,0,0.8701172-0.3212891,0.9746094-0.7749023l3-13
			C52.0429688,8.9277344,51.9726562,8.6157227,51.7822266,8.3774414z" class="color4e342e svgShape"></path>
            <path fill="#c3922e"
                  d="M18 13H8c-.5527344 0-1 .4477539-1 1v8c0 .5522461.4472656 1 1 1h10c.5527344 0 1-.4477539 1-1v-8C19 13.4477539 18.5527344 13 18 13zM46 15H36c-.5527344 0-1 .4477539-1 1v6c0 .5522461.4472656 1 1 1h10c.5527344 0 1-.4477539 1-1v-6C47 15.4477539 46.5527344 15 46 15zM32 11H22c-.5527344 0-1 .4477539-1 1v6c0 .5522461.4472656 1 1 1h10c.5527344 0 1-.4477539 1-1v-6C33 11.4477539 32.5527344 11 32 11z"
                  class="colorc3922e svgShape"></path>
            <path fill="#f9a825"
                  d="M50 1H4C2.8974609 1 2 1.8969727 2 3v2c0 .5522461.4472656 1 1 1h48c.5527344 0 1-.4477539 1-1V3C52 1.8969727 51.1025391 1 50 1zM50 21H4c-1.6542969 0-3 1.3457031-3 3v26c0 1.6542969 1.3457031 3 3 3h46c1.6542969 0 3-1.3457031 3-3V24C53 22.3457031 51.6542969 21 50 21z"
                  class="colorf9a825 svgShape"></path>
            <path fill="#8d6e63" d="M48,25H6c-0.5527344,0-1,0.4477539-1,1v22c0,0.5522461,0.4472656,1,1,1h42c0.5527344,0,1-0.4477539,1-1V26
			C49,25.4477539,48.5527344,25,48,25z" class="color8d6e63 svgShape"></path>
            <path fill="none" stroke="#000" stroke-linecap="round" stroke-linejoin="round" stroke-miterlimit="10"
                  stroke-width="2" d="M51,9H3C2.4477153,9,2,8.5522852,2,8V6c0-0.5522847,0.4477153-1,1-1h48c0.5522842,0,1,0.4477153,1,1v2
			C52,8.5522852,51.5522842,9,51,9z" class="colorStroke000 svgStroke"></path>
            <path fill="#f57f17" d="M51,4H3C1.8974609,4,1,4.8969727,1,6v2c0,1.1030273,0.8974609,2,2,2h48c1.1025391,0,2-0.8969727,2-2V6
			C53,4.8969727,52.1025391,4,51,4z" class="colorf57f17 svgShape"></path>
            <path fill="#fbc02d" d="M33,17H21c-0.5527344,0-1,0.4477539-1,1v8c0,2.7568359,2.2431641,5,5,5h4c2.7568359,0,5-2.2431641,5-5v-8
			C34,17.4477539,33.5527344,17,33,17z" class="colorfbc02d svgShape"></path>
            <circle cx="27" cy="24" r="3" fill="#f57f17" class="colorf57f17 svgShape"></circle>
            <path d="M27,27c1.6542969,0,3-1.3457031,3-3s-1.3457031-3-3-3s-3,1.3457031-3,3S25.3457031,27,27,27z M27,23
			c0.5517578,0,1,0.4487305,1,1s-0.4482422,1-1,1s-1-0.4487305-1-1S26.4482422,23,27,23z" fill="#000000"
                  class="color000 svgShape"></path>
            <path d="M53,8V6c0-0.7369995-0.4052124-1.3748169-1-1.7217407V3c0-1.1030273-0.8974609-2-2-2H4C2.8974609,1,2,1.8969727,2,3
			v1.2782593C1.4052124,4.6251831,1,5.2630005,1,6v2c0,0.802002,0.477356,1.4902344,1.1600952,1.8087769L4.7426758,21H4
			c-1.6542969,0-3,1.3457031-3,3v26c0,1.6542969,1.3457031,3,3,3h46c1.6542969,0,3-1.3457031,3-3V24c0-1.6542969-1.3457031-3-3-3
			h-0.7426758l2.5825806-11.1912231C52.522644,9.4902344,53,8.802002,53,8z M3,8V6h48l0.0009766,2H3z M50,3v1H4V3H50z M14,21h-2v-3
			h2V21z M16,21v-3.5859375l1-1V21H16z M14.5859375,16h-3.171875l-1-1h5.171875L14.5859375,16z M9,16.4140625l1,1V21H9V16.4140625z
			 M51,24v26c0,0.5512695-0.4482422,1-1,1H4c-0.5517578,0-1-0.4487305-1-1V24c0-0.5512695,0.4482422-1,1-1h16v2H6
			c-0.5527344,0-1,0.4477539-1,1v22c0,0.5522461,0.4472656,1,1,1h42c0.5527344,0,1-0.4477539,1-1V26c0-0.5522461-0.4472656-1-1-1H34
			v-2h16C50.5517578,23,51,23.4487305,51,24z M47,40H7v-6h40V40z M7,42h40v5H7V42z M47,32H7v-5h13.1010742
			C20.5657349,29.2792969,22.5855713,31,25,31h4c2.4144287,0,4.4342651-1.7207031,4.8989258-4H47V32z M26,16h2v1h-2V16z M32,19v7
			c0,1.6542969-1.3457031,3-3,3h-4c-1.6542969,0-3-1.3457031-3-3v-7H32z M30,17v-1.5859375l1-1V17H30z M28.5859375,14h-3.171875
			l-1-1h5.171875L28.5859375,14z M23,14.4140625l1,1V17h-1V14.4140625z M40,20h2v1h-2V20z M44,21v-1.5859375l1-1V21H44z
			 M42.5859375,18h-3.171875l-1-1h5.171875L42.5859375,18z M37,18.4140625l1,1V21h-1V18.4140625z M47,21v-5
			c0-0.5499878-0.4500122-1-1-1H36c-0.5499878,0-1,0.4500122-1,1v5h-1v-3c0-0.5522461-0.4472656-1-1-1v-5
			c0-0.5522461-0.4472656-1-1-1H22c-0.5527344,0-1,0.4477539-1,1v5c-0.5527344,0-1,0.4477539-1,1v3h-1v-7
			c0-0.5499878-0.4500122-1-1-1H8c-0.5499878,0-1,0.4500122-1,1v7H6.7957764L4.2573242,10h45.4853516l-2.5384521,11H47z"
                  fill="#000000" class="color000 svgShape"></path>
        </svg>
    </g>
</svg>