<svg id="SvgjsSvg1012" width="256" height="256" xmlns="http://www.w3.org/2000/svg" version="1.1"
     xmlns:xlink="http://www.w3.org/1999/xlink" xmlns:svgjs="http://svgjs.com/svgjs">
    <defs id="SvgjsDefs1013"></defs>
    <g id="SvgjsG1014">
        <svg xmlns="http://www.w3.org/2000/svg" viewBox="0 0 512 512" width="256" height="256">
            <path d="M352 464a211.12073 211.12073 0 01-38.53613-3.50391l-2.92774 15.73047A227.21078 227.21078 0 00352 480c36.80127 0 72.70068-8.89551 101.08545-25.04688l-7.91309-13.90624C419.16064 455.84863 386.07129 464 352 464zM459.21924 431.89746l9.56152 12.82813A129.74779 129.74779 0 00485.834 429.58691L474.167 418.6377A113.70147 113.70147 0 01459.21924 431.89746zM62.30127 126.00586c-1.40967 5.47754-2.59912 11.08594-3.53613 16.66992l15.77929 2.64844c.86182-5.13574 1.95606-10.29395 3.252-15.33008zM56.68408 159.34277C56.23 164.84863 56 170.45312 56 176a200.70085 200.70085 0 006.30127 49.99414l15.49512-3.98828A184.68568 184.68568 0 0172 176c0-5.11035.21191-10.27246.63037-15.34277zM24.66479 64.79028A48.03461 48.03461 0 0163.207 103.334a.80359.80359 0 001.5835-.00024A48.03448 48.03448 0 01103.334 64.793a.80359.80359 0 00-.00024-1.5835A48.03464 48.03464 0 0164.79321 24.66724a.8051.8051 0 00-1.58642 0 48.03509 48.03509 0 01-38.542 38.54248.80212.80212 0 000 1.58056zM192 140.707V211.293l64 35.55566L320 211.293V140.707l-64-35.55566zm68.11621-11.56738l40 24A8.00153 8.00153 0 01304 160v32H288V164.5293l-32.3501-19.41016-28.07226 14.03613-7.15528-14.31054 32-16A7.99923 7.99923 0 01260.11621 129.13965z"
                  fill="#ea8532" class="color000 svgShape"></path>
            <path d="M451.712,212.84106A159.86016,159.86016,0,0,0,456,176c0-88.22461-71.77588-160-160-160H256C167.77588,16,96,87.77539,96,176a159.21493,159.21493,0,0,0,10.15088,56.07617c-23.9978,7.47681-44.81506,19.76392-60.70654,35.957C26.18164,287.66211,16,311.165,16,336v56c0,28.31543,15.34912,54.74414,43.21973,74.418C86.24463,485.49414,122.03564,496,160,496s73.75537-10.50586,100.78027-29.582c14.42078-10.17969,25.47913-22.17066,32.80365-35.29273A194.04793,194.04793,0,0,0,352,440c37.96436,0,73.75537-10.50586,100.78027-29.582C480.65088,390.74414,496,364.31543,496,336V288C496,259.4624,479.94543,232.37061,451.712,212.84106ZM389.542,264a159.58838,159.58838,0,0,0,16.32544-32h22.788a144.082,144.082,0,0,1-18.759,32Zm5.94971,16a144.08916,144.08916,0,0,1-58.8808,34.16016A161.1952,161.1952,0,0,0,377.46112,280Zm15.423-64a159.283,159.283,0,0,0,4.86481-32h23.99359a143.21949,143.21949,0,0,1-5.43225,32Zm28.84247-48H415.78229a159.37948,159.37948,0,0,0-4.84467-32h23.4046A143.36334,143.36334,0,0,1,439.75714,168ZM409.89972,88A144.09834,144.09834,0,0,1,428.665,120H405.87811a159.62066,159.62066,0,0,0-16.32147-32ZM395.498,72h-18.0116A161.16736,161.16736,0,0,0,336.6109,37.83984,144.06347,144.06347,0,0,1,395.498,72ZM336,136v80a8.00038,8.00038,0,0,1-4.11475,6.99316l-72,40a7.99973,7.99973,0,0,1-7.7705,0l-72-40A8.00038,8.00038,0,0,1,176,216V136a8.00038,8.00038,0,0,1,4.11475-6.99316l72-40a8.00313,8.00313,0,0,1,7.7705,0l72,40A8.00038,8.00038,0,0,1,336,136ZM223.61,332.70312a159.25051,159.25051,0,0,0,16.37219,2.49756c.007.26636.01782.53272.01782.79932,0,19.05371-17.57666,35.74219-45.87109,43.55371l-4.25782-15.42383C210.28467,358.49512,224,347.19043,224,336A14.87132,14.87132,0,0,0,223.61,332.70312ZM256,48a127.97731,127.97731,0,0,1,63.90576,17.07129l-7.999,13.85742A112.01077,112.01077,0,0,0,179.85547,258.13477l-10.88086,11.73046A128.00037,128.00037,0,0,1,256,48ZM112.97314,357.291C125.40381,364.19727,142.105,368,160,368c2.50488,0,5.03174-.07715,7.51025-.22949l.9795,15.9707C165.687,383.91309,162.83057,384,160,384c-44.85986,0-80-21.084-80-48a31.225,31.225,0,0,1,1.92676-10.74609l15.02734,5.49218A15.28682,15.28682,0,0,0,96,336C96,343.53809,102.18652,351.29883,112.97314,357.291Zm-13.501-53.0293c11.31653-7.77026,26.59625-13.04688,43.43341-15.188A161.34022,161.34022,0,0,0,160,303.919V304c-20.25977,0-39.02051,4.90332-51.47217,13.45117ZM56,443.241C40.90308,428.79956,32,411.10205,32,392v-4.47607a117.43092,117.43092,0,0,0,24,26.00439ZM48,336c0-33.97534,29.181-63.44995,72.54114-74.94507a160.846,160.846,0,0,0,9.9555,14.07349c-18.23755,3.97729-34.55084,11.64013-46.46685,21.93408C70.92627,308.38281,64,321.84766,64,336c0,9.5332,3.13232,18.72949,9.30957,27.335l-12.998,9.33008C52.25732,361.44531,48,348.7666,48,336Zm56,135.1189a140.67818,140.67818,0,0,1-32-15.27466V424.73486a156.56942,156.56942,0,0,0,32,14.52784Zm48,8.7041a179.38974,179.38974,0,0,1-32-4.22852V443.64673a182.47327,182.47327,0,0,0,32,4.17847Zm48-4.22852a179.38974,179.38974,0,0,1-32,4.22852V447.8252a182.47327,182.47327,0,0,0,32-4.17847Zm48-19.75024a140.67818,140.67818,0,0,1-32,15.27466V439.2627a156.56942,156.56942,0,0,0,32-14.52784ZM160,416c-25.44922,0-49.40674-5.88477-69.28223-17.01953l7.81934-13.959C115.7793,394.68066,137.60742,400,160,400c41.07861,0,77.63135-17.53711,90.957-43.6377l14.25,7.2754C249.21777,394.957,206.938,416,160,416Zm128-24c0,19.10205-8.90308,36.79956-24,51.241V413.52832a117.43092,117.43092,0,0,0,24-26.00439Zm-32-88a128.27777,128.27777,0,0,1-59.73877-14.76855l7.47754-14.14454a112.01377,112.01377,0,0,0,134.396-175.23144l11.73046-10.88086A128.00041,128.00041,0,0,1,256,304Zm88,119.82617a176.6859,176.6859,0,0,1-43.92767-7.4397A77.92923,77.92923,0,0,0,304,392v-5.88086a192.50807,192.50807,0,0,0,40,5.72241Zm48-4.23169a179.38974,179.38974,0,0,1-32,4.22852V391.83789a196.171,196.171,0,0,0,32-3.87109Zm48-19.75024a140.67818,140.67818,0,0,1-32,15.27466V384h-.31415A162.80536,162.80536,0,0,0,440,370.439Zm-10.26807-59.77588C408.84521,352.92188,381.23975,360,352,360a167.45806,167.45806,0,0,1-48-6.84888V336.35254A149.02075,149.02075,0,0,0,352,344c26.31934,0,50.94678-6.23535,69.34619-17.55859C438.53418,315.86426,448,302.21289,448,288c0-10.37646-5.2475-20.69043-14.8952-29.606a159.805,159.805,0,0,0,7.74487-14.48217C455.80908,256.40674,464,271.898,464,288,464,307.97754,451.83008,326.46973,429.73193,340.06836ZM480,336c0,19.10205-8.90308,36.79956-24,51.241V360.06445a112.26486,112.26486,0,0,0,24-24.15063Z"
                  fill="#ea8532" class="color000 svgShape"></path>
        </svg>
    </g>
</svg>