<svg id="SvgjsSvg1034" width="256" height="256" xmlns="http://www.w3.org/2000/svg" version="1.1"
     xmlns:xlink="http://www.w3.org/1999/xlink" xmlns:svgjs="http://svgjs.com/svgjs">
    <defs id="SvgjsDefs1035"></defs>
    <g id="SvgjsG1036">
        <svg xmlns="http://www.w3.org/2000/svg" viewBox="0 0 64 64" width="256" height="256">
            <path fill="#ef5350"
                  d="M25.75 35.35a1.52 1.52 0 0 1-.42-.06 1.49 1.49 0 0 1-1-1.86l3.12-10.75a1.5 1.5 0 1 1 2.88.83l-3.14 10.76a1.51 1.51 0 0 1-1.44 1.08zm-2.05 7.06a1.52 1.52 0 0 1-1.44-1.06l-5.53-17.81a1.5 1.5 0 1 1 2.86-.89l5.54 17.81a1.5 1.5 0 0 1-1 1.88 1.75 1.75 0 0 1-.43.07zm18.19-.01h-3.17a5.45 5.45 0 0 1-5.45-5.4 1.5 1.5 0 1 1 3 0 2.45 2.45 0 0 0 2.45 2.44h3.17A2.45 2.45 0 0 0 44.34 37v-1.29a2.45 2.45 0 0 0-2.45-2.45h-3.17a5.46 5.46 0 0 1-5.45-5.45V27a5.45 5.45 0 0 1 5.45-5.44h3.63a5 5 0 0 1 5 5 1.5 1.5 0 0 1-3 0 2 2 0 0 0-2-2h-3.63A2.45 2.45 0 0 0 36.27 27v.77a2.45 2.45 0 0 0 2.45 2.45h3.17a5.46 5.46 0 0 1 5.45 5.45V37a5.45 5.45 0 0 1-5.45 5.4z"
                  class="coloref5350 svgShape"></path>
            <path fill="#546e7a"
                  d="M48 17.46a1.51 1.51 0 0 1-1-.46 1.49 1.49 0 0 1 0-2.12l12-12A1.5 1.5 0 0 1 61.12 5l-12 12a1.51 1.51 0 0 1-1.12.46zM4 61.5a1.51 1.51 0 0 1-1.06-.44 1.49 1.49 0 0 1 0-2.12l12-12A1.5 1.5 0 1 1 17 49.1l-12 12a1.51 1.51 0 0 1-1 .4z"
                  class="color546e7a svgShape"></path>
            <path fill="#546e7a"
                  d="M12.38 44.89a1.51 1.51 0 0 1-1.3-.74A24.2 24.2 0 0 1 32 7.82a24 24 0 0 1 17.1 7.08A1.5 1.5 0 1 1 47 17a21.19 21.19 0 0 0-33.3 25.62 1.51 1.51 0 0 1-.55 2 1.43 1.43 0 0 1-.77.27zM32 56.18a24 24 0 0 1-17.1-7.08A1.5 1.5 0 0 1 17 47a21.19 21.19 0 0 0 33.43-25.45A1.5 1.5 0 0 1 53 20.06a24.2 24.2 0 0 1-21 36.12z"
                  class="color546e7a svgShape"></path>
        </svg>
    </g>
</svg>