<svg xmlns="http://www.w3.org/2000/svg" xmlns:xlink="http://www.w3.org/1999/xlink" width="47" zoomAndPan="magnify" viewBox="0 0 35.25 44.999999" height="60" preserveAspectRatio="xMidYMid meet" version="1.0"><defs><clipPath id="736bbcbe87"><path d="M 0 0.46875 L 34.515625 0.46875 L 34.515625 44.53125 L 0 44.53125 Z M 0 0.46875 " clip-rule="nonzero"/></clipPath></defs><g clip-path="url(#736bbcbe87)"><path fill="#ffffff" d="M 29.816406 23.996094 C 30.363281 20.34375 30.199219 17.265625 29.953125 15.191406 L 17.257812 11.003906 L 4.5625 15.191406 C 4.316406 17.265625 4.152344 20.351562 4.699219 23.996094 C 5.078125 26.5625 5.757812 30.84375 8.613281 35.257812 C 11.492188 39.714844 15.140625 42.070312 17.257812 43.195312 C 19.375 42.070312 23.015625 39.714844 25.902344 35.257812 C 28.75 30.84375 29.4375 26.5625 29.816406 23.996094 Z M 17.257812 42.371094 C 14.914062 41.070312 11.730469 38.746094 9.21875 34.863281 C 6.390625 30.496094 5.753906 26.195312 5.414062 23.886719 C 5.011719 21.195312 4.949219 18.449219 5.226562 15.722656 L 17.257812 11.757812 L 29.289062 15.722656 C 29.566406 18.449219 29.503906 21.1875 29.101562 23.886719 C 28.757812 26.195312 28.125 30.488281 25.296875 34.863281 C 22.785156 38.746094 19.601562 41.070312 17.257812 42.371094 Z M 27.246094 17.339844 C 27.367188 19.425781 27.273438 21.515625 26.964844 23.574219 C 26.644531 25.71875 26.054688 29.710938 23.480469 33.691406 C 21.554688 36.675781 19.183594 38.628906 17.257812 39.855469 C 15.332031 38.628906 12.960938 36.667969 11.035156 33.691406 C 8.460938 29.710938 7.871094 25.71875 7.550781 23.574219 C 7.242188 21.515625 7.148438 19.425781 7.269531 17.339844 L 17.257812 14.042969 Z M 8.238281 11.152344 L 9.46875 12.765625 L 7.496094 13.421875 L 6.351562 11.867188 C 6.976562 11.519531 7.609375 11.28125 8.238281 11.152344 Z M 10.265625 12.507812 L 8.871094 10.683594 C 9.171875 10.0625 9.597656 9.46875 10.152344 8.910156 L 12.425781 11.800781 Z M 34.277344 44.53125 L 28.742188 42.269531 L 25.230469 37.5 C 25.691406 36.914062 26.128906 36.300781 26.535156 35.667969 C 26.605469 35.5625 26.667969 35.460938 26.726562 35.359375 L 30.316406 40.0625 C 30.453125 40.230469 30.695312 40.265625 30.867188 40.128906 C 30.957031 40.0625 31.003906 39.964844 31.015625 39.863281 C 31.03125 39.761719 31.003906 39.660156 30.933594 39.570312 L 27.171875 34.636719 C 27.660156 33.792969 28.074219 32.960938 28.429688 32.144531 L 33.5 38.589844 Z M 4.308594 3.433594 L 7.414062 7.140625 C 7.605469 7.371094 7.953125 7.40625 8.183594 7.222656 L 10.285156 5.585938 C 10.457031 5.457031 10.679688 5.417969 10.886719 5.492188 L 11.871094 5.839844 C 12.117188 5.925781 12.269531 6.171875 12.234375 6.429688 L 11.851562 8.917969 L 11.492188 7.65625 C 11.429688 7.441406 11.171875 7.351562 10.988281 7.488281 C 9.769531 8.378906 8.855469 9.410156 8.320312 10.601562 C 7.03125 10.820312 5.808594 11.445312 4.636719 12.398438 C 4.460938 12.542969 4.480469 12.816406 4.671875 12.929688 L 5.792969 13.597656 L 3.308594 13.339844 C 3.042969 13.3125 2.832031 13.09375 2.824219 12.820312 L 2.777344 11.757812 C 2.769531 11.554688 2.859375 11.355469 3.023438 11.226562 L 5.085938 9.632812 C 5.324219 9.449219 5.371094 9.109375 5.195312 8.863281 L 2.382812 4.933594 C 2.796875 4.882812 3.199219 4.722656 3.554688 4.449219 C 3.90625 4.175781 4.160156 3.820312 4.308594 3.433594 Z M 0.625 3.707031 C 0 2.894531 0.144531 1.730469 0.953125 1.101562 C 1.761719 0.476562 2.925781 0.621094 3.554688 1.429688 C 4.179688 2.242188 4.035156 3.40625 3.226562 4.03125 C 2.421875 4.660156 1.253906 4.511719 0.625 3.707031 Z M 24.25 12.507812 L 22.097656 11.800781 L 24.371094 8.910156 C 24.921875 9.46875 25.351562 10.0625 25.652344 10.683594 Z M 25.046875 12.765625 L 26.277344 11.152344 C 26.90625 11.28125 27.539062 11.515625 28.164062 11.859375 L 27.019531 13.414062 Z M 7.972656 35.667969 C 8.378906 36.300781 8.816406 36.90625 9.277344 37.5 L 5.765625 42.269531 L 0.238281 44.53125 L 1.019531 38.589844 L 6.09375 32.144531 C 6.445312 32.953125 6.863281 33.792969 7.351562 34.636719 L 3.574219 39.578125 C 3.507812 39.664062 3.480469 39.769531 3.492188 39.871094 C 3.507812 39.972656 3.554688 40.066406 3.640625 40.136719 C 3.8125 40.273438 4.0625 40.238281 4.195312 40.066406 L 7.78125 35.375 C 7.84375 35.46875 7.910156 35.570312 7.972656 35.667969 Z M 22.28125 6.429688 C 22.242188 6.171875 22.390625 5.921875 22.644531 5.839844 L 23.628906 5.492188 C 23.835938 5.421875 24.058594 5.457031 24.230469 5.585938 L 26.332031 7.222656 C 26.570312 7.40625 26.910156 7.371094 27.101562 7.140625 L 30.207031 3.433594 C 30.355469 3.820312 30.613281 4.175781 30.960938 4.449219 C 31.308594 4.722656 31.71875 4.878906 32.132812 4.933594 L 29.320312 8.863281 C 29.144531 9.109375 29.199219 9.449219 29.429688 9.632812 L 31.484375 11.234375 C 31.648438 11.355469 31.738281 11.554688 31.730469 11.765625 L 31.683594 12.828125 C 31.671875 13.09375 31.464844 13.320312 31.199219 13.347656 L 28.714844 13.605469 L 29.839844 12.9375 C 30.027344 12.820312 30.050781 12.550781 29.871094 12.40625 C 28.703125 11.453125 27.476562 10.824219 26.191406 10.609375 C 25.652344 9.414062 24.738281 8.394531 23.519531 7.492188 C 23.335938 7.359375 23.078125 7.445312 23.015625 7.664062 L 22.65625 8.925781 Z M 30.957031 1.429688 C 31.582031 0.621094 32.746094 0.46875 33.554688 1.101562 C 34.367188 1.730469 34.515625 2.894531 33.882812 3.707031 C 33.257812 4.515625 32.09375 4.667969 31.28125 4.03125 C 30.480469 3.40625 30.328125 2.234375 30.957031 1.429688 Z M 30.957031 1.429688 " fill-opacity="1" fill-rule="nonzero"/></g></svg>